SplineFontDB: 3.0
FontName: Untitled1
FullName: Untitled1
FamilyName: Untitled1
Weight: Regular
Copyright: Copyright (c) 2018, Yuansheng Zhao
UComments: "2018-4-20: Created with FontForge (http://fontforge.org)"
Version: 001.000
ItalicAngle: 0
UnderlinePosition: -100
UnderlineWidth: 50
Ascent: 800
Descent: 200
InvalidEm: 0
LayerCount: 4
Layer: 0 0 "Back" 1
Layer: 1 0 "Fore" 0
Layer: 2 0 "Back 2" 1
Layer: 3 0 "Back 3" 1
XUID: [1021 70 263418660 21896]
OS2Version: 0
OS2_WeightWidthSlopeOnly: 0
OS2_UseTypoMetrics: 1
CreationTime: 1524202099
ModificationTime: 1524589839
OS2TypoAscent: 0
OS2TypoAOffset: 1
OS2TypoDescent: 0
OS2TypoDOffset: 1
OS2TypoLinegap: 0
OS2WinAscent: 0
OS2WinAOffset: 1
OS2WinDescent: 0
OS2WinDOffset: 1
HheadAscent: 0
HheadAOffset: 1
HheadDescent: 0
HheadDOffset: 1
OS2Vendor: 'PfEd'
DEI: 91125
Encoding: UnicodeFull
UnicodeInterp: none
NameList: AGL For New Fonts
DisplaySize: -48
AntiAlias: 1
FitToEm: 0
WinInfo: 0 27 9
BeginChars: 1114112 240

StartChar: exclam
Encoding: 33 33 0
Width: 984
Flags: W
HStem: -21 55<214.322 341.148> 41 55<487.172 591.799> 448 60<333.754 477.299> 679 20G<783.888 818.888>
LayerCount: 4
Fore
SplineSet
863.734375 691 m 1
 877.659179688 674 l 1
 825.676757812 492 794.616210938 332 750.0234375 105 c 1
 779.9453125 114 797.098632812 122 822.404296875 138 c 1
 853.33203125 95 l 1
 824.565429688 68 774.028320312 53 737.875 45 c 1
 730.264648438 0 l 1
 583.264648438 0 l 1
 591.798828125 41 l 1
 549.798828125 41 499.490234375 51 450.103515625 70 c 1
 409.801757812 15 357.112304688 -21 284.112304688 -21 c 0
 192.112304688 -21 120.18359375 35 102.869140625 110 c 0
 91.0947265625 161 118.859375 201 165.859375 201 c 0
 209.859375 201 244.170898438 165 252.020507812 131 c 0
 258.715820312 102 242.411132812 73 204.02734375 66 c 1
 204.2578125 65 l 1
 217.413085938 47 243.415039062 34 272.415039062 34 c 0
 315.415039062 34 354.874023438 58 388.639648438 98 c 1
 304.01953125 144 230.627929688 215 209.618164062 306 c 0
 181.453125 428 277.983398438 508 383.983398438 508 c 0
 441.983398438 508 506.754882812 483 560.682617188 440 c 1
 587.907226562 504 617.28515625 563 653.588867188 605 c 0
 699.353515625 658 752.887695312 699 814.887695312 699 c 0
 822.887695312 699 840.349609375 697 863.734375 691 c 1
746.434570312 610 m 1
 743.97265625 612 l 1
 688.669921875 570 656.13671875 516 606.071289062 395 c 1
 625.612304688 371 642.615234375 345 654.309570312 316 c 1
 656.309570312 316 l 1
 681.530273438 419 713.2890625 524 746.434570312 610 c 1
623.01171875 222 m 0
 613.315429688 264 598.234375 299 580.30859375 329 c 1
 555.083984375 265 536.705078125 206 482.791015625 119 c 1
 523.25390625 104 566.100585938 96 605.100585938 96 c 1
 615.328125 134 622.170898438 165 627.70703125 193 c 0
 627.62890625 202 624.627929688 215 623.01171875 222 c 0
536.611328125 384 m 1
 490.221679688 429 436.834960938 448 395.834960938 448 c 0
 331.834960938 448 280.071289062 395 299.002929688 313 c 0
 316.086914062 239 365.015625 183 425.327148438 147 c 1
 471.704101562 219 504.7734375 301 536.611328125 384 c 1
EndSplineSet
EndChar

StartChar: quotedbl
Encoding: 34 34 1
Width: 984
Flags: W
HStem: -6 35<223.069 330.12> 37.9629 38.7383<508.345 787.576> 459 49<336.035 481.702> 679 20G<783.888 818.888>
LayerCount: 4
Fore
SplineSet
712 76.701171875 m 7
 764.05218662 76.701171875 803.702148438 103.69140625 837.404296875 125 c 1
 853.33203125 95 l 1
 815.309232989 59.3122406792 761.324738738 37.962890625 700 37.962890625 c 3
 587.109074492 37.962890625 511.138671875 40.1953125 423 80.3466796875 c 0
 323.348632812 125.743164062 233.702809219 201.681715428 209.618164062 306 c 0
 181.453125 428 277.983398438 508 383.983398438 508 c 0
 454.2356752 508 535.52734375 467.9140625 587 416.881835938 c 0
 615.826171875 388.302734375 648.34765625 340.583007812 664.309570312 301 c 1
 653.70703125 204 l 1
 648.147460938 268.420898438 597.39453125 339.563476562 568.446289062 376 c 0
 526.546875 428.736328125 450.4765625 459 394.834960938 459 c 0
 330.834960938 459 283.071289062 395 302.002929688 313 c 0
 322.030273438 226.250976562 379.086914062 152.53125 454 116.028320312 c 0
 531.95703125 78.04296875 609.910129529 76.701171875 712 76.701171875 c 7
740.264648438 0 m 1
 583.264648438 0 l 1
 609.153794594 124.376920954 625.01009173 185.926491218 656.309570312 316 c 0
 687.920701239 447.368664989 720.2578125 542.173828125 756.97265625 644 c 1
 693.974609375 600.712890625 645.266601562 542.7265625 597.361328125 420 c 0
 562.94921875 331.842773438 528.36328125 253.313476562 475.112304688 145 c 0
 441.903049808 77.4517580282 368.737304688 -6 284.112304688 -6 c 0
 192.112304688 -6 120.18359375 35 102.869140625 110 c 0
 91.0947265625 161 118.859375 201 165.859375 201 c 0
 209.859375 201 244.170898438 165 252.020507812 131 c 0
 258.715820312 102 242.411132812 73 204.02734375 66 c 1
 204.2578125 65 l 1
 217.413085938 47 243.415039062 29 272.415039062 29 c 0
 330.03125 29 375.600585938 79.5849609375 410.352539062 126 c 0
 472.094726562 208.461914062 506.531815739 314.022331198 549.076817104 413 c 0
 579.467636127 483.701899715 612.225385908 557.146318685 653.588867188 605 c 0
 699.353515625 658 752.887695312 699 814.887695312 699 c 0
 822.887695312 699 850.349609375 697 873.734375 691 c 1
 887.659179688 674 l 1
 835.676757812 492 804.616210938 332 760.0234375 105 c 0
 752.931640625 70.505859375 745.852539062 35.998046875 740.264648438 0 c 1
EndSplineSet
EndChar

StartChar: uni00B2
Encoding: 178 178 2
Width: 788
Flags: W
HStem: -286 94<556.416 643.609> -14 36<260.346 285> 623 41<401.632 524.32>
VStem: 56 138<129.295 319.192> 567 139<306.979 519.396>
LayerCount: 4
Fore
SplineSet
723 -142 m 0
 747 -109 765 -130 755 -153 c 0
 733 -208 645 -286 564 -286 c 0
 489 -286 410 -243 334 -203 c 0
 267 -167 202 -133 147 -133 c 0
 125 -133 104 -137 91 -142 c 0
 72 -150 56 -162 44 -162 c 0
 33 -162 27 -155 27 -145 c 0
 27 -107 215 -51 281 -16 c 0
 282 -15 284 -15 285 -14 c 1
 151 -9 56 95 56 242 c 0
 56 458 234 664 468 664 c 0
 606 664 706 558 706 408 c 0
 706 256 606 122 456 29 c 0
 391 -11 344 -37 275 -63 c 1
 285 -63 l 2
 334 -63 400 -93 462 -125 c 0
 528 -158 590 -192 631 -192 c 0
 671 -192 702 -171 723 -142 c 0
329 22 m 2
 343 22 l 1
 502 134 567 293 567 468 c 0
 567 564 537 623 465 623 c 0
 322 623 194 360 194 181 c 0
 194 100 222 23 329 22 c 2
EndSplineSet
EndChar

StartChar: uni00B3
Encoding: 179 179 3
Width: 768
Flags: W
HStem: -3 35<-27.5508 50.7942 247.771 308.81> -1 48<610.942 703.398> 300 26<321.746 346.554> 623 34<154.078 219.835 403.368 476.636>
VStem: 514 144<431.283 584.035>
LayerCount: 4
Fore
SplineSet
-13 -3 m 0xb8
 -22 -3 -31 2 -29 11 c 0
 -26 22 -16 29 -1 32 c 0xb8
 52 43 73 55 86 98 c 2
 227 552 l 2
 242 600 231 608 182 619 c 0
 166 622 154 628 154 639 c 0
 154 650 179 655 191 655 c 0
 246 655 279 648 323 648 c 0
 369 648 397 657 463 657 c 0
 594 657 658 594 658 508 c 0
 658 414 573 349 483 328 c 0
 477 325 475 320 478 315 c 0
 509 239 541 181 568 125 c 0
 590 80 623 48 668 47 c 0
 685 46 704 41 704 25 c 0
 704 3 672 -1 574 -1 c 0x78
 472 -1 435 38 417 88 c 0
 394 148 377 196 358 265 c 0
 351 286 340 300 319 300 c 0
 305 300 299 292 295 280 c 2
 239 100 l 2
 226 57 242 44 293 32 c 0
 306 29 312 24 309 12 c 0
 305 2 297 -3 286 -3 c 0
 242 -3 171 2 133 2 c 0
 92 2 32 -3 -13 -3 c 0xb8
351 326 m 0
 443 326 514 399 514 521 c 0
 514 578 480 623 435 623 c 0
 409 623 401 618 376 536 c 2
 323 364 l 2
 315 336 325 326 351 326 c 0
EndSplineSet
EndChar

StartChar: acute
Encoding: 180 180 4
Width: 653
Flags: W
HStem: -14 40<152.755 295.079> 626 38<332.266 457.281>
VStem: 2 97<23 157> 152 134<453.523 550.714> 349 138<109.903 202.934> 512 41<442.181 528.503>
LayerCount: 4
Fore
SplineSet
237 -14 m 0
 189 -14 147 -9 110 6 c 0
 91 14 78 19 74 19 c 0
 65 19 56 15 49 12 c 0
 39 6 30 0 25 0 c 0
 17 0 2 13 2 23 c 0
 2 38 44 111 54 187 c 0
 58 210 64 220 80 220 c 0
 98 220 99 200 99 157 c 0
 99 91 138 26 222 26 c 0
 302 26 349 75 349 138 c 0
 349 182 332 210 250 283 c 0
 185 340 152 388 152 468 c 0
 152 579 252 664 390 664 c 0
 436 664 475 654 503 645 c 0
 529 637 543 632 559 632 c 0
 569 632 575 633 584 638 c 0
 593 643 602 647 611 647 c 0
 625 647 627 636 620 625 c 0
 599 596 568 527 553 467 c 0
 549 452 542 442 530 442 c 0
 517 442 512 455 512 483 c 0
 512 570 465 626 394 626 c 0
 322 626 286 571 286 521 c 0
 286 473 304 447 383 380 c 0
 463 313 487 262 487 196 c 0
 487 92 394 -14 237 -14 c 0
EndSplineSet
EndChar

StartChar: mu
Encoding: 181 181 5
Width: 716
Flags: W
HStem: -3 35<52.5781 135.329 336.045 392.9> 613 36<211.395 320.167 485.5 622.98>
VStem: 646 42<493.661 582.294>
LayerCount: 4
Fore
SplineSet
69 -3 m 0
 59 -3 49 2 51 11 c 0
 54 22 67 29 82 32 c 0
 135 43 160 56 173 98 c 2
 304 523 l 2
 327 600 325 613 302 613 c 2
 255 613 l 2
 208 613 161 583 129 550 c 0
 113 534 80 497 60 497 c 0
 49 497 49 505 50 515 c 0
 52 521 57 533 64 542 c 0
 103 588 119 622 137 669 c 0
 143 685 152 694 164 694 c 0
 178 694 193 679 205 670 c 0
 223 659 233 649 300 649 c 2
 577 649 l 2
 660 649 680 660 690 665 c 0
 715 675 731 693 746 693 c 0
 755 693 757 687 754 678 c 0
 753 672 750 664 746 657 c 0
 722 616 703 575 688 526 c 0
 681 504 674 493 663 493 c 0
 651 493 646 504 646 529 c 0
 644 583 627 613 571 613 c 2
 521 613 l 2
 490 613 479 597 456 525 c 2
 325 99 l 2
 313 60 329 46 376 32 c 0
 388 28 396 24 393 12 c 0
 391 2 380 -3 369 -3 c 0
 325 -3 259 2 219 2 c 0
 178 2 114 -3 69 -3 c 0
EndSplineSet
EndChar

StartChar: paragraph
Encoding: 182 182 6
Width: 792
Flags: W
HStem: -14 74<266.051 407.482> 610 44<350.642 432.392> 618 37<121.103 166.416 572.102 624.787 735.855 812.101>
LayerCount: 4
Fore
SplineSet
291 -14 m 0xa0
 119 -14 31 95 81 255 c 2
 169 538 l 2
 179 575 173 609 143 618 c 0
 125 624 118 631 121 640 c 0
 123 649 138 655 153 655 c 0xa0
 194 655 241 650 280 650 c 0
 317 650 377 654 415 654 c 0
 431 654 439 649 437 639 c 0
 433 625 406 620 382 610 c 0xc0
 358 601 335 578 320 531 c 2
 226 237 l 2
 192 129 254 60 337 60 c 0
 446 60 528 154 563 262 c 0
 592 349 614 421 622 450 c 0
 652 568 637 598 606 615 c 0
 593 623 568 626 572 639 c 0
 574 649 587 653 605 653 c 0
 653 653 671 651 706 651 c 0
 743 651 755 655 793 655 c 0
 807 655 817 652 814 640 c 0
 811 631 799 624 780 619 c 0
 732 607 715 588 694 529 c 0
 662 436 636 351 606 256 c 0
 555 95 464 -14 291 -14 c 0xa0
EndSplineSet
EndChar

StartChar: periodcentered
Encoding: 183 183 7
Width: 726
Flags: W
HStem: 619 35<70.2357 132.213 329.901 409.209 502.105 552.419 692.928 773.722>
LayerCount: 4
Fore
SplineSet
106 -17 m 0
 62 -17 58 32 74 111 c 0
 106 276 129 415 144 553 c 0
 148 591 137 607 104 616 c 0
 83 624 70 626 70 639 c 0
 70 650 82 654 103 654 c 0
 142 654 201 650 241 650 c 0
 280 650 349 654 389 654 c 0
 401 654 413 649 411 640 c 0
 408 629 390 621 376 619 c 0
 330 609 314 598 306 555 c 2
 235 170 l 2
 234 162 234 159 238 159 c 0
 241 159 242 163 249 171 c 2
 498 469 l 2
 583 570 569 605 525 619 c 0
 511 622 499 629 502 640 c 0
 504 649 521 654 535 654 c 0
 574 654 600 651 639 651 c 0
 678 651 705 657 745 657 c 0
 760 657 775 651 775 641 c 0
 775 628 752 625 737 620 c 0
 695 609 656 581 621 541 c 2
 259 129 l 2
 212 75 130 -17 106 -17 c 0
EndSplineSet
EndChar

StartChar: cedilla
Encoding: 184 184 8
Width: 1104
Flags: W
HStem: 616 38<65.5586 133.969 320.644 405.087 460.645 529.598 719.211 808.319 871.105 921.025 1063.6 1153.12>
VStem: 538 272<551.5 646>
LayerCount: 4
Fore
SplineSet
114 -17 m 0
 77 -17 71 50 80 114 c 0
 104 265 127 412 142 548 c 0
 147 593 135 606 100 616 c 0
 79 624 65 625 65 639 c 0
 65 650 77 654 99 654 c 0
 138 654 188 650 229 650 c 0
 269 650 345 654 385 654 c 0
 397 654 410 649 408 640 c 0
 404 628 386 621 372 618 c 0
 324 608 309 598 302 552 c 0
 283 437 257 314 239 199 c 0
 236 179 242 178 257 195 c 2
 493 479 l 2
 518 510 538 538 538 565 c 0
 538 595 528 607 496 616 c 0
 474 624 460 626 460 639 c 0
 460 650 473 654 494 654 c 0
 534 654 590 650 629 650 c 0
 668 650 743 655 785 655 c 0
 800 655 810 651 810 641 c 0
 810 629 793 622 776 619 c 0
 725 609 707 597 699 554 c 2
 636 197 l 2
 633 178 641 180 655 198 c 2
 868 470 l 2
 947 572 931 607 894 619 c 0
 881 623 868 628 871 640 c 0
 873 649 890 654 904 654 c 0
 943 654 980 651 1019 651 c 0
 1059 651 1086 657 1126 657 c 0
 1141 657 1155 651 1155 641 c 0
 1155 628 1132 623 1117 620 c 0
 1075 610 1031 581 996 541 c 2
 644 133 l 2
 581 58 529 -14 503 -14 c 0
 459 -14 457 31 470 111 c 0
 489 217 518 363 534 463 c 1
 258 131 l 2
 213 77 157 -17 114 -17 c 0
EndSplineSet
EndChar

StartChar: uni00B9
Encoding: 185 185 9
Width: 785
Flags: W
HStem: -2 36<-21.7585 53.5005 177.907 243.523 314.615 385.271 592.242 660.644> 619 35<153.351 220.884 426.292 492.285 564.713 621.068 738.884 811.098>
LayerCount: 4
Fore
SplineSet
8 -7 m 0
 -7 -7 -24 -3 -24 9 c 0
 -24 22 -7 26 7 30 c 0
 38 38 72 55 136 128 c 2
 293 309 l 2
 312 331 318 345 308 376 c 2
 256 550 l 2
 241 598 212 615 177 619 c 0
 163 620 153 627 153 640 c 0
 153 649 164 654 175 654 c 0
 236 654 282 648 337 648 c 0
 383 648 423 654 466 654 c 0
 478 654 493 649 493 640 c 0
 493 629 477 621 463 619 c 0
 423 610 404 590 417 544 c 2
 461 395 l 2
 466 377 479 378 490 392 c 2
 578 504 l 2
 638 582 634 612 593 618 c 0
 580 621 564 629 564 640 c 0
 564 649 579 653 593 653 c 0
 622 653 648 650 679 650 c 0
 717 650 742 657 781 657 c 0
 796 657 812 653 812 641 c 0
 812 629 796 625 782 621 c 0
 752 612 708 588 681 558 c 2
 506 360 l 2
 488 339 483 325 492 298 c 2
 557 95 l 2
 568 61 597 43 629 34 c 0
 642 31 663 22 663 9 c 0
 663 0 651 -5 637 -5 c 0
 563 -5 519 1 457 1 c 0
 417 1 379 -2 341 -2 c 0
 329 -2 314 4 314 13 c 0
 314 24 332 31 344 34 c 0
 388 45 405 60 395 97 c 2
 343 281 l 2
 338 297 325 296 315 284 c 2
 202 133 l 2
 151 63 174 41 216 32 c 0
 231 28 245 22 245 10 c 0
 245 2 230 -3 216 -3 c 0
 177 -3 157 0 119 0 c 0
 79 0 48 -7 8 -7 c 0
EndSplineSet
EndChar

StartChar: ordmasculine
Encoding: 186 186 10
Width: 726
Flags: W
HStem: -6 37<74.0242 156.352 358.277 418.898> 614 40<106.102 164.174 337.143 424.968 512.15 576.8> 621 35<697.285 772.46>
LayerCount: 4
Fore
SplineSet
96 -6 m 0xa0
 79 -6 71 1 73 10 c 0
 76 22 92 28 109 31 c 0
 162 41 188 67 200 110 c 2
 244 250 l 2
 256 288 255 314 244 351 c 2
 184 553 l 2
 175 583 162 606 136 614 c 0
 112 622 103 627 106 640 c 0
 108 649 121 654 132 654 c 0
 189 654 229 648 286 648 c 0
 323 648 361 654 406 654 c 0xc0
 418 654 430 649 428 640 c 0
 426 629 408 622 394 619 c 0
 333 605 322 588 331 546 c 2
 373 364 l 2
 378 343 383 338 388 338 c 0
 393 338 400 345 412 358 c 0
 457 411 504 474 551 533 c 0
 589 578 590 609 536 618 c 0
 523 621 509 629 512 640 c 0
 515 649 531 653 545 653 c 0
 576 653 603 649 640 649 c 0
 680 649 713 656 749 656 c 0
 764 656 777 652 773 640 c 0
 770 628 755 625 741 621 c 0
 699 609 653 583 628 555 c 0
 570 488 510 420 453 357 c 0
 428 330 412 299 399 258 c 2
 354 110 l 2
 338 61 350 44 396 31 c 0
 411 27 423 23 419 11 c 0
 417 1 404 -5 389 -5 c 0
 345 -5 282 2 243 2 c 0
 202 2 141 -6 96 -6 c 0xa0
EndSplineSet
EndChar

StartChar: guillemotright
Encoding: 187 187 11
Width: 737
Flags: W
HStem: 1 41<216.885 478.484> 615 34<306.375 496.002>
VStem: 153 53<496.99 546.631>
LayerCount: 4
Fore
SplineSet
528 -4 m 0
 502 -4 368 0 233 1 c 0
 129 1 58 -3 -2 -6 c 0
 -15 -7 -11 18 -7 22 c 0
 16 51 47 88 75 119 c 0
 216 275 349 434 496 595 c 0
 503 604 508 615 488 615 c 0
 461 616 380 612 351 609 c 0
 300 602 251 580 206 522 c 0
 193 505 182 489 163 489 c 0
 152 489 151 498 153 507 c 0
 155 514 158 524 163 534 c 0
 185 574 197 607 210 638 c 0
 218 659 225 667 241 667 c 0
 279 667 328 650 389 649 c 2
 502 649 l 2
 562 649 656 654 704 654 c 0
 714 654 720 634 715 629 c 2
 619 522 l 2
 489 379 351 218 221 69 c 0
 207 53 206 42 227 42 c 0
 250 42 303 42 347 43 c 0
 405 43 456 51 496 69 c 0
 539 87 574 114 607 161 c 0
 615 170 621 174 629 174 c 0
 637 174 642 167 640 158 c 0
 630 125 588 59 562 15 c 0
 555 2 543 -4 528 -4 c 0
EndSplineSet
EndChar

StartChar: onequarter
Encoding: 188 188 12
Width: 577
Flags: W
HStem: 360 68<258.664 329.595>
VStem: -21 137<19.4789 153.5>
LayerCount: 4
Fore
SplineSet
41 -14 m 0
 13 -14 -21 14 -21 37 c 0
 -21 96 26 168 167 323 c 0
 225 386 280 428 305 428 c 0
 322 428 344 418 364 402 c 0
 373 392 372 393 374 393 c 0
 377 393 376 393 380 400 c 0
 390 419 393 424 395 432 c 0
 399 439 407 443 420 443 c 0
 450 443 494 417 494 400 c 0
 494 397 493 393 492 390 c 2
 392 118 l 2
 386 102 391 92 403 92 c 0
 418 92 453 118 486 152 c 0
 489 155 489 155 491 155 c 0
 497 155 502 148 502 139 c 0
 502 120 475 84 435 51 c 0
 386 11 336 -14 305 -14 c 0
 274 -14 239 16 239 41 c 0
 239 46 241 54 244 64 c 0
 249 80 266 118 278 147 c 0
 281 154 275 159 272 155 c 0
 168 37 98 -14 41 -14 c 0
146 92 m 0
 168 92 224 139 275 203 c 0
 318 255 345 299 345 316 c 0
 345 323 338 331 325 342 c 0
 312 352 297 360 288 360 c 0
 268 360 226 332 195 300 c 0
 154 258 116 180 116 127 c 0
 116 105 127 92 146 92 c 0
EndSplineSet
EndChar

StartChar: onehalf
Encoding: 189 189 13
Width: 508
Flags: W
HStem: -13 39<67.5 173.02> 355 78<296.525 389.5>
VStem: -14 106<36.4536 155.861> 325 127<246.478 353.933>
LayerCount: 4
Fore
SplineSet
105 -13 m 0
 30 -13 -14 26 -14 95 c 0
 -14 121 -9 152 4 189 c 2
 114 539 l 2
 124 572 126 583 126 599 c 0
 126 612 117 619 92 628 c 0
 76 634 70 638 70 644 c 0
 70 652 76 657 97 665 c 0
 148 682 245 707 260 707 c 0
 278 707 286 703 286 694 c 0
 286 678 283 667 276 653 c 0
 241 575 204 471 139 263 c 0
 136 253 140 251 146 260 c 0
 223 369 305 433 365 433 c 0
 414 433 452 395 452 349 c 0
 452 185 263 -13 105 -13 c 0
135 26 m 0
 159 26 206 68 239 118 c 0
 283 186 325 285 325 325 c 0
 325 343 314 355 298 355 c 0
 269 355 222 319 169 245 c 0
 121 179 92 118 92 89 c 0
 92 61 111 26 135 26 c 0
EndSplineSet
EndChar

StartChar: threequarters
Encoding: 190 190 14
Width: 404
Flags: W
HStem: -14 110<92 203.376> 390 43<191.582 291.533>
VStem: -5 122<115.011 232.013>
LayerCount: 4
Fore
SplineSet
129 -14 m 0
 55 -14 -7 47 -5 122 c 0
 -1 284 115 433 266 433 c 0
 317 433 352 407 352 373 c 0
 352 347 330 317 311 317 c 0
 300 317 295 323 281 347 c 0
 268 370 250 390 233 390 c 0
 177 390 119 277 117 174 c 0
 116 125 143 96 187 96 c 0
 224 96 255 114 278 142 c 0
 283 150 291 154 297 154 c 0
 303 154 307 149 307 143 c 0
 307 77 211 -14 129 -14 c 0
EndSplineSet
EndChar

StartChar: questiondown
Encoding: 191 191 15
Width: 569
Flags: W
HStem: -14 98<63.0735 164> 384 50<247.552 322.156>
VStem: -21 134<46 169.855>
LayerCount: 4
Fore
SplineSet
58 -14 m 0
 12 -14 -21 22 -21 70 c 0
 -21 143 24 242 96 328 c 0
 154 397 211 434 261 434 c 0
 293 434 319 414 345 398 c 0
 355 393 357 391 362 391 c 0
 365 391 367 394 369 400 c 2
 416 550 l 2
 436 615 430 594 430 605 c 0
 430 618 417 629 390 640 c 0
 372 646 368 650 368 655 c 0
 368 664 374 669 398 677 c 0
 431 687 540 707 561 707 c 0
 578 707 586 702 586 693 c 0
 586 682 584 674 577 653 c 2
 396 116 l 2
 394 110 393 105 393 101 c 0
 393 95 396 91 400 91 c 0
 414 91 458 123 488 154 c 0
 492 158 491 158 493 158 c 0
 500 158 505 151 505 143 c 0
 505 93 371 -14 309 -14 c 0
 278 -14 242 16 242 42 c 0
 242 47 244 54 247 65 c 0
 258 93 291 162 284 142 c 1
 288 151 280 155 275 146 c 0
 184 36 116 -14 58 -14 c 0
144 84 m 0
 212 84 334 241 334 329 c 0
 334 364 318 384 291 384 c 0
 230 384 113 209 113 117 c 0
 113 95 124 84 144 84 c 0
EndSplineSet
EndChar

StartChar: Agrave
Encoding: 192 192 16
Width: 430
Flags: W
HStem: -15 98<107 219.837> 397 36<217.312 282.43>
VStem: 5 127<105.968 212.995> 287 97<306.544 395.823>
LayerCount: 4
Fore
SplineSet
134 -15 m 0
 80 -15 5 40 5 107 c 0
 5 272 140 433 274 433 c 0
 351 433 384 399 384 359 c 0
 384 268 248 233 149 212 c 0
 142 210 140 208 138 202 c 0
 135 192 133 181 132 170 c 0
 131 123 157 83 208 83 c 0
 246 83 275 104 305 136 c 0
 312 144 317 147 322 147 c 0
 329 147 332 143 332 137 c 0
 332 133 332 127 329 123 c 0
 290 51 227 -15 134 -15 c 0
156 247 m 0
 212 262 282 288 287 364 c 0
 287 379 278 397 259 397 c 0
 212 397 159 324 149 253 c 0
 148 247 151 246 156 247 c 0
EndSplineSet
EndChar

StartChar: Aacute
Encoding: 193 193 17
Width: 465
Flags: W
HStem: -291 48<-58.5941 10.7472> 365 53<95.1013 181.001 330.914 446.925> 665 41<407.358 474.994>
LayerCount: 4
Fore
SplineSet
-36 -291 m 0
 -130 -291 -169 -253 -169 -215 c 0
 -169 -181 -142 -158 -117 -158 c 0
 -105 -158 -88 -182 -75 -201 c 0
 -61 -222 -47 -243 -23 -243 c 0
 6 -243 26 -204 45 -138 c 2
 181 346 l 2
 184 359 181 364 167 364 c 2
 107 363 l 2
 93 363 89 368 89 380 c 0
 89 390 102 414 123 415 c 2
 186 418 l 2
 193 418 195 422 198 432 c 2
 206 457 l 2
 264 638 380 706 471 706 c 0
 531 706 578 675 578 631 c 0
 578 596 559 561 532 561 c 0
 509 561 502 587 492 614 c 0
 481 641 468 665 442 665 c 0
 404 665 376 604 353 528 c 0
 345 500 339 474 334 452 c 2
 331 433 l 2
 329 420 338 418 347 418 c 0
 382 418 411 421 445 421 c 0
 450 421 455 415 455 407 c 0
 455 396 437 368 428 368 c 2
 347 365 l 2
 323 364 314 358 309 341 c 0
 269 197 226 46 186 -99 c 0
 162 -189 30 -291 -36 -291 c 0
EndSplineSet
EndChar

StartChar: Acircumflex
Encoding: 194 194 18
Width: 578
Flags: W
HStem: -290 36<113.306 276.867> 345 69<462.036 552.759> 352 46<451.942 528.149> 401 32<299.239 352.647>
VStem: -52 113<-217.824 -140.354> 318 112<-207.5 -121> 358 95<272.531 372>
LayerCount: 4
Fore
SplineSet
171 -290 m 0xac
 48 -290 -52 -246 -52 -186 c 0
 -52 -130 34 -91 139 -63 c 0
 146 -61 147 -57 141 -54 c 0
 114 -38 87 -12 87 15 c 0
 87 45 123 66 168 90 c 0
 176 95 181 100 181 103 c 0
 181 106 177 108 171 111 c 0
 135 128 94 166 94 219 c 0
 94 303 172 433 319 433 c 0
 344 433 367 424 386 416 c 0
 407 408 425 398 436 398 c 0xbc
 470 398 503 414 530 414 c 0
 539 414 556 408 556 387 c 0
 556 363 544 345 529 345 c 0xcc
 511 345 483 352 461 352 c 0
 454 352 447 351 450 341 c 0
 452 332 453 323 453 314 c 0xaa
 453 207 362 94 241 94 c 0
 228 94 214 96 208 93 c 0
 201 89 198 81 198 76 c 0
 198 60 213 46 237 29 c 0
 275 3 335 -31 380 -61 c 0
 412 -83 430 -108 430 -134 c 0
 430 -213 296 -290 171 -290 c 0xac
224 134 m 0
 282 127 358 292 358 360 c 0x9a
 358 384 346 401 331 401 c 0
 279 401 201 243 201 177 c 0
 201 148 211 135 224 134 c 0
214 -254 m 0
 267 -254 318 -226 318 -189 c 0x8c
 318 -174 307 -156 290 -145 c 0
 262 -126 216 -98 193 -87 c 0
 188 -85 181 -83 178 -83 c 0
 170 -83 165 -85 158 -87 c 0
 94 -105 61 -128 61 -174 c 0
 61 -216 110 -254 214 -254 c 0
EndSplineSet
EndChar

StartChar: Atilde
Encoding: 195 195 19
Width: 550
Flags: W
HStem: -14 57<227 293.677> 361 73<310.5 437>
VStem: 359 133<219.704 359.996>
LayerCount: 4
Fore
SplineSet
41 -15 m 0
 24 -15 -13 4 -13 33 c 0
 -13 55 -8 76 1 105 c 2
 135 539 l 2
 141 560 146 579 146 596 c 0
 146 614 125 622 107 629 c 0
 97 633 88 636 88 644 c 0
 88 651 90 656 114 665 c 0
 145 675 255 707 276 707 c 0
 286 707 302 707 302 694 c 0
 302 678 298 667 293 654 c 2
 154 229 l 2
 151 219 159 219 164 227 c 0
 237 342 331 434 410 434 c 0
 464 434 492 394 492 346 c 0
 492 241 446 146 391 76 c 0
 373 53 270 -14 240 -14 c 0
 214 -14 179 15 179 32 c 0
 179 42 198 80 214 80 c 0
 229 80 234 71 244 62 c 0
 254 54 264 43 277 43 c 0
 312 43 359 236 359 324 c 0
 359 346 351 361 333 361 c 0
 288 361 185 166 105 43 c 0
 80 3 60 -15 41 -15 c 0
EndSplineSet
EndChar

StartChar: Adieresis
Encoding: 196 196 20
Width: 341
Flags: W
HStem: -14 99<40.222 157> 504 143<223.897 300.546>
VStem: 2 140<21.0338 96.3172> 195 134<531.773 617.834>
LayerCount: 4
Fore
SplineSet
247 504 m 0
 217 504 195 532 195 561 c 0
 195 606 231 647 279 647 c 0
 311 647 329 615 329 586 c 0
 329 543 292 504 247 504 c 0
63 -14 m 0
 31 -14 2 16 2 40 c 0
 2 46 3 53 7 61 c 0
 45 146 78 231 110 307 c 0
 111 311 109 313 105 313 c 0
 90 313 64 297 42 284 c 0
 25 274 17 282 17 292 c 0
 17 318 144 409 199 430 c 0
 228 441 266 408 257 384 c 2
 145 108 l 2
 143 103 142 97 142 93 c 0
 142 88 146 85 149 85 c 0
 165 85 223 127 251 155 c 0
 252 156 253 158 255 158 c 0
 262 158 268 151 268 144 c 0
 268 96 136 -14 63 -14 c 0
EndSplineSet
EndChar

StartChar: Aring
Encoding: 197 197 21
Width: 374
Flags: W
HStem: -290 53<-128.5 -20.9315> 506 143<274.897 351.546>
VStem: 246 134<533.773 619.834>
LayerCount: 4
Fore
SplineSet
298 506 m 0
 268 506 246 534 246 563 c 0
 246 608 282 649 330 649 c 0
 362 649 380 617 380 588 c 0
 380 545 343 506 298 506 c 0
-94 -290 m 0
 -163 -290 -190 -263 -189 -236 c 0
 -186 -202 -153 -177 -136 -177 c 0
 -115 -177 -102 -196 -90 -211 c 0
 -78 -225 -67 -237 -47 -237 c 0
 -13 -237 12 -187 36 -116 c 2
 160 267 l 2
 171 302 165 311 153 311 c 0
 137 311 121 303 101 294 c 0
 87 288 76 291 76 302 c 0
 76 313 84 317 96 327 c 0
 155 375 266 415 301 431 c 0
 320 439 345 416 339 399 c 0
 331 375 311 333 295 286 c 2
 181 -62 l 2
 139 -190 -25 -290 -94 -290 c 0
EndSplineSet
EndChar

StartChar: AE
Encoding: 198 198 22
Width: 482
Flags: W
HStem: -15 102<272.5 368> 187 24<162 193> 358 75<312.312 417>
VStem: -23 113<4.36591 81.7373> 145 163<586 700.5> 348 117<322.48 400.067>
LayerCount: 4
Fore
SplineSet
286 -15 m 0
 259 -15 239 1 228 35 c 2
 185 160 l 2
 179 178 171 187 162 187 c 0
 153 187 150 178 143 161 c 0
 126 122 107 68 90 28 c 0
 82 10 59 -7 29 -7 c 0
 8 -7 -23 12 -23 45 c 0
 -23 57 -19 72 -15 84 c 2
 132 536 l 2
 139 557 145 576 145 596 c 0
 145 612 138 621 121 628 c 0
 110 632 100 636 100 643 c 0
 100 651 102 656 124 663 c 0
 157 675 261 707 283 707 c 0
 292 707 308 707 308 694 c 0
 308 678 304 667 300 654 c 2
 176 300 l 2
 172 289 183 290 188 297 c 0
 241 371 314 433 397 433 c 0
 437 433 465 415 465 379 c 0
 465 316 376 246 297 215 c 0
 290 213 289 206 293 198 c 2
 331 113 l 2
 336 102 345 87 358 87 c 0
 378 87 411 113 430 140 c 0
 436 148 438 152 443 152 c 0
 449 152 451 144 451 139 c 0
 451 79 349 -15 286 -15 c 0
193 211 m 0
 263 211 348 292 348 333 c 0
 348 352 335 358 315 358 c 0
 268 358 183 249 183 224 c 0
 183 219 187 211 193 211 c 0
EndSplineSet
EndChar

StartChar: Ccedilla
Encoding: 199 199 23
Width: 334
Flags: W
HStem: -14 107<37.5307 169>
LayerCount: 4
Fore
SplineSet
59 -14 m 0
 28 -14 2 17 2 41 c 0
 2 47 4 55 7 63 c 2
 176 563 l 2
 192 607 186 623 163 629 c 0
 145 634 142 640 140 649 c 0
 139 657 140 662 154 666 c 0
 199 679 262 688 292 698 c 0
 303 701 329 707 335 707 c 0
 343 707 348 693 346 687 c 0
 344 677 339 660 333 643 c 2
 151 120 l 2
 149 115 148 110 148 106 c 0
 148 98 152 93 160 93 c 0
 178 93 217 129 243 157 c 0
 245 159 248 163 251 163 c 0
 261 163 262 152 262 147 c 0
 262 95 125 -14 59 -14 c 0
EndSplineSet
EndChar

StartChar: Egrave
Encoding: 200 200 24
Width: 795
Flags: W
HStem: 371 62<320.016 403.794 578.653 663.623>
VStem: -14 126<18.3281 91.7656>
LayerCount: 4
Fore
SplineSet
43 -15 m 0
 24 -15 -15 7 -14 42 c 0
 -13 49 -11 59 -6 72 c 2
 100 325 l 2
 105 339 102 348 88 348 c 0
 75 348 43 344 10 310 c 0
 5 303 -9 303 -9 315 c 0
 -10 329 15 364 30 377 c 0
 63 408 95 433 158 433 c 0
 204 433 228 389 207 342 c 2
 150 210 l 2
 146 200 156 199 161 208 c 0
 235 332 301 433 385 433 c 0
 461 433 476 352 439 283 c 1
 425 251 l 2
 419 241 433 240 439 248 c 0
 500 346 566 433 649 433 c 0
 726 433 728 356 696 282 c 2
 627 120 l 2
 618 98 620 89 631 89 c 0
 647 89 695 129 710 142 c 0
 716 149 725 157 729 157 c 0
 733 157 739 152 739 145 c 0
 738 131 733 118 721 106 c 0
 663 38 585 -14 509 -14 c 0
 490 -14 450 8 461 33 c 2
 597 334 l 2
 607 355 598 369 586 370 c 0
 568 370 544 344 513 298 c 0
 475 242 415 141 358 48 c 0
 335 12 292 -15 272 -15 c 0
 253 -15 223 11 223 31 c 0
 223 38 227 55 235 76 c 2
 343 337 l 2
 352 359 345 371 332 371 c 0
 316 371 287 343 248 289 c 0
 208 235 158 136 112 53 c 0
 88 9 67 -15 43 -15 c 0
EndSplineSet
EndChar

StartChar: Eacute
Encoding: 201 201 25
Width: 572
Flags: W
HStem: -14 103<262.341 410> 368 65<342.507 427.245>
LayerCount: 4
Fore
SplineSet
63 -14 m 0
 41 -14 -15 23 4 69 c 2
 105 320 l 2
 111 336 109 345 96 345 c 0
 82 345 45 345 15 310 c 0
 9 303 -4 303 -6 315 c 0
 -7 329 19 364 33 377 c 0
 65 408 109 433 172 433 c 0
 221 433 239 388 222 347 c 2
 169 216 l 2
 165 206 182 205 187 213 c 0
 257 338 327 433 410 433 c 0
 487 433 499 356 473 297 c 2
 398 120 l 2
 388 98 391 89 402 89 c 0
 418 89 466 127 480 140 c 0
 486 147 495 155 499 155 c 0
 503 155 509 149 509 143 c 0
 509 130 504 118 496 107 c 0
 437 37 349 -14 280 -14 c 0
 253 -14 221 15 232 40 c 0
 275 138 326 232 363 331 c 0
 372 356 370 368 355 368 c 0
 329 368 295 314 259 262 c 0
 235 229 166 115 129 50 c 0
 108 14 87 -14 63 -14 c 0
EndSplineSet
EndChar

StartChar: Ecircumflex
Encoding: 202 202 26
Width: 494
Flags: W
HStem: -14 39<131.138 193.554> 396 37<243.251 300.627>
VStem: -3 129<51.518 193.57> 306 129<223.939 371.953>
LayerCount: 4
Fore
SplineSet
142 -14 m 0
 66 -14 -3 43 -3 128 c 0
 -3 250 107 433 287 433 c 0
 376 433 435 380 435 290 c 0
 435 169 326 -14 142 -14 c 0
161 25 m 0
 226 25 306 234 306 354 c 0
 306 381 296 396 272 396 c 0
 215 396 126 191 126 69 c 0
 126 39 141 25 161 25 c 0
EndSplineSet
EndChar

StartChar: Edieresis
Encoding: 203 203 27
Width: 567
Flags: W
HStem: -285 30<-118.903 -55.2165 109.5 158.968> -14 38<198.37 270.662> 380 53<296.107 361.616>
VStem: 385 128<195.928 355.126>
LayerCount: 4
Fore
SplineSet
-109 -285 m 0
 -116 -285 -121 -281 -120 -274 c 0
 -119 -264 -109 -258 -98 -255 c 0
 -57 -245 -42 -239 -31 -207 c 2
 139 312 l 2
 145 331 154 352 131 347 c 0
 105 340 90 335 59 324 c 0
 48 320 34 319 34 334 c 0
 34 348 48 357 60 362 c 0
 81 370 105 383 155 403 c 0
 164 407 171 415 180 441 c 0
 201 505 238 534 279 534 c 0
 304 534 314 520 306 486 c 2
 295 447 l 2
 292 434 293 425 298 426 c 0
 315 430 333 433 352 433 c 0
 457 433 513 376 513 297 c 0
 513 156 378 -14 229 -14 c 0
 205 -14 186 -2 174 6 c 0
 157 19 150 18 142 -7 c 2
 88 -197 l 2
 80 -222 93 -239 140 -251 c 0
 149 -253 159 -258 159 -271 c 0
 159 -278 148 -283 137 -283 c 0
 103 -283 40 -280 11 -281 c 0
 -22 -281 -73 -285 -109 -285 c 0
229 24 m 0
 278 24 385 148 385 281 c 0
 385 352 353 380 304 380 c 0
 296 380 287 380 278 378 c 1
 192 110 l 2
 185 90 186 71 193 55 c 0
 200 36 206 24 229 24 c 0
EndSplineSet
EndChar

StartChar: Igrave
Encoding: 204 204 28
Width: 540
Flags: W
HStem: -288 32<92.6759 156.714> -276 30<314.189 375.482> -14 74<62.5 165.676> 392 48<283.472 357.966>
VStem: 1 133<60.581 172.181>
LayerCount: 4
Fore
SplineSet
103 -288 m 0xb8
 97 -289 92 -282 92 -275 c 0
 93 -265 103 -259 114 -256 c 0xb8
 155 -246 171 -238 183 -206 c 0
 216 -116 261 14 304 131 c 0
 308 141 300 144 292 134 c 0
 207 23 154 -14 87 -14 c 0
 38 -14 1 26 1 81 c 0
 1 168 61 263 136 342 c 0
 193 400 265 440 324 440 c 0
 346 440 370 428 381 412 c 0
 391 400 397 393 404 394 c 0
 410 394 416 399 422 408 c 2
 430 421 l 2
 451 452 473 462 492 462 c 0
 511 462 522 434 498 361 c 2
 311 -198 l 2
 301 -227 317 -242 342 -246 c 0
 365 -249 376 -255 376 -264 c 0
 376 -271 365 -276 352 -276 c 0x78
 250 -276 156 -282 103 -288 c 0xb8
157 60 m 0
 196 60 258 136 304 208 c 0
 339 262 370 307 370 336 c 0
 370 358 350 392 325 392 c 0
 260 392 134 172 134 90 c 0
 134 72 140 60 157 60 c 0
EndSplineSet
EndChar

StartChar: Iacute
Encoding: 205 205 29
Width: 488
Flags: W
HStem: 348 85<358.831 422.941>
VStem: 386 102<302.416 348.053>
LayerCount: 4
Fore
SplineSet
87 -15 m 0
 68 -15 29 4 29 31 c 0
 29 40 31 50 36 64 c 2
 137 325 l 2
 142 339 139 348 126 348 c 0
 99 348 86 336 67 321 c 0
 60 315 47 315 46 326 c 0
 43 354 72 383 108 404 c 0
 137 421 173 433 205 433 c 0
 260 433 270 383 242 317 c 2
 204 226 l 2
 199 216 211 215 216 224 c 0
 285 348 350 434 423 434 c 0
 465 434 488 406 488 370 c 0
 488 316 445 263 413 263 c 0
 398 263 391 277 386 305 c 0
 382 328 375 349 359 349 c 0
 335 349 313 316 283 264 c 0
 262 230 199 120 166 63 c 0
 141 18 111 -15 87 -15 c 0
EndSplineSet
EndChar

StartChar: Icircumflex
Encoding: 206 206 30
Width: 400
Flags: W
HStem: -14 52<46.5 158.379> 366 67<183.415 266>
VStem: 75 91<254.5 342.5>
LayerCount: 4
Fore
SplineSet
75 -14 m 0
 18 -14 -19 14 -19 55 c 0
 -19 89 -2 116 23 116 c 0
 33 116 47 101 63 84 c 0
 82 66 107 38 133 38 c 0
 155 38 164 52 165 74 c 0
 166 94 141 130 120 161 c 0
 96 195 75 236 75 273 c 0
 75 343 192 433 241 433 c 0
 291 433 344 394 344 370 c 0
 344 347 308 305 285 305 c 0
 270 305 256 320 246 334 c 0
 234 352 214 366 196 366 c 0
 177 366 166 350 166 335 c 0
 166 319 195 285 219 253 c 0
 258 203 274 173 274 140 c 0
 274 84 174 -14 75 -14 c 0
EndSplineSet
EndChar

StartChar: Idieresis
Encoding: 207 207 31
Width: 348
Flags: W
HStem: -14 112<29.6875 167.5> 369 54<18.5957 96.36 241.999 349.594>
LayerCount: 4
Fore
SplineSet
51 -14 m 0
 20 -14 -11 23 -11 46 c 0
 -11 55 -9 64 0 87 c 2
 94 339 l 2
 102 362 92 367 83 367 c 2
 35 369 l 2
 12 370 10 381 10 389 c 0
 10 393 33 423 58 423 c 2
 107 423 l 2
 126 423 129 426 140 448 c 2
 168 504 l 2
 183 533 222 567 245 567 c 0
 266 567 272 541 266 521 c 2
 242 444 l 2
 237 424 243 421 257 421 c 0
 275 421 296 419 320 416 c 0
 350 412 351 405 351 395 c 0
 351 391 344 379 324 376 c 0
 306 374 289 372 264 371 c 0
 239 370 228 366 223 352 c 2
 148 145 l 2
 133 102 144 98 156 98 c 0
 179 98 232 147 257 172 c 0
 261 175 264 176 265 175 c 0
 272 173 276 164 274 156 c 0
 264 105 131 -14 51 -14 c 0
EndSplineSet
EndChar

StartChar: Eth
Encoding: 208 208 32
Width: 600
Flags: W
HStem: -14 99<72.5 179> 329 105<116 239>
LayerCount: 4
Fore
SplineSet
93 -14 m 0
 52 -14 15 48 32 86 c 2
 125 298 l 2
 134 318 132 329 122 329 c 0
 110 329 61 295 45 278 c 0
 28 261 15 263 15 275 c 0
 15 288 23 300 33 313 c 0
 91 384 162 434 225 434 c 0
 253 434 287 387 274 359 c 0
 249 303 211 222 164 122 c 0
 155 102 155 85 169 85 c 0
 189 85 241 159 293 228 c 0
 330 276 367 334 390 372 c 0
 412 407 428 433 451 433 c 0
 489 433 519 394 509 367 c 2
 409 108 l 2
 405 97 404 86 412 86 c 0
 428 86 492 132 519 159 c 0
 520 160 521 162 523 162 c 0
 530 162 536 154 536 147 c 0
 536 106 407 7 347 4 c 1
 318 -5 288 15 277 34 c 0
 274 38 273 50 278 61 c 0
 294 97 318 148 340 204 c 0
 344 215 334 216 328 207 c 0
 250 101 162 -14 93 -14 c 0
EndSplineSet
EndChar

StartChar: Ntilde
Encoding: 209 209 33
Width: 492
Flags: W
HStem: -14 82<95 239.5> 314 120<97 229.048>
VStem: 367 82<255.745 388.213>
LayerCount: 4
Fore
SplineSet
133 -14 m 0
 57 -14 20 41 49 120 c 2
 111 289 l 2
 118 309 109 314 104 314 c 0
 90 314 61 296 50 285 c 0
 41 277 33 271 30 271 c 0
 20 271 16 275 16 283 c 0
 16 290 24 302 37 319 c 0
 76 368 171 434 215 434 c 0
 240 434 264 400 259 384 c 2
 180 135 l 2
 166 89 174 68 211 68 c 0
 268 68 367 187 367 269 c 0
 367 302 355 324 336 342 c 0
 323 355 316 364 316 379 c 0
 316 396 378 434 408 434 c 0
 429 434 449 408 449 351 c 0
 449 268 392 173 321 98 c 0
 261 34 196 -14 133 -14 c 0
EndSplineSet
EndChar

StartChar: Ograve
Encoding: 210 210 34
Width: 717
Flags: W
HStem: -14 82<110.159 207.5 353.115 437.567> 314 120<101 228.469>
VStem: 342 125<267.555 373.461> 572 92<255.087 387.79>
LayerCount: 4
Fore
SplineSet
622 434 m 0
 642 434 664 408 664 351 c 0
 664 268 606 170 537 91 c 0
 483 29 420 -14 363 -14 c 0
 309 -14 280 26 282 81 c 1
 239 23 180 -14 114 -14 c 0
 57 -14 13 44 54 148 c 2
 109 292 l 2
 116 311 109 314 105 314 c 0
 97 314 70 303 52 290 c 0
 43 284 33 278 29 278 c 0
 20 278 16 283 16 291 c 0
 16 298 22 311 37 326 c 0
 81 370 170 434 215 434 c 0
 249 434 270 411 241 333 c 2
 166 136 l 2
 149 90 171 68 199 68 c 0
 235 68 293 141 319 216 c 0
 330 247 331 283 342 332 c 0
 343 343 354 367 370 381 c 0
 390 399 404 410 443 410 c 0
 468 410 486 385 467 320 c 0
 454 277 428 237 411 205 c 0
 398 180 389 151 390 130 c 0
 389 94 402 68 435 68 c 0
 497 68 572 179 572 270 c 0
 572 296 566 311 556 331 c 0
 544 354 533 368 533 376 c 0
 533 392 592 434 622 434 c 0
EndSplineSet
EndChar

StartChar: Oacute
Encoding: 211 211 35
Width: 521
Flags: W
HStem: -14 85<-18.0986 60.1861 252.5 330.366> 344 89<99.6572 181.5 375.701 451.806>
LayerCount: 4
Fore
SplineSet
3 -14 m 0
 -30 -14 -46 8 -46 34 c 0
 -46 64 -20 102 3 102 c 0
 10 102 18 94 24 85 c 0
 29 78 38 71 52 71 c 0
 64 71 78 78 93 94 c 0
 110 115 142 148 160 171 c 0
 166 181 168 186 164 198 c 2
 126 327 l 2
 123 338 119 344 112 344 c 0
 97 344 74 324 49 294 c 0
 46 291 42 287 37 287 c 0
 32 287 26 291 26 299 c 0
 26 349 91 433 165 433 c 0
 198 433 214 405 226 366 c 2
 255 274 l 2
 257 268 261 265 268 275 c 2
 327 357 l 2
 366 412 398 433 429 433 c 0
 464 433 490 399 490 379 c 0
 490 345 458 313 440 313 c 0
 425 313 420 320 415 329 c 0
 409 340 404 347 390 347 c 0
 379 347 365 344 338 316 c 0
 319 297 300 269 280 238 c 0
 274 227 269 217 274 200 c 2
 302 98 l 2
 308 76 314 71 324 71 c 0
 334 71 357 88 381 128 c 0
 384 132 389 136 394 136 c 0
 399 136 403 131 403 121 c 0
 403 81 341 -14 271 -14 c 0
 234 -14 207 20 200 50 c 0
 194 75 187 114 181 139 c 0
 178 148 175 151 169 143 c 0
 148 116 130 85 110 58 c 0
 77 12 35 -14 3 -14 c 0
EndSplineSet
EndChar

StartChar: Ocircumflex
Encoding: 212 212 36
Width: 520
Flags: W
HStem: -289 91<-68.5 57>
VStem: 183 112<92.4891 302.019> 370 98<269.805 416.388>
LayerCount: 4
Fore
SplineSet
-50 -289 m 0
 -87 -289 -124 -268 -124 -226 c 0
 -124 -191 -95 -152 -64 -152 c 0
 -50 -152 -33 -164 -18 -175 c 0
 -3 -186 15 -198 37 -198 c 0
 77 -198 119 -154 147 -90 c 0
 172 -33 183 41 183 122 c 0
 183 288 149 346 130 346 c 0
 112 346 85 299 76 279 c 0
 73 272 65 256 57 256 c 0
 53 256 48 267 48 284 c 0
 48 357 131 439 189 439 c 0
 228 439 249 412 266 362 c 0
 284 304 301 216 295 83 c 0
 294 59 301 63 310 80 c 0
 356 168 372 273 370 415 c 0
 370 426 393 440 403 440 c 0
 420 440 468 411 468 375 c 0
 468 251 355 53 187 -130 c 0
 108 -217 12 -289 -50 -289 c 0
EndSplineSet
EndChar

StartChar: Otilde
Encoding: 213 213 37
Width: 453
Flags: W
HStem: -33 85<203 305> -20 21G<-26.5 -18> 359 74<87 192>
VStem: -43 38<-19.4957 39.5904> 4 63<242.397 337.58> 329 55<63.5359 160.933>
LayerCount: 4
Fore
SplineSet
414 434 m 0x7c
 422 434 432 426 432 419 c 0
 432 409 413 387 395 371 c 2
 145 140 l 1
 170 135 194 117 216 97 c 0
 242 75 267 52 293 52 c 0
 317 52 329 85 329 121 c 0
 329 148 329 168 342 168 c 0
 361 168 384 150 384 112 c 0
 384 58 267 -33 223 -33 c 0xbc
 183 -33 150 -10 122 12 c 0
 95 33 72 54 51 54 c 0
 16 54 -5 26 -5 -5 c 0
 -5 -19 -15 -20 -21 -20 c 0
 -32 -20 -42 -2 -43 11 c 0
 -44 25 -38 48 -17 65 c 2
 240 287 l 1
 232 287 l 2
 205 287 181 309 158 328 c 0
 136 344 117 359 97 359 c 0
 77 359 67 334 67 312 c 0
 67 295 72 281 79 270 c 0
 85 261 85 257 79 251 c 0
 68 241 39 230 30 230 c 0
 22 230 4 245 4 273 c 0
 4 320 27 345 66 375 c 0
 94 398 151 433 177 433 c 0
 207 433 226 422 257 414 c 0
 283 405 310 396 336 396 c 0
 357 396 365 401 382 416 c 0
 390 423 403 434 414 434 c 0x7c
EndSplineSet
EndChar

StartChar: Oslash
Encoding: 216 216 38
Width: 672
Flags: W
HStem: 11 6<433 447> 634 31<393.747 535.464>
VStem: 66 88<140.567 365.222> 592 33<467.178 536.318>
LayerCount: 4
Fore
SplineSet
318 -14 m 0
 209 -14 66 84 66 240 c 0
 66 479 256 665 473 665 c 0
 510 665 547 659 584 646 c 0
 609 638 627 630 641 630 c 0
 647 630 654 634 662 638 c 0
 670 641 678 645 685 645 c 0
 697 645 696 634 692 629 c 0
 670 599 634 532 625 487 c 0
 623 477 614 467 607 467 c 0
 595 467 590 481 592 493 c 0
 598 523 600 556 577 585 c 0
 554 614 516 634 470 634 c 0
 326 634 154 458 154 232 c 0
 154 70 260 17 345 17 c 0
 447 17 484 71 524 139 c 0
 530 149 536 158 547 158 c 0
 553 158 554 151 554 138 c 0
 554 118 495 -9 482 -9 c 0
 477 -9 470 -3 463 2 c 0
 457 7 450 11 442 11 c 0
 433 11 419 6 401 0 c 0
 381 -7 353 -14 318 -14 c 0
EndSplineSet
EndChar

StartChar: Ugrave
Encoding: 217 217 39
Width: 763
Flags: W
HStem: -7 30<179.254 405.275> -5 29<-7.2371 83.2179> 622 27<159.18 240.504 363.125 523.814>
VStem: 655 86<265.985 493.048>
LayerCount: 4
Fore
SplineSet
313 -7 m 0xb0
 294 -7 193 0 120 0 c 0
 83 0 65 -5 16 -5 c 0
 0 -5 -8 -2 -8 6 c 0
 -8 15 5 23 28 24 c 0x70
 91 26 103 51 119 99 c 2
 269 560 l 2
 284 608 226 613 182 622 c 0
 162 626 158 633 158 642 c 0
 158 650 172 653 188 653 c 0
 241 653 283 649 325 649 c 0
 365 649 381 655 428 655 c 0
 615 655 741 560 741 377 c 0
 741 174 566 -7 313 -7 c 0xb0
318 23 m 0xb0
 517 23 655 207 655 395 c 0
 655 548 573 622 438 622 c 0
 354 622 354 605 343 571 c 2
 207 141 l 2
 179 52 226 23 318 23 c 0xb0
EndSplineSet
EndChar

StartChar: Uacute
Encoding: 218 218 40
Width: 631
Flags: W
HStem: -5 31<0.351318 92.9023 214.675 470.05> 322 27<296.297 460.349> 622 28<194.258 273.124 373.525 582.119>
VStem: 472 26<237.015 309.096> 596 28<516.463 594.81>
LayerCount: 4
Fore
SplineSet
23 -5 m 0
 7 -5 -1 -2 -1 6 c 0
 -1 15 12 20 35 24 c 0
 101 35 124 54 138 99 c 2
 275 549 l 2
 293 606 278 617 219 625 c 0
 199 628 193 633 193 642 c 0
 193 650 208 653 224 653 c 0
 239 653 303 650 345 650 c 2
 506 650 l 2
 615 650 638 660 643 660 c 0
 648 660 654 652 654 647 c 0
 654 635 632 593 624 535 c 0
 622 521 613 516 607 516 c 0
 600 516 595 526 596 541 c 0
 600 602 590 622 537 622 c 2
 415 622 l 2
 383 622 373 614 366 592 c 2
 299 380 l 2
 291 356 294 348 315 349 c 2
 439 352 l 2
 473 353 492 369 508 389 c 0
 517 400 529 420 541 420 c 0
 551 420 552 406 545 392 c 0
 533 369 525 350 518 331 c 0
 510 309 504 287 498 258 c 0
 496 249 492 237 485 237 c 0
 474 237 472 257 472 264 c 0
 472 305 457 320 434 320 c 2
 319 322 l 2
 296 322 279 320 271 291 c 2
 220 109 l 2
 201 41 212 26 254 26 c 2
 409 26 l 2
 442 26 468 38 489 53 c 0
 509 67 526 88 543 116 c 0
 548 124 553 134 561 134 c 0
 567 134 568 122 568 114 c 0
 568 96 543 39 529 16 c 0
 521 3 512 -5 496 -5 c 0
 359 -5 236 1 143 1 c 0
 94 1 73 -5 23 -5 c 0
EndSplineSet
EndChar

StartChar: Ucircumflex
Encoding: 219 219 41
Width: 609
Flags: W
HStem: -5 29<8.7629 86.706 218.97 287.641> 322 27<286.265 450.173> 618 32<197.007 263.459 363.112 577.285>
VStem: 461 28<246.052 311.503> 587 56<546 652>
LayerCount: 4
Fore
SplineSet
32 -5 m 0
 16 -5 8 -3 8 6 c 0
 8 16 21 20 44 24 c 0
 93 33 113 50 128 99 c 2
 265 549 l 2
 281 597 264 613 220 622 c 0
 200 626 195 633 195 642 c 0
 195 650 210 653 226 653 c 0
 241 653 293 650 335 650 c 2
 494 650 l 2
 585 650 630 662 635 662 c 0
 642 662 643 659 643 652 c 0
 643 647 641 640 638 630 c 0
 631 607 619 567 615 540 c 0
 614 533 611 523 598 523 c 0
 588 523 587 535 587 546 c 0
 587 570 589 593 576 606 c 0
 569 613 558 618 539 618 c 2
 395 618 l 2
 370 618 363 604 356 588 c 0
 352 579 302 423 287 374 c 0
 284 363 285 349 294 349 c 2
 429 352 l 2
 456 353 482 367 500 389 c 0
 509 400 521 410 526 410 c 0
 533 410 539 403 535 394 c 0
 512 343 502 314 489 263 c 0
 486 254 483 246 476 246 c 0
 465 246 461 262 461 269 c 0
 461 308 445 319 424 320 c 0
 401 322 327 322 309 322 c 0
 286 322 269 320 261 291 c 2
 210 113 l 2
 190 44 210 35 263 24 c 0
 283 20 288 16 288 6 c 0
 288 -3 274 -5 258 -5 c 0
 208 -5 190 2 151 2 c 0
 105 2 82 -5 32 -5 c 0
EndSplineSet
EndChar

StartChar: Udieresis
Encoding: 220 220 42
Width: 686
Flags: W
HStem: -14 28<288.817 415.6> 260 30<403.012 490.25 594.233 657.871> 634 29<383.974 526.552>
VStem: 52 88<142.781 368.126> 497 36<92 209> 584 33<464.2 536.318>
LayerCount: 4
Fore
SplineSet
360 -14 m 0
 188 -14 52 73 52 254 c 0
 52 486 239 663 485 663 c 0
 528 663 558 653 582 644 c 0
 602 636 618 629 634 629 c 0
 641 629 649 634 657 638 c 0
 664 642 670 645 677 645 c 0
 689 645 688 634 684 629 c 0
 662 599 626 532 617 487 c 0
 614 474 606 464 599 464 c 0
 586 464 581 475 584 493 c 0
 589 523 588 557 567 585 c 0
 550 608 518 634 466 634 c 0
 281 634 140 431 140 228 c 0
 140 95 259 14 360 14 c 0
 421 14 457 53 469 100 c 2
 497 209 l 2
 503 234 497 245 479 250 c 0
 462 255 444 258 434 260 c 0
 420 263 403 266 403 275 c 0
 403 284 417 290 435 290 c 0
 481 290 506 284 552 284 c 0
 585 284 604 290 637 290 c 0
 649 290 658 284 658 276 c 0
 658 269 647 260 626 256 c 0
 596 251 581 240 569 213 c 0
 551 174 533 107 533 92 c 0
 533 80 536 72 544 60 c 1
 529 22 419 -14 360 -14 c 0
EndSplineSet
EndChar

StartChar: Yacute
Encoding: 221 221 43
Width: 811
Flags: W
HStem: -5 29<-7.19052 65.465 193.926 256.641 413.844 489.446 606.888 662.641> 307 38<257.912 597> 622 31<193.501 249.532 360.255 439.556 610.501 667.031 779.674 854.556>
LayerCount: 4
Fore
SplineSet
15 -5 m 0
 -1 -5 -8 -2 -8 6 c 0
 -8 15 3 18 26 25 c 0
 68 37 87 43 96 72 c 2
 245 551 l 2
 259 597 261 613 217 622 c 0
 197 626 193 633 193 642 c 0
 193 650 207 653 223 653 c 0
 273 653 281 650 318 650 c 0
 356 650 367 653 417 653 c 0
 433 653 441 650 441 642 c 0
 441 633 427 626 404 622 c 0
 355 613 331 590 319 551 c 2
 258 354 l 2
 256 346 262 345 268 345 c 2
 603 345 l 2
 608 345 610 348 613 357 c 2
 674 552 l 2
 685 588 678 613 634 622 c 0
 614 626 610 633 610 642 c 0
 610 650 624 653 640 653 c 0
 690 653 705 650 747 650 c 0
 780 650 782 653 832 653 c 0
 848 653 856 650 856 642 c 0
 856 633 842 626 819 622 c 0
 770 613 761 590 749 552 c 2
 604 81 l 2
 594 49 601 31 638 24 c 0
 658 20 663 15 663 6 c 0
 663 -2 649 -5 633 -5 c 0
 583 -5 576 0 538 0 c 0
 499 0 487 -5 437 -5 c 0
 421 -5 413 -2 413 6 c 0
 413 15 426 20 449 24 c 0
 491 31 521 54 535 97 c 2
 597 292 l 2
 599 299 603 307 597 307 c 2
 252 307 l 2
 248 307 246 304 244 296 c 2
 185 104 l 2
 167 47 190 32 232 24 c 0
 252 20 257 15 257 6 c 0
 257 -2 243 -5 227 -5 c 0
 177 -5 161 0 119 0 c 0
 79 0 65 -5 15 -5 c 0
EndSplineSet
EndChar

StartChar: Thorn
Encoding: 222 222 44
Width: 410
Flags: W
HStem: -5 29<-7.15625 74.4897 211.031 273.641> 622 31<197.501 257.933 376.79 459.556>
LayerCount: 4
Fore
SplineSet
16 -5 m 0
 0 -5 -8 -2 -8 6 c 0
 -8 15 5 20 28 24 c 0
 77 33 110 51 124 98 c 2
 262 550 l 2
 276 597 265 613 221 622 c 0
 201 626 197 633 197 642 c 0
 197 650 211 653 227 653 c 0
 277 653 292 650 335 650 c 0
 375 650 387 653 437 653 c 0
 453 653 461 650 461 642 c 0
 461 633 447 626 424 622 c 0
 375 613 350 597 336 550 c 2
 198 98 l 2
 184 51 205 33 249 24 c 0
 269 20 274 15 274 6 c 0
 274 -2 260 -5 244 -5 c 0
 194 -5 179 0 136 0 c 0
 90 0 66 -5 16 -5 c 0
EndSplineSet
EndChar

StartChar: germandbls
Encoding: 223 223 45
Width: 414
Flags: W
HStem: -200 38<-48.6179 30.7677> 622 31<211.593 272.256 382.47 459.649>
LayerCount: 4
Fore
SplineSet
-43 -200 m 0
 -103 -200 -132 -169 -132 -147 c 0
 -132 -119 -125 -102 -108 -102 c 0
 -97 -102 -81 -120 -60 -135 c 0
 -44 -147 -22 -162 0 -162 c 0
 39 -162 67 -134 106 -5 c 2
 275 551 l 2
 289 597 280 613 236 622 c 0
 216 626 211 633 211 642 c 0
 211 650 226 653 242 653 c 0
 292 653 306 650 349 650 c 0
 383 650 388 653 438 653 c 0
 454 653 461 650 461 642 c 0
 461 633 448 626 425 622 c 0
 376 613 365 597 350 551 c 2
 225 142 l 2
 161 -68 129 -94 91 -134 c 0
 54 -173 12 -200 -43 -200 c 0
EndSplineSet
EndChar

StartChar: agrave
Encoding: 224 224 46
Width: 762
Flags: W
HStem: -5 29<7.84375 86.2952 217.533 276.641 397.032 457.421 608.519 676.641> 323 24<287.625 303.514> 622 31<201.593 262.933 368.534 448.556 562.355 604.84 714.464 814.13>
LayerCount: 4
Fore
SplineSet
31 -5 m 0
 15 -5 7 -2 7 6 c 0
 7 15 20 20 43 24 c 0
 92 33 114 51 129 101 c 2
 267 551 l 2
 281 597 270 613 226 622 c 0
 206 626 201 633 201 642 c 0
 201 650 216 653 232 653 c 0
 282 653 295 651 335 651 c 0
 370 651 376 653 426 653 c 0
 442 653 450 650 450 642 c 0
 450 633 436 626 413 622 c 0
 364 613 357 604 341 551 c 2
 285 360 l 2
 282 350 286 347 296 347 c 0
 316 347 336 362 363 385 c 2
 574 567 l 2
 591 582 605 594 605 605 c 0
 605 609 602 615 586 620 c 0
 571 625 562 631 562 640 c 0
 562 648 582 651 598 651 c 2
 648 651 l 2
 701 651 764 655 800 655 c 0
 812 655 817 651 817 644 c 0
 817 635 803 628 780 624 c 0
 731 615 674 597 619 558 c 0
 533 496 471 439 380 357 c 0
 375 352 375 346 379 339 c 0
 457 198 514 116 561 70 c 0
 592 40 619 33 652 24 c 0
 673 18 677 15 677 6 c 0
 677 -2 663 -5 647 -5 c 0
 592 -5 579 0 487 0 c 0
 464 0 462 -1 420 -1 c 0
 404 -1 397 2 397 10 c 0
 397 19 408 23 427 27 c 0
 466 36 467 40 448 72 c 2
 308 306 l 2
 301 318 280 323 275 323 c 0
 270 323 267 310 265 302 c 2
 211 110 l 2
 195 53 208 33 252 24 c 0
 272 20 277 15 277 6 c 0
 277 -2 263 -5 247 -5 c 0
 197 -5 188 2 150 2 c 0
 104 2 81 -5 31 -5 c 0
EndSplineSet
EndChar

StartChar: aacute
Encoding: 225 225 47
Width: 583
Flags: W
HStem: -5 35<-4.98178 94.625 217.308 444.209> 622 31<214.633 278.483 385.325 491.821>
LayerCount: 4
Fore
SplineSet
16 -5 m 0
 0 -5 -8 -2 -8 6 c 0
 -8 15 5 20 28 24 c 0
 77 33 121 52 135 99 c 2
 276 560 l 2
 291 608 283 613 239 622 c 0
 219 626 214 633 214 642 c 0
 214 650 228 653 244 653 c 0
 294 653 307 648 348 648 c 0
 394 648 420 653 470 653 c 0
 486 653 493 650 493 642 c 0
 493 631 477 627 454 625 c 0
 402 620 365 606 353 567 c 2
 218 113 l 2
 203 62 210 30 260 30 c 2
 340 30 l 2
 413 30 455 46 481 72 c 0
 506 97 521 121 542 152 c 0
 548 160 550 162 558 162 c 0
 564 162 566 158 566 150 c 0
 566 132 533 39 515 11 c 0
 510 3 501 -5 492 -5 c 0
 341 -5 234 1 141 1 c 0
 92 1 66 -5 16 -5 c 0
EndSplineSet
EndChar

StartChar: acircumflex
Encoding: 226 226 48
Width: 1041
Flags: W
HStem: -3 29<-14.3379 67.9566 182.124 233.641 644.52 711.016 868.771 925.749> 625 33<245.03 340.648 988.801 1080.89>
VStem: 406 72<215.75 521.972> 410 76<151.022 504.172>
LayerCount: 4
Fore
SplineSet
419 -14 m 0xd0
 414 -14 410 -4 410 11 c 0xd0
 415 178 413 345 406 512 c 0
 405 541 392 539 377 509 c 0
 315 388 259 267 207 146 c 0
 167 52 175 31 204 26 c 0
 224 23 234 18 234 9 c 0
 234 1 216 -3 200 -3 c 0
 150 -3 138 0 92 0 c 0
 58 0 56 -6 6 -6 c 0
 -10 -6 -18 -4 -18 4 c 0
 -18 13 -6 19 17 23 c 0
 74 33 104 56 150 144 c 2
 349 532 l 2
 375 582 366 614 284 625 c 0
 255 629 245 632 245 642 c 0
 245 653 261 658 287 658 c 0
 321 658 406 653 449 653 c 0
 474 653 480 636 478 585 c 2xe0
 486 163 l 2
 487 133 500 142 516 160 c 0
 639 299 752 434 871 575 c 1
 886 603 891 618 902 636 c 0
 908 646 914 650 923 650 c 2
 961 650 l 2
 976 650 1030 658 1048 658 c 0
 1064 658 1081 652 1081 643 c 0
 1081 632 1072 625 1040 621 c 0
 979 613 969 607 948 536 c 0
 912 413 883 281 859 154 c 0
 842 65 856 33 900 26 c 0
 920 23 926 18 926 9 c 0
 926 3 912 -3 896 -3 c 0
 846 -3 821 8 775 8 c 0
 729 8 717 -3 667 -3 c 0
 651 -3 644 1 644 9 c 0
 644 17 657 23 679 28 c 0
 722 38 740 59 755 104 c 0
 804 256 834 365 868 502 c 0
 870 509 862 511 856 504 c 2
 561 162 l 1
 444 10 l 2
 431 -6 423 -14 419 -14 c 0xd0
EndSplineSet
EndChar

StartChar: atilde
Encoding: 227 227 49
Width: 820
Flags: W
HStem: -5 29<-19.5254 52.4935 170.739 239.367> 620 31<602.433 683.029 788.486 877.437> 625 33<146.414 239.548>
LayerCount: 4
Fore
SplineSet
4 -5 m 0xc0
 -12 -5 -20 -2 -20 6 c 0
 -20 15 -14 19 9 24 c 0
 72 38 91 63 101 95 c 2
 240 526 l 2
 259 586 261 620 185 625 c 0
 162 627 146 633 146 644 c 0
 146 657 164 658 171 658 c 0xa0
 225 658 266 653 300 653 c 0
 311 653 321 646 326 636 c 2
 555 154 l 2
 558 148 568 135 575 135 c 0
 580 135 582 140 588 155 c 0
 605 198 700 513 707 544 c 0
 718 591 693 610 629 620 c 0
 609 623 602 630 602 639 c 0
 602 647 619 651 635 651 c 0
 671 651 703 647 742 647 c 0
 781 647 800 653 857 653 c 0
 873 653 880 650 880 642 c 0
 880 633 866 624 843 622 c 0
 792 618 782 607 760 555 c 0
 750 531 623 158 610 113 c 0
 604 92 607 82 614 66 c 0
 622 47 636 41 647 33 c 0
 658 25 666 19 666 6 c 0
 666 0 662 0 658 0 c 0
 621 0 598 -5 581 -5 c 0
 560 -5 549 0 539 21 c 0
 467 172 390 369 312 515 c 0
 304 530 295 539 288 539 c 0
 281 539 270 527 264 505 c 0
 237 406 184 241 149 96 c 0
 140 58 160 33 211 23 c 0
 231 19 240 15 240 6 c 0
 240 -2 226 -5 210 -5 c 0
 160 -5 145 0 111 0 c 0
 70 0 54 -5 4 -5 c 0xc0
EndSplineSet
EndChar

StartChar: adieresis
Encoding: 228 228 50
Width: 697
Flags: W
HStem: -14 31<225.188 361.837> 636 28<379.737 504.924>
VStem: 60 85<120.993 344.408> 590 85<296.566 527.326>
LayerCount: 4
Fore
SplineSet
285 -14 m 0
 129 -14 60 105 60 243 c 0
 60 435 200 664 450 664 c 0
 606 664 675 545 675 407 c 0
 675 215 535 -14 285 -14 c 0
288 17 m 0
 469 17 590 251 590 445 c 0
 590 539 549 636 447 636 c 0
 274 636 145 399 145 205 c 0
 145 111 186 17 288 17 c 0
EndSplineSet
EndChar

StartChar: aring
Encoding: 229 229 51
Width: 625
Flags: W
HStem: -5 29<0.84375 81.063 215.401 277.641> 254 26<304.021 389.915> 630 22<176.044 238.955 362.604 441.345>
VStem: 534 85<387.882 561.288>
LayerCount: 4
Fore
SplineSet
24 -5 m 0
 8 -5 0 -2 0 6 c 0
 0 15 13 20 36 24 c 0
 85 33 113 51 128 100 c 2
 262 537 l 2
 280 596 267 621 201 627 c 0
 181 629 176 633 176 642 c 0
 176 650 191 653 207 653 c 0
 217 653 267 652 296 652 c 0
 317 652 381 656 407 656 c 0
 533 656 619 587 619 472 c 0
 619 343 487 254 346 254 c 0
 333 254 304 256 304 267 c 0
 304 275 315 279 327 280 c 0
 346 282 364 286 382 290 c 0
 467 313 534 376 534 480 c 0
 534 563 481 630 381 630 c 0
 364 630 360 618 351 588 c 2
 205 111 l 2
 188 58 201 35 253 24 c 0
 273 20 278 15 278 6 c 0
 278 -2 264 -5 248 -5 c 0
 198 -5 182 2 147 2 c 0
 99 2 74 -5 24 -5 c 0
EndSplineSet
EndChar

StartChar: ae
Encoding: 230 230 52
Width: 741
Flags: W
HStem: -270 53<519.019 636.357> -14 21<311.161 352.624> 635 29<400.65 530.545>
VStem: 91 85<126.792 353.59> 626 85<290.28 527.22>
LayerCount: 4
Fore
SplineSet
696 -165 m 0
 711 -145 723 -157 716 -171 c 0
 695 -217 628 -270 556 -270 c 0
 485 -270 422 -232 362 -198 c 0
 305 -165 245 -135 179 -135 c 0
 156 -135 134 -138 118 -144 c 0
 98 -152 83 -161 71 -161 c 0
 60 -161 59 -162 59 -152 c 0
 59 -115 253 -59 325 -26 c 0
 335 -22 344 -17 353 -12 c 1
 345 -13 336 -14 326 -14 c 0
 165 -14 91 105 91 243 c 0
 91 435 226 664 481 664 c 0
 637 664 711 545 711 407 c 0
 711 272 638 122 490 29 c 0
 414 -19 364 -51 265 -86 c 1
 319 -89 377 -114 424 -142 c 0
 487 -180 547 -217 596 -217 c 0
 639 -217 673 -196 696 -165 c 0
386 7 m 2
 387 7 l 1
 533 96 626 247 626 445 c 0
 626 539 579 635 468 635 c 0
 299 635 176 399 176 205 c 0
 176 111 228 7 386 7 c 2
EndSplineSet
EndChar

StartChar: ccedilla
Encoding: 231 231 53
Width: 661
Flags: W
HStem: -5 29<-12.1562 68.063 197.132 252.641 549.334 617.361> 298 20<277.408 323> 622 31<160.117 252.126> 630 22<356.264 436.371>
VStem: 508 83<421.626 578.4>
LayerCount: 4
Fore
SplineSet
11 -5 m 0xd8
 -5 -5 -13 -2 -13 6 c 0
 -13 15 0 20 23 24 c 0
 72 33 100 51 115 100 c 2
 249 538 l 2
 271 608 263 615 188 622 c 0
 168 624 160 629 160 639 c 0
 160 649 178 653 194 653 c 2xe8
 283 652 l 2
 320 652 368 655 394 655 c 0
 496 655 591 612 591 507 c 0
 591 398 504 339 418 312 c 0
 409 309 405 304 409 295 c 0
 423 259 481 134 499 98 c 0
 525 46 545 34 584 27 c 0
 601 24 618 22 618 13 c 0
 618 -2 593 -4 567 -4 c 0
 512 -4 467 1 449 32 c 0
 416 89 371 189 346 249 c 0
 330 288 321 298 285 298 c 0
 256 298 249 294 245 280 c 2
 192 111 l 2
 177 63 184 33 228 24 c 0
 248 20 253 15 253 6 c 0
 253 -2 239 -5 223 -5 c 0
 173 -5 169 2 134 2 c 0
 86 2 61 -5 11 -5 c 0xd8
322 318 m 0
 378 318 508 360 508 508 c 0
 508 576 456 630 386 630 c 0xd8
 357 630 346 618 329 555 c 2
 276 356 l 2
 268 325 278 318 322 318 c 0
EndSplineSet
EndChar

StartChar: egrave
Encoding: 232 232 54
Width: 548
Flags: W
HStem: -15 30<148.392 282.972> 635 29<317.172 431.04>
VStem: 176 69<429.938 563.787> 363 77<92.8641 231.92> 490 66<492 629> 490 28<466.864 566.376>
LayerCount: 4
Fore
SplineSet
213 -15 m 0xf8
 179 -15 144 -9 110 4 c 0
 93 11 81 16 77 16 c 0
 70 16 63 13 56 10 c 0
 48 5 41 0 36 0 c 0
 30 0 17 11 17 19 c 0
 17 31 52 92 63 171 c 0
 65 185 69 191 79 191 c 0
 90 191 91 179 91 152 c 0
 91 75 127 15 210 15 c 0
 295 15 363 66 363 155 c 0
 363 207 344 242 280 302 c 0
 223 354 176 406 176 482 c 0
 176 588 267 664 385 664 c 0
 406 664 431 658 454 652 c 0
 480 644 498 635 508 635 c 0
 517 635 522 637 527 640 c 0
 532 643 537 645 544 645 c 0
 554 645 556 634 556 629 c 0xf8
 556 626 533 601 518 498 c 0xf4
 515 478 506 466 502 466 c 0
 492 466 490 477 490 492 c 0
 490 585 443 635 373 635 c 0
 302 635 245 570 245 506 c 0
 245 453 270 411 338 348 c 0
 406 286 440 240 440 184 c 0
 440 74 360 -15 213 -15 c 0xf8
EndSplineSet
EndChar

StartChar: eacute
Encoding: 233 233 55
Width: 608
Flags: W
HStem: -5 27<64.4959 142.158 287.086 345.807> 614 28<168.805 330.601 418.889 589.863>
VStem: 615 25<497.114 562.589>
LayerCount: 4
Fore
SplineSet
88 -5 m 0
 72 -5 64 -2 64 6 c 0
 64 15 78 18 101 22 c 0
 150 31 183 54 197 102 c 2
 319 530 l 2
 338 598 333 614 316 614 c 2
 233 614 l 2
 168 614 137 582 113 553 c 0
 95 532 81 504 70 504 c 0
 62 504 59 506 59 517 c 0
 59 519 61 531 69 548 c 0
 82 575 101 611 111 646 c 0
 114 655 123 666 128 666 c 0
 133 666 140 660 146 654 c 0
 152 648 160 642 222 642 c 2
 579 642 l 2
 640 642 651 649 658 655 c 0
 665 661 670 666 675 666 c 0
 683 666 685 661 685 655 c 0
 685 646 679 634 675 627 c 0
 668 614 650 565 640 511 c 0
 638 500 634 497 629 497 c 0
 620 497 615 506 615 520 c 0
 615 581 598 614 548 614 c 2
 448 614 l 2
 422 614 413 603 392 527 c 2
 271 102 l 2
 257 54 277 31 321 22 c 0
 341 18 346 15 346 6 c 0
 346 -2 332 -5 316 -5 c 0
 266 -5 251 0 209 0 c 0
 162 0 138 -5 88 -5 c 0
EndSplineSet
EndChar

StartChar: ecircumflex
Encoding: 234 234 56
Width: 778
Flags: W
HStem: -14 40<241.715 407.423> 620 33<158.558 208.343 316.853 380.113 589.851 651.354 747.997 819.206>
LayerCount: 4
Fore
SplineSet
296 -14 m 0
 167 -14 61 65 118 251 c 2
 208 547 l 2
 223 595 207 614 188 620 c 0
 168 626 157 633 157 642 c 0
 157 650 179 653 195 653 c 0
 223 653 249 650 284 650 c 0
 313 650 339 652 359 652 c 0
 375 652 383 649 382 641 c 0
 381 632 368 628 345 621 c 0
 324 615 295 590 279 535 c 2
 191 238 l 2
 147 90 225 26 323 26 c 0
 469 26 540 143 577 269 c 0
 599 344 628 434 641 474 c 0
 680 593 663 609 615 622 c 0
 603 625 589 631 589 640 c 0
 589 648 604 651 620 651 c 2
 722 650 l 2
 752 650 777 653 798 653 c 0
 814 653 823 650 822 642 c 0
 821 633 807 627 784 622 c 0
 751 614 737 608 699 506 c 0
 671 432 643 346 610 254 c 0
 554 99 475 -14 296 -14 c 0
EndSplineSet
EndChar

StartChar: edieresis
Encoding: 235 235 57
Width: 643
Flags: W
HStem: 623 33<79.2707 144.167 258.607 335.951 486.041 529.719 647.387 720.183>
LayerCount: 4
Fore
SplineSet
103 -14 m 0
 85 -14 69 2 80 63 c 0
 119 287 145 439 154 550 c 0
 157 593 156 615 103 623 c 0
 83 626 79 634 79 643 c 0
 79 652 93 656 109 656 c 0
 135 656 173 650 215 650 c 0
 251 650 290 651 312 651 c 0
 328 651 336 648 336 640 c 0
 336 631 319 623 301 621 c 0
 262 616 241 603 233 553 c 2
 166 143 l 2
 162 120 164 112 170 112 c 0
 175 112 182 125 199 146 c 2
 479 492 l 2
 551 580 538 617 510 621 c 0
 489 624 486 632 486 641 c 0
 486 649 500 652 516 652 c 0
 533 652 573 650 607 650 c 0
 648 650 667 656 698 656 c 0
 714 656 721 651 721 643 c 0
 721 634 707 627 684 620 c 0
 649 610 606 591 567 543 c 2
 196 95 l 2
 154 45 118 -14 103 -14 c 0
EndSplineSet
EndChar

StartChar: igrave
Encoding: 236 236 58
Width: 1024
Flags: W
HStem: 623 33<71.5117 156.042 260.489 341.968 437.732 518.724 636.437 726.183 838.044 892.704 1018.68 1096.18>
VStem: 535 192<560.5 647>
LayerCount: 4
Fore
SplineSet
111 -14 m 0
 86 -14 83 37 91 78 c 0
 120 226 153 422 165 523 c 0
 175 606 168 612 102 623 c 0
 82 626 71 632 71 643 c 0
 71 654 88 656 108 656 c 0
 134 656 170 650 221 650 c 0
 257 650 293 651 315 651 c 0
 331 651 342 647 342 639 c 0
 342 630 320 622 302 620 c 0
 254 615 246 602 236 539 c 0
 217 415 197 293 177 167 c 0
 170 121 179 122 216 165 c 2
 487 485 l 2
 524 528 535 551 535 570 c 0
 535 602 517 616 467 623 c 0
 447 626 437 633 437 644 c 0
 437 653 457 656 473 656 c 0
 503 656 565 650 604 650 c 0
 642 650 672 656 704 656 c 0
 720 656 727 651 727 643 c 0
 727 634 713 627 690 623 c 0
 627 613 614 597 607 551 c 2
 551 167 l 2
 544 122 554 122 589 166 c 2
 848 490 l 2
 919 579 910 612 863 621 c 0
 842 625 838 629 838 639 c 0
 838 648 853 652 869 652 c 0
 886 652 949 650 983 650 c 0
 1024 650 1043 656 1074 656 c 0
 1090 656 1097 651 1097 643 c 0
 1097 634 1083 624 1060 620 c 0
 1018 612 983 592 943 543 c 2
 573 94 l 2
 538 51 489 -14 475 -14 c 0
 437 -14 459 64 467 112 c 2
 531 492 l 1
 201 97 l 2
 165 54 125 -14 111 -14 c 0
EndSplineSet
EndChar

StartChar: iacute
Encoding: 237 237 59
Width: 722
Flags: W
HStem: -5 33<-27.3006 66.1781 182.977 229.959 328.069 397.017 528.876 609.02> 622 33<165.227 243.251 355.821 433.625 527.161 575.346 685.556 762.789>
LayerCount: 4
Fore
SplineSet
-5 -5 m 0
 -21 -5 -29 -2 -29 6 c 0
 -29 15 -15 25 9 28 c 0
 56 34 99 53 166 124 c 2
 318 284 l 2
 337 304 350 319 340 351 c 2
 288 529 l 2
 265 609 234 616 196 622 c 0
 177 625 164 634 164 643 c 0
 164 651 186 655 202 655 c 0
 233 655 282 650 328 650 c 0
 365 650 393 652 410 652 c 0
 426 652 434 649 434 641 c 0
 434 632 421 623 397 621 c 0
 346 617 342 601 362 528 c 2
 397 397 l 2
 402 378 410 378 424 394 c 2
 531 520 l 2
 594 595 584 612 551 620 c 0
 539 623 527 631 527 640 c 0
 527 648 541 651 557 651 c 0
 579 651 606 650 634 650 c 0
 670 650 717 656 742 656 c 0
 758 656 766 653 766 645 c 0
 766 636 752 631 729 625 c 0
 691 615 621 568 570 513 c 2
 438 370 l 2
 420 350 417 343 420 331 c 2
 480 111 l 2
 495 55 511 45 585 26 c 0
 605 21 610 15 610 6 c 0
 610 -2 596 -5 580 -5 c 0
 554 -5 483 1 439 1 c 0
 401 1 374 0 352 0 c 0
 336 0 328 3 328 11 c 0
 328 20 352 27 366 31 c 0
 413 43 422 67 410 111 c 2
 366 270 l 2
 362 284 355 285 347 275 c 2
 201 100 l 2
 169 62 174 39 206 30 c 0
 226 24 230 21 230 12 c 0
 230 4 216 -1 200 -1 c 0
 183 -1 147 1 114 1 c 0
 72 1 26 -5 -5 -5 c 0
EndSplineSet
EndChar

StartChar: icircumflex
Encoding: 238 238 60
Width: 633
Flags: W
HStem: -5 29<78.8438 155.653 301.55 359.641> 620 33<119.308 179.809 285.885 357.642 479.633 530.984 637.286 707.67>
LayerCount: 4
Fore
SplineSet
102 -5 m 0
 86 -5 78 -2 78 6 c 0
 78 15 91 20 114 24 c 0
 163 33 198 60 213 108 c 2
 264 268 l 2
 273 295 271 314 263 342 c 2
 207 548 l 2
 195 593 177 617 146 620 c 0
 127 622 118 633 118 642 c 0
 118 650 137 653 153 653 c 0
 181 653 217 650 261 650 c 0
 290 650 316 652 336 652 c 0
 352 652 359 649 359 641 c 0
 359 632 346 625 322 621 c 0
 284 615 277 607 289 560 c 2
 331 401 l 2
 338 375 343 363 350 363 c 0
 357 363 369 376 386 395 c 0
 430 444 457 481 502 537 c 0
 546 592 541 610 503 620 c 0
 490 623 479 631 479 640 c 0
 479 648 493 651 509 651 c 0
 537 651 557 650 587 650 c 0
 625 650 664 653 685 653 c 0
 701 653 710 650 710 642 c 0
 710 633 695 629 676 623 c 0
 637 611 578 565 549 534 c 0
 499 482 420 392 383 352 c 0
 353 320 344 294 332 256 c 2
 287 108 l 2
 273 63 291 33 335 24 c 0
 355 20 360 15 360 6 c 0
 360 -2 346 -5 330 -5 c 0
 280 -5 264 0 222 0 c 0
 175 0 152 -5 102 -5 c 0
EndSplineSet
EndChar

StartChar: idieresis
Encoding: 239 239 61
Width: 635
Flags: W
HStem: -5 37<134.562 450.185> 617 29<353.776 555.002>
LayerCount: 4
Fore
SplineSet
515 -5 m 0
 418 -5 263 -1 180 -1 c 0
 147 -1 50 -3 -3 -3 c 0
 -9 -3 -5 11 -5 11 c 1
 -2 21 46 73 77 104 c 0
 260 290 370 416 555 601 c 0
 560 606 568 616 546 617 c 0
 502 619 373 614 307 608 c 0
 277 605 221 578 185 518 c 0
 176 503 167 493 158 493 c 0
 150 493 146 502 146 512 c 0
 146 516 149 526 154 537 c 0
 166 564 187 605 196 627 c 0
 203 644 211 653 226 653 c 0
 242 653 277 648 310 647 c 0
 358 646 426 646 468 646 c 0
 545 646 602 647 671 649 c 0
 679 649 688 631 684 627 c 2
 607 550 l 2
 421 364 314 263 143 67 c 0
 129 51 131 40 149 38 c 0
 175 35 207 32 248 32 c 0
 290 32 378 35 422 41 c 0
 490 50 550 82 592 150 c 0
 597 158 603 169 613 169 c 0
 623 169 622 159 622 150 c 0
 622 129 561 36 546 12 c 0
 541 4 533 -5 515 -5 c 0
EndSplineSet
EndChar

StartChar: eth
Encoding: 240 240 62
Width: 512
Flags: W
HStem: -14 63<69.8247 138.767 301.169 370.612> 353 56<297.773 366.719>
VStem: 17 78<19 107.834> 370 88<311 410>
LayerCount: 4
Fore
SplineSet
68 -14 m 0
 43 -14 17 8 17 30 c 0
 17 101 94 216 207 315 c 0
 279 378 324 409 345 409 c 0
 355 409 366 403 373 395 c 0
 391 371 384 380 385 380 c 0
 387 380 389 382 391 386 c 0
 410 418 412 421 408 416 c 1
 412 423 416 426 420 426 c 0
 438 426 458 415 458 405 c 0
 458 401 456 394 451 380 c 2
 339 83 l 2
 331 62 336 49 352 49 c 0
 376 49 415 75 440 109 c 0
 442 112 446 114 449 114 c 0
 454 114 456 111 456 103 c 0
 456 94 433 60 413 40 c 0
 375 5 336 -14 304 -14 c 0
 283 -14 261 6 261 25 c 0
 261 31 263 40 267 48 c 1
 255 24 294 111 314 153 c 0
 321 167 320 177 312 168 c 0
 190 32 128 -14 68 -14 c 0
124 49 m 0
 153 49 215 100 288 187 c 0
 338 246 370 299 370 323 c 0
 370 328 364 336 357 342 c 0
 349 348 339 353 332 353 c 0
 308 353 259 325 225 292 c 0
 158 227 95 129 95 83 c 0
 95 63 107 49 124 49 c 0
EndSplineSet
EndChar

StartChar: ntilde
Encoding: 241 241 63
Width: 441
Flags: W
HStem: -8 32<102.201 167.915> 376 38<283.609 342.902>
VStem: 23 59<37.917 151.523> 348 66<250.708 374.712>
LayerCount: 4
Fore
SplineSet
108 -8 m 0
 56 -8 23 24 23 74 c 0
 23 107 31 151 46 195 c 2
 172 576 l 2
 179 595 182 613 182 630 c 0
 182 637 175 642 157 647 c 0
 138 652 126 658 126 662 c 0
 126 668 130 672 142 676 c 0
 172 687 245 707 257 707 c 0
 268 707 273 704 273 697 c 0
 273 685 271 678 266 664 c 0
 240 596 154 345 126 257 c 0
 121 243 129 240 138 252 c 0
 217 356 290 414 340 414 c 0
 383 414 414 383 414 340 c 0
 414 187 243 -8 108 -8 c 0
134 24 m 0
 160 24 214 70 261 132 c 0
 309 196 348 288 348 336 c 0
 348 359 335 376 319 376 c 0
 277 376 225 330 155 234 c 0
 111 172 82 116 82 91 c 0
 82 55 106 24 134 24 c 0
EndSplineSet
EndChar

StartChar: ograve
Encoding: 242 242 64
Width: 365
Flags: W
HStem: -15 56<108.614 189.401> 387 27<221.985 309>
VStem: 30 72<47.4375 198.008>
LayerCount: 4
Fore
SplineSet
114 -15 m 0
 78 -15 29 28 30 90 c 0
 32 210 121 414 291 414 c 0
 327 414 346 399 346 382 c 0
 346 360 330 333 316 333 c 0
 305 333 299 344 292 357 c 0
 284 372 273 387 251 387 c 0
 187 387 102 208 102 98 c 0
 102 54 121 41 150 41 c 0
 193 41 213 60 239 84 c 0
 248 93 251 97 259 97 c 0
 265 97 267 91 267 84 c 0
 267 63 195 -15 114 -15 c 0
EndSplineSet
EndChar

StartChar: oacute
Encoding: 243 243 65
Width: 503
Flags: W
HStem: -14 47<62.6266 158.393> 388 32<265.168 334.427>
VStem: 15 68<34.7048 153.79> 291 68<12.3987 140.285> 449 81<619.242 695.192>
LayerCount: 4
Fore
SplineSet
526 668 m 2
 364 107 l 2
 361 96 359 86 359 76 c 0
 359 61 363 54 373 54 c 0
 399 54 444 86 471 123 c 0
 474 127 476 128 479 128 c 0
 484 128 486 125 485 120 c 0
 485 82 378 -14 335 -14 c 0
 313 -14 291 9 291 31 c 0
 291 36 292 41 295 57 c 0
 300 79 311 128 313 139 c 0
 314 148 311 153 307 147 c 0
 215 31 152 -14 80 -14 c 0
 41 -14 15 15 15 58 c 0
 15 133 68 245 141 327 c 0
 193 386 249 420 292 420 c 0
 309 420 312 419 349 395 c 0
 367 384 373 381 374 379 c 2
 378 386 l 1
 445 611 l 2
 449 627 449 627 449 631 c 0
 449 645 442 653 421 661 c 0
 391 671 391 671 391 675 c 0
 391 684 401 689 425 693 c 0
 466 699 511 705 518 705 c 0
 526 705 530 700 530 691 c 0
 530 684 529 677 526 668 c 2
117 33 m 0
 206 33 356 217 356 326 c 0
 356 365 338 388 306 388 c 0
 230 388 83 179 83 71 c 0
 83 42 91 33 117 33 c 0
EndSplineSet
EndChar

StartChar: ocircumflex
Encoding: 244 244 66
Width: 398
Flags: W
HStem: -15 54<114.321 204.509> 389 25<245.386 302.578>
VStem: 31 71<49.7638 197.764> 308 58<304.961 388.233>
LayerCount: 4
Fore
SplineSet
123 -15 m 0
 80 -15 31 42 31 89 c 0
 31 223 150 414 292 414 c 0
 339 414 366 393 366 359 c 0
 366 275 249 240 138 219 c 0
 130 217 126 217 123 209 c 0
 113 180 102 143 102 112 c 0
 102 65 120 39 155 39 c 0
 203 39 235 69 257 93 c 0
 264 101 270 104 275 104 c 0
 281 104 285 100 285 94 c 0
 285 92 285 89 283 86 c 0
 243 21 188 -15 123 -15 c 0
145 242 m 0
 175 242 308 277 308 357 c 0
 308 374 298 389 281 389 c 0
 226 389 138 278 138 248 c 0
 138 242 140 242 145 242 c 0
EndSplineSet
EndChar

StartChar: otilde
Encoding: 245 245 67
Width: 404
Flags: W
HStem: -290 40<-71.4156 -2.42511> 362 38<114.643 200 278.308 376> 665 41<384.765 469.489>
VStem: 482 68<591.03 652.538>
LayerCount: 4
Fore
SplineSet
-64 -290 m 0
 -114 -290 -147 -273 -147 -240 c 0
 -147 -220 -121 -198 -108 -198 c 0
 -98 -198 -89 -212 -76 -226 c 0
 -64 -239 -48 -250 -24 -250 c 0
 14 -250 33 -225 66 -115 c 2
 200 339 l 2
 204 352 200 357 186 357 c 2
 124 356 l 2
 115 356 111 361 111 368 c 0
 111 379 120 393 130 394 c 2
 200 398 l 2
 209 399 216 406 219 418 c 2
 227 450 l 2
 275 640 386 706 456 706 c 0
 515 706 550 677 550 636 c 0
 550 602 527 585 509 585 c 0
 499 585 492 602 482 624 c 0
 470 651 452 665 423 665 c 0
 366 665 344 634 304 503 c 0
 296 477 291 455 283 429 c 0
 280 419 278 416 278 409 c 0
 278 402 282 400 288 400 c 0
 328 400 364 403 398 403 c 0
 402 403 405 400 405 392 c 0
 405 383 394 363 376 363 c 2
 285 362 l 2
 271 362 263 358 260 346 c 0
 213 195 169 41 130 -110 c 0
 102 -217 -8 -290 -64 -290 c 0
EndSplineSet
EndChar

StartChar: odieresis
Encoding: 246 246 68
Width: 576
Flags: W
HStem: -290 30<154.014 304.965> 77 24<238.618 285.032> 346 58<449.724 543.861> 358 33<438.793 521.718> 386 28<321.54 377.231>
VStem: 8 69<-218 -145.263> 159 57<107.243 242.532> 361 73<-212.345 -144.614> 389 52<249.247 357.886>
LayerCount: 4
Fore
SplineSet
217 -290 m 0xd7
 100 -290 8 -248 8 -180 c 0
 8 -135 116 -95 207 -65 c 0
 212 -63 213 -60 209 -56 c 0
 179 -31 161 -15 161 6 c 0
 161 25 183 46 211 67 c 0
 218 73 219 77 219 79 c 0
 219 81 216 83 211 85 c 0
 170 105 159 133 159 178 c 0
 159 268 244 414 351 414 c 0xcf
 379 414 389 406 397 402 c 0
 406 397 415 391 425 391 c 0xd7
 447 391 496 404 523 404 c 0
 531 404 545 397 545 381 c 0
 545 356 535 346 527 346 c 0xe7
 508 346 464 358 449 358 c 0
 442 358 434 355 437 344 c 0
 440 333 441 321 441 308 c 0xd680
 441 205 349 77 260 77 c 0
 250 77 243 71 238 65 c 0
 230 55 227 46 227 36 c 0
 227 12 237 0 271 -23 c 0
 305 -46 366 -84 395 -105 c 0
 424 -126 434 -143 434 -163 c 0
 434 -233 309 -290 217 -290 c 0xd7
257 101 m 0
 317 101 389 274 389 339 c 0xce80
 389 359 374 386 354 386 c 0
 292 386 220 235 216 149 c 0
 216 123 235 101 257 101 c 0
247 -260 m 0
 327 -260 361 -227 361 -191 c 0xc7
 361 -171 350 -148 320 -130 c 0
 309 -122 276 -100 262 -93 c 0
 251 -87 240 -83 234 -83 c 0
 226 -83 217 -85 209 -87 c 0
 129 -112 77 -141 77 -182 c 0
 77 -226 165 -260 247 -260 c 0
EndSplineSet
EndChar

StartChar: divide
Encoding: 247 247 69
Width: 476
Flags: W
HStem: -14 41<197.084 272.208> 374 47<327.266 408>
VStem: 388 66<231.211 370.688>
LayerCount: 4
Fore
SplineSet
36 -18 m 0
 26 -18 19 -4 19 8 c 0
 19 28 24 45 32 75 c 2
 173 558 l 2
 180 581 188 612 188 626 c 0
 188 639 167 645 151 650 c 0
 141 653 133 656 133 661 c 0
 133 666 135 670 150 676 c 0
 170 684 238 707 252 707 c 0
 258 707 269 707 269 697 c 0
 269 686 267 679 264 670 c 2
 128 200 l 2
 125 190 130 191 134 197 c 0
 222 327 326 421 386 421 c 0
 430 421 454 386 454 348 c 0
 454 245 391 115 322 42 c 0
 307 26 250 -14 213 -14 c 0
 198 -14 174 8 174 23 c 0
 174 33 188 52 200 52 c 0
 212 52 220 46 227 40 c 0
 235 33 242 27 253 27 c 0
 311 27 388 214 388 326 c 0
 388 357 375 374 350 374 c 0
 278 374 145 168 98 78 c 0
 65 14 52 -18 36 -18 c 0
EndSplineSet
EndChar

StartChar: oslash
Encoding: 248 248 70
Width: 347
Flags: W
HStem: -14 66<69.9297 149.411> 513 100<268.771 332.298>
VStem: 49 81<4.91327 69.5589> 255 90<525.614 599.468>
LayerCount: 4
Fore
SplineSet
290 513 m 0
 270 513 255 532 255 552 c 0
 255 584 279 613 311 613 c 0
 332 613 345 591 345 570 c 0
 345 540 320 513 290 513 c 0
88 -14 m 0
 65 -14 49 4 49 20 c 0
 49 25 49 30 52 36 c 0
 107 146 142 248 171 321 c 0
 173 327 173 333 166 333 c 0
 155 333 112 313 88 295 c 0
 81 290 73 293 73 300 c 0
 73 317 139 375 223 413 c 0
 241 421 263 392 259 382 c 2
 137 93 l 2
 132 82 130 72 130 64 c 0
 130 54 139 52 146 52 c 0
 173 52 218 99 256 137 c 0
 257 138 258 139 260 139 c 0
 263 139 266 137 266 134 c 0
 266 92 149 -14 88 -14 c 0
EndSplineSet
EndChar

StartChar: ugrave
Encoding: 249 249 71
Width: 356
Flags: W
HStem: -290 41<-52.5346 15.2304> 513 100<302.771 366.298>
VStem: 289 90<525.614 599.468>
LayerCount: 4
Fore
SplineSet
324 513 m 0
 304 513 289 532 289 552 c 0
 289 584 313 613 345 613 c 0
 366 613 379 591 379 570 c 0
 379 540 354 513 324 513 c 0
-46 -290 m 0
 -93 -290 -124 -266 -124 -247 c 0
 -124 -230 -104 -207 -85 -207 c 0
 -73 -207 -64 -216 -54 -227 c 0
 -44 -238 -30 -249 -7 -249 c 0
 29 -249 50 -209 69 -151 c 2
 212 288 l 2
 219 310 216 321 204 321 c 0
 193 321 169 310 139 295 c 0
 135 293 125 295 125 301 c 0
 125 306 127 309 134 316 c 0
 193 369 225 383 284 414 c 0
 300 419 320 399 315 386 c 0
 301 350 289 314 276 275 c 2
 143 -128 l 2
 118 -203 14 -290 -46 -290 c 0
EndSplineSet
EndChar

StartChar: uacute
Encoding: 250 250 72
Width: 421
Flags: W
HStem: -21 60<279.19 329.898> 178 25<140 182> 372 43<305.122 392.5>
VStem: 14 52<-14.429 65.1875> 368 70<317.284 385.16>
LayerCount: 4
Fore
SplineSet
287 -21 m 0
 255 -21 238 -4 224 28 c 2
 186 134 l 2
 178 156 162 178 140 178 c 0
 131 178 119 150 113 136 c 0
 105 117 73 35 66 16 c 0
 58 -6 56 -15 40 -15 c 0
 30 -15 14 -5 14 7 c 0
 14 13 16 29 22 49 c 2
 189 567 l 2
 197 592 199 608 199 624 c 0
 199 632 191 639 177 644 c 0
 164 649 151 654 151 658 c 0
 151 663 153 667 157 669 c 0
 187 684 254 706 270 706 c 0
 276 706 286 706 286 696 c 0
 286 685 286 682 283 673 c 2
 148 262 l 2
 143 247 152 251 157 258 c 0
 225 353 312 415 379 415 c 0
 406 415 438 400 438 370 c 0
 438 300 302 207 234 188 c 0
 227 186 226 184 229 177 c 2
 275 68 l 2
 281 54 293 39 308 39 c 0
 333 39 360 68 378 97 c 0
 385 109 389 110 394 110 c 0
 396 110 400 103 400 98 c 0
 400 56 318 -21 287 -21 c 0
182 203 m 0
 265 203 368 296 368 340 c 0
 368 360 356 372 332 372 c 0
 276 372 170 248 170 220 c 0
 170 212 174 203 182 203 c 0
EndSplineSet
EndChar

StartChar: ucircumflex
Encoding: 251 251 73
Width: 333
Flags: W
HStem: -14 59<77.5 147.804>
VStem: 41 80<12.7088 75.4984> 243 91<628.404 697.792>
LayerCount: 4
Fore
SplineSet
86 -14 m 0
 69 -14 41 8 41 30 c 0
 41 33 42 39 43 42 c 2
 233 583 l 2
 240 602 243 619 243 636 c 0
 243 648 228 660 210 664 c 0
 196 667 188 672 188 677 c 0
 188 682 190 687 194 688 c 0
 232 697 306 709 322 709 c 0
 328 709 334 704 334 694 c 0
 334 686 331 675 328 666 c 2
 126 90 l 2
 122 79 121 69 121 61 c 0
 121 51 124 45 131 45 c 0
 159 45 213 102 238 137 c 0
 246 148 258 160 264 160 c 0
 269 160 269 155 269 147 c 0
 269 80 139 -14 86 -14 c 0
EndSplineSet
EndChar

StartChar: udieresis
Encoding: 252 252 74
Width: 721
Flags: W
HStem: -14 64<532.81 590.273> 356 58<70.8475 157.696> 372 42<552.54 611.814>
LayerCount: 4
Fore
SplineSet
30 -17 m 0xa0
 20 -17 12 1 12 13 c 0
 12 19 21 46 35 84 c 2
 127 325 l 2
 133 342 126 356 110 356 c 0
 90 356 70 352 38 310 c 0
 33 304 25 304 23 314 c 0
 22 326 31 353 40 364 c 0
 63 392 94 413 139 414 c 0xc0
 166 414 201 402 185 360 c 2
 128 212 l 2
 124 202 133 201 137 208 c 0
 222 339 299 414 364 414 c 0
 402 414 436 381 414 317 c 2
 378 212 l 2
 374 202 383 201 387 208 c 0
 471 345 553 414 618 414 c 0
 655 414 689 378 662 308 c 2
 576 86 l 2
 565 60 569 50 581 50 c 0
 613 50 682 121 692 131 c 0
 693 132 694 132 695 132 c 0
 699 132 703 128 703 123 c 0
 703 112 699 102 685 87 c 0
 641 37 586 -14 523 -14 c 0
 507 -14 485 9 493 32 c 2
 609 331 l 2
 619 357 604 371 589 372 c 0
 567 373 530 351 486 297 c 0
 455 259 383 151 343 78 c 0
 308 14 280 -17 264 -17 c 0
 254 -17 246 -2 246 10 c 0
 246 16 255 46 269 84 c 2
 362 334 l 2
 374 365 351 374 342 375 c 0
 320 377 283 353 239 299 c 0
 208 261 136 151 96 78 c 0
 61 14 46 -17 30 -17 c 0xa0
EndSplineSet
EndChar

StartChar: yacute
Encoding: 253 253 75
Width: 486
Flags: W
HStem: -14 64<261.62 346.77> 372 42<314.76 371.499>
VStem: 45 15<305.93 319.102>
LayerCount: 4
Fore
SplineSet
41 -16 m 0
 25 -16 9 11 16 28 c 2
 132 312 l 2
 144 341 147 356 134 356 c 0
 114 356 92 352 60 310 c 0
 55 304 47 304 45 314 c 0
 44 326 58 352 66 364 c 0
 86 394 121 413 166 414 c 0
 187 414 208 395 199 371 c 2
 133 201 l 2
 129 191 138 190 142 197 c 0
 224 337 315 414 376 414 c 0
 418 414 450 367 423 304 c 2
 331 86 l 2
 320 60 324 50 336 50 c 0
 368 50 440 108 450 118 c 0
 451 119 452 119 453 119 c 0
 457 119 461 115 461 110 c 0
 461 105 459 99 457 96 c 0
 405 33 340 -14 277 -14 c 0
 259 -14 236 8 246 30 c 0
 285 119 325 208 360 297 c 0
 381 352 371 371 352 372 c 0
 330 373 295 348 251 294 c 0
 220 256 137 128 72 15 c 0
 60 -7 52 -16 41 -16 c 0
EndSplineSet
EndChar

StartChar: thorn
Encoding: 254 254 76
Width: 404
Flags: W
HStem: -14 30<102.297 172.621> 384 30<224.128 297.114>
VStem: 27 64<28.3919 194.428> 308 64<212.641 372.016>
LayerCount: 4
Fore
SplineSet
118 -14 m 0
 69 -14 27 41 27 99 c 0
 27 224 133 414 267 414 c 0
 334 414 372 362 372 296 c 0
 372 176 272 -14 118 -14 c 0
134 16 m 0
 214 16 308 211 308 324 c 0
 308 359 299 384 265 384 c 0
 188 384 91 210 91 78 c 0
 91 34 107 16 134 16 c 0
EndSplineSet
EndChar

StartChar: ydieresis
Encoding: 255 255 77
Width: 508
Flags: W
HStem: -286 29<-72.9731 -7.40878> -279 26<85 151.699> -14 34<198.697 271.416> 378 37<300.236 378.923>
VStem: 403 74<192.684 358.203>
LayerCount: 4
Fore
SplineSet
-59 -286 m 0xb8
 -66 -286 -75 -284 -75 -277 c 0
 -75 -267 -57 -259 -45 -257 c 0xb8
 -17 -252 -2 -246 7 -220 c 2
 200 319 l 2
 210 347 209 353 189 350 c 0
 157 345 137 340 109 327 c 0
 98 322 88 326 88 334 c 0
 88 345 95 351 103 355 c 0
 124 366 166 387 219 401 c 0
 228 403 234 407 237 417 c 0
 256 480 267 506 297 506 c 0
 308 506 318 499 315 487 c 2
 298 429 l 2
 294 416 298 410 303 411 c 0
 320 414 333 415 347 415 c 0
 447 415 477 360 477 290 c 0
 477 163 347 -14 215 -14 c 0
 203 -14 187 -4 174 4 c 0
 162 12 156 11 147 -14 c 2
 81 -209 l 2
 71 -237 88 -250 122 -253 c 0
 135 -254 152 -258 152 -268 c 0
 152 -276 138 -279 123 -279 c 0
 92 -279 58 -277 40 -279 c 0x78
 7 -283 -23 -286 -59 -286 c 0xb8
234 20 m 0
 296 20 403 175 403 281 c 0
 403 356 375 377 327 378 c 0
 315 378 303 378 289 376 c 1
 197 106 l 2
 189 82 189 61 194 46 c 0
 200 29 213 20 234 20 c 0
EndSplineSet
EndChar

StartChar: Amacron
Encoding: 256 256 78
Width: 500
Flags: W
HStem: -286 29<116.027 181.575> -272 26<284.637 338.699> -14 36<73.5 168.146> 387 33<295.336 362.714>
VStem: 25 70<22.7031 140.388>
LayerCount: 4
Fore
SplineSet
134 -286 m 0xb8
 127 -287 114 -285 114 -277 c 0
 114 -267 132 -259 144 -257 c 0xb8
 172 -253 198 -236 207 -211 c 0
 247 -104 288 3 328 110 c 0
 334 125 328 138 312 120 c 0
 238 37 167 -14 95 -14 c 0
 52 -14 25 12 25 47 c 0
 25 131 92 246 172 331 c 0
 224 386 293 420 342 420 c 0
 373 420 389 407 399 394 c 0
 409 383 413 372 420 372 c 0
 428 372 434 378 439 388 c 2
 448 407 l 2
 455 423 465 428 475 428 c 0
 483 428 487 415 478 390 c 2
 283 -199 l 2
 274 -227 283 -243 309 -246 c 0
 322 -247 339 -251 339 -261 c 0
 339 -269 325 -272 310 -272 c 0x78
 244 -272 162 -281 134 -286 c 0xb8
120 22 m 0
 173 22 275 115 317 188 c 0
 346 238 372 296 372 337 c 0
 372 363 359 387 333 387 c 0
 271 387 94 176 95 61 c 0
 95 34 101 22 120 22 c 0
EndSplineSet
EndChar

StartChar: amacron
Encoding: 257 257 79
Width: 405
Flags: W
HStem: 359 55<116.072 199.277 326.029 387.933>
VStem: 362 66<304.11 354.991>
LayerCount: 4
Fore
SplineSet
70 -17 m 0
 60 -17 45 -5 45 7 c 0
 45 23 54 46 68 84 c 2
 160 324 l 2
 166 341 167 359 154 359 c 0
 135 359 115 353 106 348 c 0
 98 343 89 346 89 356 c 0
 89 366 100 381 117 393 c 0
 133 405 156 414 180 414 c 0
 235 414 224 369 200 309 c 2
 155 196 l 2
 150 186 163 183 167 190 c 0
 247 327 334 419 381 419 c 0
 415 419 428 396 428 369 c 0
 428 332 406 288 378 288 c 0
 367 288 362 302 362 323 c 0
 362 343 357 355 343 355 c 0
 330 355 308 340 275 297 c 0
 245 258 173 148 132 75 c 0
 96 11 86 -17 70 -17 c 0
EndSplineSet
EndChar

StartChar: Abreve
Encoding: 258 258 80
Width: 348
Flags: W
HStem: -14 48<55 161.143> 368 46<214.801 275.411>
VStem: 136 57<250.765 338.857> 195 61<63.8505 178.411>
LayerCount: 4
Fore
SplineSet
70 -14 m 0
 40 -14 16 4 16 30 c 0
 16 61 35 76 44 76 c 0
 53 76 63 67 75 57 c 0
 89 46 105 34 135 34 c 0
 171 34 194 65 195 95 c 0
 195 124 184 160 166 193 c 0
 148 225 136 255 136 275 c 0
 136 353 235 414 269 414 c 0
 295 414 325 387 325 373 c 0
 325 361 303 336 291 336 c 0
 284 336 278 344 270 352 c 0
 262 360 251 368 233 368 c 0
 211 368 193 348 193 319 c 0
 193 302 212 254 226 227 c 0
 240 200 256 153 256 123 c 0
 256 44 150 -14 70 -14 c 0
EndSplineSet
EndChar

StartChar: abreve
Encoding: 259 259 81
Width: 325
Flags: W
HStem: -14 73<60.8284 151.5> 360 38<80.8539 146.133 231.865 342.906>
VStem: 37 306
LayerCount: 4
Fore
SplineSet
78 -14 m 0
 61 -14 37 9 37 23 c 0
 37 45 44 59 51 79 c 2
 146 346 l 2
 149 355 142 358 136 358 c 2
 96 360 l 2
 79 361 78 369 78 374 c 0
 78 377 94 398 112 398 c 2
 148 398 l 2
 162 398 165 401 172 416 c 2
 196 465 l 2
 204 481 240 510 250 510 c 0
 261 510 263 491 258 478 c 2
 232 411 l 2
 229 402 234 400 245 400 c 0
 272 400 302 395 320 392 c 0
 341 388 343 384 343 377 c 0
 343 374 339 366 324 365 c 0
 295 363 269 361 240 360 c 0
 219 359 212 353 209 345 c 2
 120 99 l 2
 111 74 115 59 138 59 c 0
 165 59 203 95 224 115 c 0
 238 129 251 126 251 118 c 0
 251 109 244 97 233 85 c 0
 181 28 104 -14 78 -14 c 0
EndSplineSet
EndChar

StartChar: Aogonek
Encoding: 260 260 82
Width: 500
Flags: W
HStem: -14 61<282.057 368.12>
LayerCount: 4
Fore
SplineSet
86 -14 m 0
 63 -14 36 22 43 39 c 2
 148 292 l 2
 157 314 161 333 151 333 c 0
 140 333 108 306 79 280 c 0
 76 277 66 279 66 283 c 0
 66 288 67 298 78 313 c 0
 128 380 204 418 233 418 c 0
 243 418 262 399 255 385 c 0
 211 294 172 199 132 109 c 0
 120 82 115 55 129 55 c 0
 149 55 202 112 258 174 c 0
 333 259 410 367 427 398 c 0
 434 411 444 414 452 414 c 0
 464 414 479 391 474 380 c 2
 346 86 l 2
 335 60 337 47 349 47 c 0
 375 47 433 97 463 127 c 0
 464 128 465 128 466 128 c 0
 470 128 475 124 475 119 c 0
 475 114 469 103 453 84 c 0
 415 37 358 -14 295 -14 c 0
 278 -14 259 15 267 33 c 0
 295 93 333 175 343 203 c 0
 349 219 338 219 331 211 c 0
 192 59 120 -14 86 -14 c 0
EndSplineSet
EndChar

StartChar: aogonek
Encoding: 261 261 83
Width: 389
Flags: W
HStem: -14 57<69.5 169> 333 85<94.5 170.719>
VStem: 319 52<220.119 382.481>
LayerCount: 4
Fore
SplineSet
93 -14 m 0
 46 -14 14 57 36 115 c 2
 101 288 l 2
 111 315 115 333 99 333 c 0
 90 333 62 309 41 286 c 0
 34 278 30 278 28 278 c 0
 23 278 21 281 21 283 c 0
 21 291 23 299 33 313 c 0
 82 380 133 418 162 418 c 0
 178 418 194 398 188 379 c 2
 98 119 l 2
 83 73 94 43 128 43 c 0
 225 43 319 165 319 280 c 0
 319 302 310 327 295 344 c 0
 286 354 283 365 283 377 c 0
 283 395 314 418 342 418 c 0
 356 418 371 395 371 349 c 0
 371 261 345 176 276 96 c 0
 213 22 147 -14 93 -14 c 0
EndSplineSet
EndChar

StartChar: Cacute
Encoding: 262 262 84
Width: 599
Flags: W
HStem: -14 57<68.5625 145.372 292.659 383.362>
VStem: 521 59<233.927 383.402>
LayerCount: 4
Fore
SplineSet
551 420 m 0
 565 420 580 395 580 349 c 0
 580 261 543 171 466 80 c 0
 412 17 360 -14 313 -14 c 0
 265 -14 248 53 258 116 c 1
 209 47 128 -14 93 -14 c 0
 42 -14 9 40 46 141 c 2
 106 304 l 2
 113 322 110 332 99 332 c 0
 92 332 62 319 41 295 c 0
 35 288 27 286 25 286 c 0
 21 286 16 289 16 293 c 0
 16 298 16 304 28 319 c 0
 79 380 142 418 171 418 c 0
 182 418 198 404 190 381 c 2
 99 120 l 2
 83 74 95 43 128 43 c 0
 179 43 264 157 270 186 c 0
 276 213 296 310 302 335 c 0
 306 353 314 369 325 376 c 0
 341 386 355 397 382 397 c 0
 396 397 392 348 382 322 c 0
 364 275 352 239 341 214 c 0
 331 191 322 157 320 143 c 0
 310 82 317 41 350 41 c 0
 424 41 521 179 521 288 c 0
 521 304 515 317 508 329 c 0
 499 344 488 356 488 365 c 0
 488 386 530 420 551 420 c 0
EndSplineSet
EndChar

StartChar: cacute
Encoding: 263 263 85
Width: 450
Flags: W
HStem: -14 60<34.3837 69.1983 282.163 333.565> 351 63<113.485 171.5 347.995 422.276>
VStem: 368 22<103.978 139.742>
LayerCount: 4
Fore
SplineSet
14 -14 m 0
 -6 -14 -27 -2 -27 24 c 0
 -27 47 1 87 18 87 c 0
 28 87 32 78 34 69 c 0
 38 53 45 46 53 46 c 0
 62 45 72 50 80 58 c 0
 120 99 142 128 184 176 c 0
 189 181 189 188 187 194 c 2
 149 334 l 2
 145 349 142 351 134 351 c 0
 124 351 103 335 78 299 c 0
 75 295 70 283 61 283 c 0
 56 283 54 290 54 300 c 0
 54 339 117 414 161 414 c 0
 182 414 194 398 203 363 c 2
 228 257 l 2
 230 247 235 246 242 255 c 2
 312 355 l 2
 332 383 366 414 402 414 c 0
 428 414 452 387 453 371 c 0
 454 356 429 316 412 316 c 0
 404 316 398 323 394 333 c 0
 387 351 381 356 372 356 c 0
 356 356 338 342 315 314 c 0
 296 292 274 266 249 228 c 0
 244 220 242 210 247 193 c 2
 281 70 l 2
 286 52 295 46 302 46 c 0
 321 46 348 77 368 126 c 0
 372 136 376 140 381 140 c 0
 386 140 390 138 390 118 c 0
 390 81 344 -14 286 -14 c 0
 249 -14 235 9 223 53 c 2
 201 144 l 2
 197 160 193 160 185 150 c 0
 153 110 121 66 88 27 c 0
 60 -6 38 -14 14 -14 c 0
EndSplineSet
EndChar

StartChar: Ccircumflex
Encoding: 264 264 86
Width: 409
Flags: W
HStem: -290 60<-78.8674 0.824156> 355 59<89.9391 145.807>
VStem: 37 28<263.771 317.558> 179 59<86.9963 303.333> 339 52<266.321 417.861>
LayerCount: 4
Fore
SplineSet
-59 -290 m 0
 -79 -290 -104 -276 -104 -248 c 0
 -104 -221 -84 -198 -65 -198 c 0
 -52 -198 -43 -207 -34 -215 c 0
 -25 -223 -16 -230 -4 -230 c 0
 43 -230 97 -163 141 -74 c 0
 171 -12 179 63 179 154 c 0
 179 301 141 355 121 355 c 0
 101 355 72 314 65 290 c 0
 63 283 54 261 46 261 c 0
 41 261 37 274 37 289 c 0
 37 350 95 414 140 414 c 0
 172 414 194 391 207 348 c 0
 225 290 244 211 238 78 c 0
 237 54 244 58 253 75 c 0
 297 159 339 271 339 404 c 0
 339 410 352 423 358 423 c 0
 366 423 391 404 391 380 c 0
 391 256 291 53 143 -130 c 0
 73 -217 -4 -290 -59 -290 c 0
EndSplineSet
EndChar

StartChar: ccircumflex
Encoding: 265 265 87
Width: 413
Flags: W
HStem: -34 52<213.458 278.008> -20 21G<10 14.5> 52 46<110 124.025> 366 48<130.433 222.183>
VStem: -2 29<-19.9905 31.5369> 46 52<258.541 337.997> 309 48<40.6212 139.279>
LayerCount: 4
Fore
SplineSet
404 406 m 0x7e
 404 396 391 375 372 356 c 2
 110 98 l 1
 113 98 l 2
 143 98 168 77 193 56 c 0
 216 37 237 18 260 18 c 0
 305 18 309 69 309 114 c 0
 309 138 312 143 324 143 c 0
 338 143 357 124 357 92 c 0
 357 36 262 -34 226 -34 c 0xbe
 193 -34 165 -8 140 16 c 0
 120 35 103 52 90 52 c 0
 50 52 27 25 27 -6 c 0
 27 -19 17 -20 12 -20 c 0
 8 -20 -1 -7 -2 6 c 0
 -3 20 3 41 22 59 c 2
 290 319 l 1
 272 320 252 330 231 340 c 0
 205 353 178 366 146 366 c 0
 122 366 98 342 98 322 c 0
 98 312 100 298 108 286 c 0
 113 278 113 274 108 268 c 0
 99 258 73 246 67 246 c 0
 60 246 46 258 46 280 c 0
 46 316 64 338 96 368 c 0
 119 390 169 414 191 414 c 0
 213 414 235 406 257 398 c 0
 281 389 303 379 320 379 c 0
 340 379 350 385 365 400 c 0
 372 407 385 418 395 418 c 0
 399 418 404 412 404 406 c 0x7e
EndSplineSet
EndChar

StartChar: Cdotaccent
Encoding: 266 266 88
Width: 765
Flags: W
HStem: -15 30<159.42 270.415> 39 28<458.69 540.067> 65 84<130.064 163.591> 447 33<261.719 399.369> 638 36<672.18 700.777>
LayerCount: 4
Fore
SplineSet
757.927734375 672 m 1xb8
 770.16015625 658 l 1
 719.177734375 476 684.580078125 301 641.141601562 69 c 1
 675.525390625 76 712.5234375 89 736.291992188 103 c 1
 748.985351562 87 l 1
 722.526367188 63 675.758789062 49 635.375 42 c 1
 628.071289062 0 l 1
 531.071289062 0 l 1
 540.067382812 39 l 1xd8
 482.143554688 43 423.142578125 56 368.83203125 79 c 1
 325.9921875 22 277.534179688 -15 217.534179688 -15 c 0
 153.534179688 -15 101.530273438 24 89.2939453125 77 c 0
 79.1357421875 121 101.671875 149 134.671875 149 c 0
 162.671875 149 189.51953125 128 195.752929688 101 c 0
 200.6015625 80 191.834960938 53 163.834960938 53 c 0
 158.834960938 53 140.373046875 55 132.064453125 65 c 1
 130.064453125 65 l 1
 134.451171875 46 164.608398438 15 206.608398438 15 c 0
 263.608398438 15 296.067382812 39 338.831054688 92 c 1
 257.365234375 133 192.127929688 199 169.041015625 299 c 0
 142.030273438 416 225.25390625 480 314.25390625 480 c 0
 387.25390625 480 447.873046875 447 494.185546875 398 c 1
 559.170898438 541 630.465820312 674 733.465820312 674 c 0
 742.465820312 674 749.465820312 674 757.927734375 672 c 1xb8
700.77734375 638 m 1
 699.77734375 638 l 1
 623.47265625 609 569.791015625 495 516.418945312 371 c 1
 546.884765625 330 569.659179688 279 582.6640625 227 c 1
 616.802734375 378 655.48046875 531 700.77734375 638 c 1
566.127929688 199 m 0
 554.123046875 251 533.348632812 302 503.65234375 344 c 1
 467.506835938 258 431.361328125 172 386.830078125 105 c 1
 435.677734375 84 489.6796875 71 546.602539062 67 c 1
 554.752929688 101 562.98046875 139 570.438476562 176 c 0
 569.591796875 184 567.975585938 191 566.127929688 199 c 0
482.188476562 372 m 1
 441.798828125 417 387.873046875 447 321.873046875 447 c 0
 247.873046875 447 189.956054688 386 209.580078125 301 c 0
 228.7421875 218 284.59375 158 358.59765625 119 c 1
 401.822265625 183 442.889648438 278 482.188476562 372 c 1
EndSplineSet
EndChar

StartChar: cdotaccent
Encoding: 267 267 89
Width: 950
Flags: W
HStem: -15 31<197.812 353.775> -11 45<647.408 758.963> 95 84<124.64 159.028> 176 23<680.309 709.462> 260 30<251.486 380.233> 292 60<636.437 715.492> 657 30<376.308 605.901>
VStem: 462.055 20<502.129 561>
LayerCount: 4
Fore
SplineSet
820.198242188 660 m 1xaf
 831.584960938 641 l 1
 807.35546875 629 786.356445312 616 768.8203125 601 c 1
 819.900390625 566 858.596679688 524 872.6796875 463 c 0
 887.686523438 398 837.616210938 329 753.155273438 318 c 1
 753.6171875 316 l 1
 823.850585938 289 862.548828125 234 873.629882812 186 c 0
 887.020507812 128 867.02734375 63 815.4921875 22 c 0
 787.571289062 0 754.111328125 -11 711.111328125 -11 c 0
 647.111328125 -11 607.18359375 32 599.103515625 67 c 0
 584.096679688 132 621.091796875 184 706.62890625 199 c 1
 715.938476562 176 l 1
 662.32421875 170 622.250976562 127 632.640625 82 c 0
 638.643554688 56 665.72265625 34 693.72265625 34 c 0x5f
 715.72265625 34 735.798828125 38 751.258789062 49 c 0
 793.564453125 78 808.01953125 141 793.705078125 203 c 0
 784.470703125 243 765.390625 278 725.7734375 298 c 1
 710.696289062 294 685.158203125 292 678.158203125 292 c 0
 657.158203125 292 634.311523438 300 626.771484375 311 c 1
 567.794921875 77 447.03515625 -15 288.03515625 -15 c 0
 182.03515625 -15 102.106445312 41 86.869140625 107 c 0
 77.171875 149 96.24609375 179 129.24609375 179 c 0
 157.24609375 179 184.6328125 160 191.328125 131 c 0
 197.099609375 106 187.409179688 83 159.409179688 83 c 0
 151.409179688 83 134.948242188 85 126.639648438 95 c 1
 124.639648438 95 l 1
 132.48828125 61 191.877929688 16 262.877929688 16 c 0
 387.877929688 16 449.1796875 71 516.006835938 271 c 0
 569.298828125 430 623.518554688 533 714.8203125 601 c 1
 644.123046875 643 551.891601562 657 491.891601562 657 c 0
 308.891601562 657 143.439453125 555 180.147460938 396 c 0
 194.23046875 335 245.620117188 290 315.620117188 290 c 0
 425.620117188 290 493.147460938 396 462.0546875 561 c 1
 482.0546875 561 l 1
 518.993164062 401 463.545898438 260 317.545898438 260 c 0
 238.545898438 260 159.6953125 307 137.532226562 403 c 0
 94.5908203125 589 313.96484375 687 482.96484375 687 c 0
 556.96484375 687 659.3515625 668 742.43359375 620 c 1
 765.739257812 636 790.96875 648 820.198242188 660 c 1xaf
806.600585938 485 m 0
 797.596679688 524 774.439453125 555 744.66796875 580 c 1
 692.366210938 525 664.912109375 449 636.229492188 348 c 1
 640.537109375 351 652.305664062 352 658.305664062 352 c 0
 671.305664062 352 694.229492188 348 716.538085938 338 c 1
 800.921875 345 821.375976562 421 806.600585938 485 c 0
EndSplineSet
EndChar

StartChar: numbersign
Encoding: 35 35 90
Width: 774
Flags: W
HStem: -2 36<-65.5571 19.2766 174.666 236.336 322.738 399.463 603.742 672.496> 240 45<327.996 462.133>
LayerCount: 4
Fore
SplineSet
-44 -5 m 0
 -60 -5 -69 -1 -67 11 c 0
 -65 24 -53 30 -38 33 c 0
 1 42 62 64 94 100 c 0
 226 248 348 392 475 539 c 0
 510 579 526 624 538 624 c 0
 572 624 602 630 626 645 c 0
 648 659 667 673 679 673 c 0
 692 673 693 645 687 613 c 2
 588 114 l 2
 579 68 597 46 646 32 c 0
 662 28 673 25 673 12 c 0
 673 2 654 -3 642 -3 c 0
 603 -3 534 2 490 2 c 0
 450 2 381 -2 341 -2 c 0
 329 -2 321 3 322 12 c 0
 322 23 335 31 349 34 c 0
 397 44 422 58 432 100 c 2
 462 221 l 2
 465 234 458 240 446 240 c 2
 294 240 l 2
 281 240 272 232 265 222 c 2
 196 133 l 2
 147 72 161 47 212 34 c 0
 224 31 237 24 237 12 c 0
 236 3 220 -2 205 -2 c 0
 166 -2 129 1 90 1 c 0
 50 1 -4 -5 -44 -5 c 0
340 285 m 2
 460 285 l 2
 471 285 476 288 478 299 c 2
 526 518 l 2
 528 528 530 536 524 536 c 0
 522 536 516 533 511 528 c 2
 328 304 l 2
 316 290 316 285 340 285 c 2
EndSplineSet
EndChar

StartChar: dollar
Encoding: 36 36 91
Width: 1060
Flags: W
HStem: -21 55<220.547 387.688> -13 55<733.818 824.174> 168 50<747.111 784.671> 254 55<290.885 427.032> 644 55<391.665 681.97>
VStem: 481.366 50<366.588 528>
LayerCount: 4
Fore
SplineSet
884.96484375 690 m 1xbc
 912.354492188 645 l 1
 885.125 633 866.895507812 621 847.358398438 606 c 1
 898.208007812 572 939.98046875 534 953.6015625 475 c 0
 968.146484375 412 936.383789062 346 848.770507812 327 c 1
 849.232421875 325 l 1
 921.388671875 294 963.086914062 239 973.475585938 194 c 0
 986.635742188 137 969.565429688 68 910.185546875 22 c 0
 880.725585938 -2 841.265625 -13 789.265625 -13 c 0
 706.265625 -13 665.875 45 657.333007812 82 c 0
 646.482421875 129 665.3984375 203 781.934570312 218 c 1
 801.478515625 168 l 1
 744.6328125 163 713.944335938 127 723.87109375 84 c 0
 730.797851562 54 755.567382812 42 778.567382812 42 c 0x7c
 840.567382812 42 860.63671875 124 843.552734375 198 c 0
 834.086914062 239 812.852539062 279 781.00390625 300 c 1
 766.927734375 296 745.388671875 294 728.388671875 294 c 0
 715.388671875 294 702.465820312 298 692.00390625 300 c 1
 626.1796875 74 494.112304688 -21 323.112304688 -21 c 0
 207.112304688 -21 125.645507812 33 108.330078125 108 c 0
 96.787109375 158 120.859375 201 167.859375 201 c 0
 211.859375 201 243.478515625 168 251.328125 134 c 0
 258.0234375 105 247.411132812 73 209.02734375 66 c 1
 209.2578125 65 l 1
 231.106445312 44 259.415039062 34 293.415039062 34 c 0
 397.415039062 34 467.564453125 81 537.159179688 282 c 0
 590.14453125 438 630.134765625 529 728.28125 602 c 1
 657.508789062 640 595.584960938 644 541.584960938 644 c 0
 365.584960938 644 200.82421875 565 237.30078125 407 c 0
 250.921875 348 304.92578125 309 359.92578125 309 c 0
 432.92578125 309 510.688476562 375 481.366210938 528 c 1
 531.366210938 528 l 1
 562.071289062 395 511.624023438 254 366.624023438 254 c 0
 316.624023438 254 266.315429688 264 223.927734375 296 c 0
 187.694335938 323 155.3046875 368 144.684570312 414 c 0
 120.674804688 518 180.743164062 600 268.892578125 647 c 0
 342.658203125 687 435.887695312 699 519.887695312 699 c 0
 598.887695312 699 701.119140625 685 785.27734375 641 c 1
 815.4296875 662 843.428710938 675 884.96484375 690 c 1xbc
838.447265625 480 m 0
 831.751953125 509 817.288085938 537 794.670898438 557 c 1
 755.983398438 508 735.219726562 455 708.3046875 368 c 1
 724.536132812 367 760.228515625 364 782.537109375 354 c 1
 833.228515625 364 851.607421875 423 838.447265625 480 c 0
EndSplineSet
EndChar

StartChar: percent
Encoding: 37 37 92
Width: 1060
Flags: W
HStem: -21 42<215.95 376.75> -13 38<740.417 834.954> 195 39<747.111 782.93> 268 41<297.028 425.142> 665 39<381.078 661.487>
VStem: 108.33 142.998<77.697 173.25> 481.366 39<371.961 528>
LayerCount: 4
Fore
SplineSet
697.3046875 361 m 1x7e
 713.536132812 360 760.228515625 356 782.537109375 346 c 1
 833.228515625 356 871.607421875 423 858.447265625 480 c 0
 847.392578125 527.8828125 828.53515625 565.380859375 791 590.822265625 c 0
 727.051757812 634.16796875 647.803710938 665 531.584960938 665 c 0
 294.584960938 665 208.82421875 565 245.30078125 407 c 0
 258.921875 348 304.92578125 309 359.92578125 309 c 0
 442.92578125 309 510.688476562 395 481.366210938 528 c 1
 520.366210938 528 l 1
 551.071289062 395 504.624023438 268 359.624023438 268 c 0
 309.624023438 268 260.315429688 288 217.927734375 320 c 0
 181.694335938 347 153.3046875 380 142.684570312 426 c 0
 118.674804688 530 190.743164062 607 278.892578125 654 c 0
 352.658203125 694 435.887695312 704 519.887695312 704 c 0
 613.700195312 704 732.87890625 673.10546875 818 625.115234375 c 0
 880.100585938 590.104492188 937.363782551 545.33422092 953.6015625 475 c 0
 968.146484375 412 936.383789062 346 848.770507812 327 c 1
 849.232421875 325 l 1
 921.388671875 294 963.086914062 239 973.475585938 194 c 0
 986.635742188 137 969.565429688 68 910.185546875 22 c 0
 880.725585938 -2 841.265625 -13 789.265625 -13 c 0
 706.265625 -13 665.875 45 657.333007812 82 c 0
 646.482421875 129 665.3984375 219 781.934570312 234 c 1
 787.478515625 195 l 1
 730.6328125 190 704.942382812 127 714.87109375 84 c 0
 721.797851562 54 751 25 787 25 c 0
 849 25 888.086917954 102.654383899 878.552734375 178 c 0
 871.086914062 237 812.852539062 286 781.00390625 307 c 1
 766.927734375 303 745.388671875 302 728.388671875 302 c 0
 715.388671875 302 698.465820312 305 688.00390625 307 c 1
 697.3046875 361 l 1x7e
878.96484375 692 m 1
 897.354492188 657 l 1
 859.266601562 640.21484375 846.747070312 632.081054688 820 607.206054688 c 0
 756.526367188 548.174804688 733.908203125 453.951171875 706.11328125 338 c 0
 648.202148438 96.419921875 507.578463776 -21 323.112304688 -21 c 0
 207.112304688 -21 125.645507812 33 108.330078125 108 c 0
 96.787109375 158 120.859375 201 167.859375 201 c 0
 211.859375 201 243.478515625 168 251.328125 134 c 0
 258.0234375 105 242.411132812 73 204.02734375 66 c 1
 189.2578125 63 l 1
 211.106445312 42 234.415039062 21 293.415039062 21 c 0xbe
 397.415039062 21 457.564453125 81 527.159179688 282 c 0
 587.069335938 458.388671875 640.926589081 542.226925186 761 624.388047426 c 0
 800.851659362 651.656841002 826.271484375 672.970703125 878.96484375 692 c 1
EndSplineSet
EndChar

StartChar: ampersand
Encoding: 38 38 93
Width: 700
Flags: W
HStem: -4 32<-22.7487 44.68 251.281 332.308> 331 33<331.227 407.717> 619 35<171.24 225.901> 626 28<366.115 485.33>
VStem: 448 153<141.524 276.925> 524 133<458.978 594.668>
LayerCount: 4
Fore
SplineSet
-7 -5 m 0xd8
 -18 -5 -24 -1 -24 7 c 0
 -24 16 -12 26 5 31 c 0
 54 44 74 53 88 96 c 2
 229 551 l 2
 244 596 229 608 189 619 c 0
 176 622 171 627 171 634 c 0
 171 645 184 654 199 654 c 0xe8
 258 654 279 647 327 647 c 0
 372 647 402 654 467 654 c 0
 590 654 657 607 657 526 c 0xd4
 657 445 568 382 474 364 c 0
 468 363 465 356 471 354 c 0
 548 327 601 282 601 197 c 0
 601 50 454 -4 277 -4 c 0
 225 -4 184 1 134 1 c 0
 92 1 35 -5 -7 -5 c 0xd8
359 364 m 0
 389 364 412 372 438 382 c 1
 485 416 524 468 524 536 c 0
 524 582 491 626 444 626 c 0xd4
 415 626 401 618 393 593 c 2
 332 389 l 2
 327 371 336 364 359 364 c 0
287 28 m 0
 369 38 448 137 448 226 c 0xc8
 448 286 414 331 352 331 c 0
 324 331 312 326 306 308 c 2
 242 101 l 2
 238 85 236 64 244 52 c 0
 252 41 267 28 287 28 c 0
EndSplineSet
EndChar

StartChar: quotesingle
Encoding: 39 39 94
Width: 912
Flags: W
HStem: -21 55<431.133 588.885> 244 55<508.881 616.001> 319 55<406.92 514.372> 632 55<601.983 719.606> 644 55<174.919 389.553>
VStem: 423.483 51.8467<116 209.75>
LayerCount: 4
Fore
SplineSet
411.043945312 668 m 1xec
 399.43359375 623 l 1
 359.584960938 644 309.584960938 644 283.584960938 644 c 0xec
 192.584960938 644 89.3583984375 606 112.907226562 504 c 0
 130.453125 428 203.45703125 389 256.611328125 384 c 1
 328.364257812 541 515.658203125 687 667.658203125 687 c 0xf4
 745.658203125 687 801.737304688 665 814.896484375 608 c 0
 843.29296875 485 642.155273438 321 389.6171875 319 c 1
 359.778320312 249 359.399414062 190 370.942382812 140 c 0
 385.025390625 79 440.415039062 34 502.415039062 34 c 0
 602.415039062 34 659.946289062 101 643.092773438 174 c 0
 631.549804688 224 592.932617188 244 568.932617188 244 c 0
 504.932617188 244 470.552734375 198 475.330078125 108 c 1
 423.483398438 116 l 1
 411.087890625 226 472.234375 299 583.234375 299 c 0
 670.234375 299 736.776367188 262 753.629882812 189 c 0
 766.790039062 132 736.873046875 71 687.337890625 30 c 0
 641.880859375 -7 572.112304688 -21 501.112304688 -21 c 0
 376.112304688 -21 259.106445312 44 232.325195312 160 c 0
 219.627929688 215 219.391601562 268 237.770507812 327 c 1
 143.153320312 347 45.224609375 403 22.3681640625 502 c 0
 -0.71875 602 86.8876953125 699 263.887695312 699 c 0
 302.887695312 699 351.349609375 697 411.043945312 668 c 1xec
405.688476562 375 m 1
 406.919921875 374 l 1
 529.458007812 376 753.216796875 481 726.897460938 595 c 0
 721.818359375 617 703.35546875 632 672.35546875 632 c 0xf4
 585.35546875 632 463.443359375 519 405.688476562 375 c 1
EndSplineSet
EndChar

StartChar: parenleft
Encoding: 40 40 95
Width: 912
Flags: W
HStem: -21 38<447.149 576.056> 258 41<509.985 606.911> 649 38<612.884 725.005> 667 39<193.758 381.009>
VStem: 423.483 38.8467<116 203.244>
LayerCount: 4
Fore
SplineSet
-36 625 m 1024,0,-1
666.658203125 687 m 0,1,-1
 508.9609375 687 303.21484375 558.017578125 246.025390625 385 c 0,4,-1
 225.708007812 323.532226562 207.000976562 226.379882812 222.325195312 160 c 0,7,-1
 249.106445312 44 376.112304688 -21 501.112304688 -21 c 0,10,-1
 572.112304688 -21 641.880859375 -7 687.337890625 30 c 0,13,-1
 736.873046875 71 766.790039062 132 753.629882812 189 c 0,16,-1
 736.776367188 262 670.234375 299 583.234375 299 c 0,19,-1
 472.234375 299 411.087890625 226 423.483398438 116 c 1,22,-1
 462.330078125 112 l 1,23,-1
 457.552734375 202 504.932617188 258 568.932617188 258 c 0,26,-1
 592.932617188 258 631.549804688 224 643.092773438 174 c 0,29,-1
 659.946289062 101 602.415039062 17 502.415039062 17 c 4,32,-1
 440.415039062 17 389.025390625 79 374.942382812 140 c 0,35,-1
 360.583007812 202.197265625 374.267578125 272.483398438 395.939453125 348 c 0,38,-1
 440.119140625 501.94140625 582.39453125 649 672.35546875 649 c 0,41,-1
 703.35546875 649 733.818359375 639 743.897460938 595 c 0,44,-1
 777.05078125 450.26953125 481.709960938 352.458007812 332 359.984375 c 0,47,-1
 196.942382812 366.774414062 138.297468013 405.022254652 112.907226562 504 c 0,50,-1
 86.8956364641 605.399923504 190.584960938 667 281.584960938 667 c 0,53,-1
 307.584960938 667 362.584960938 659 402.43359375 638 c 1,56,-1
 411.043945312 674 l 1,57,-1
 351.349609375 703 302.887695312 706 263.887695312 706 c 0,60,-1
 86.8876953125 706 -0.71875 602 22.3681640625 502 c 0,63,-1
 51.7788796594 374.610950466 175.086914062 328.302734375 320 320.66796875 c 0,66,-1
 592.865234375 306.291992188 849.549103566 457.901413705 814.896484375 608 c 0,69,-1
 801.737304688 665 744.658203125 687 666.658203125 687 c 0,1,-1
EndSplineSet
EndChar

StartChar: parenright
Encoding: 41 41 96
Width: 698
Flags: W
HStem: -14 39<249.048 402.031> 628 36<400.142 529.701>
VStem: 32 153<144.114 337.347> 537 40<142.881 190.27> 590 39<436.36 512.242>
LayerCount: 4
Fore
SplineSet
288 -14 m 0
 147 -14 32 99 32 251 c 0
 32 490 232 664 479 664 c 0
 524 664 560 654 588 644 c 0
 613 636 626 631 642 631 c 0
 651 631 658 632 667 637 c 0
 677 643 686 647 696 647 c 0
 709 647 712 637 704 625 c 0
 678 592 643 508 629 458 c 0
 626 445 619 436 606 436 c 0
 593 436 588 456 590 483 c 0
 592 512 585 544 568 570 c 0
 547 604 514 628 477 628 c 0
 305 628 185 381 185 186 c 0
 185 75 240 25 325 25 c 0
 407 25 474 81 537 166 c 0
 547 179 553 192 563 192 c 0
 573 192 580 181 577 166 c 0
 562 107 512 -9 495 -9 c 0
 483 -9 478 -3 470 2 c 0
 462 7 453 11 434 11 c 0
 419 11 402 5 380 -1 c 0
 357 -7 326 -14 288 -14 c 0
EndSplineSet
EndChar

StartChar: asterisk
Encoding: 42 42 97
Width: 991
Flags: W
HStem: -17 55<216.481 375.601 529.838 713.88> 87 55<214.514 350.515> 230 58<247.297 410.891> 644 55<275.271 533.833>
LayerCount: 4
Fore
SplineSet
825.7421875 613 m 1
 853.592773438 566 l 1
 825.59375 553 814.903320312 543 795.674804688 518 c 1
 847.526367188 458 885.995117188 391 901.462890625 324 c 0
 946.944335938 127 806.112304688 -21 626.112304688 -21 c 0
 562.112304688 -21 500.341796875 -9 450.6484375 7 c 1
 405.341796875 -9 360.189453125 -17 298.189453125 -17 c 0
 253.189453125 -17 216.265625 -13 187.725585938 -2 c 0
 152.724609375 11 130.415039062 34 124.181640625 61 c 0
 117.486328125 90 132.407226562 112 160.174804688 126 c 0
 182.635742188 137 212.481445312 142 247.481445312 142 c 0
 325.481445312 142 386.17578125 113 446.640625 85 c 1
 482.252929688 117 512.862304688 175 564.618164062 306 c 0
 598.995117188 391 625.98828125 456 696.05859375 525 c 1
 616.588867188 605 504.584960938 644 402.584960938 644 c 0
 313.584960938 644 253.6640625 622 212.4375 584 c 0
 171.209960938 546 148.676757812 492 164.375976562 424 c 0
 182.153320312 347 242.774414062 288 329.774414062 288 c 0
 419.774414062 288 504.153320312 347 461.98046875 534 c 1
 511.98046875 534 l 1
 517.59765625 514 518.521484375 510 521.291992188 498 c 0
 563.771484375 314 441.165039062 230 344.165039062 230 c 0
 206.165039062 230 102.00390625 300 71.529296875 432 c 0
 50.7509765625 522 90.0517578125 590 147.125 633 c 0
 212.8125 682 302.887695312 699 383.887695312 699 c 0
 520.887695312 699 652.123046875 646 744.592773438 566 c 1
 777.590820312 592 785.205078125 598 825.7421875 613 c 1
527.952148438 49 m 1
 528.413085938 47 l 1
 550.029296875 40 583.415039062 34 609.415039062 34 c 0
 744.415039062 34 847.096679688 135 800.692382812 336 c 0
 791.458007812 376 776.377929688 411 757.758789062 444 c 1
 756.758789062 444 l 1
 737.686523438 401 723.615234375 345 711.00390625 300 c 0
 682.013671875 196 622.715820312 102 527.952148438 49 c 1
376.490234375 51 m 1
 376.258789062 52 l 1
 329.025390625 79 289.178710938 87 253.178710938 87 c 0
 240.178710938 87 210.333007812 82 214.2578125 65 c 0
 218.875 45 241.491210938 38 284.491210938 38 c 0
 318.491210938 38 348.567382812 42 376.490234375 51 c 1
EndSplineSet
EndChar

StartChar: plus
Encoding: 43 43 98
Width: 991
Flags: W
HStem: -17 34<235.022 374.588 516.723 691.818> 116 36<219.229 307.546> 240 37<263.847 406.709> 667 32<290.847 495.41>
VStem: 461.98 39<330.021 529>
LayerCount: 4
Fore
SplineSet
124.181640625 61 m 0
 117.486328125 90 132.407226562 117 160.174804688 131 c 0
 182.635742188 142 212.481445312 152 247.481445312 152 c 0
 340.76171875 152 394.865234375 98.9541015625 459 59.458984375 c 0
 492.610138502 38.7613744923 556.587890625 16 609.415039062 16 c 0
 744.415039062 16 847.096679688 135 800.692382812 336 c 0
 786.910885365 395.696503327 760.058839075 440.980494956 728.051287616 483 c 0
 652.696144313 581.92621209 528.623046875 667 402.584960938 667 c 0
 313.584960938 667 243.6640625 642 202.4375 604 c 0
 161.209960938 566 148.676757812 492 164.375976562 424 c 0
 182.153320312 347 247.774414062 277 334.774414062 277 c 0
 424.774414062 277 504.153320312 342 461.98046875 529 c 1
 500.98046875 534 l 1
 554.58203125 343.150390625 463.905273438 240 344.165039062 240 c 0
 206.165039062 240 97.00390625 300 66.529296875 432 c 0
 45.7509765625 522 90.0517578125 590 147.125 633 c 0
 212.8125 682 302.887695312 699 383.887695312 699 c 0
 536.167232725 699 673.120855524 633.159664091 768 544.005047029 c 0
 830.470213541 485.303970024 883.452814349 402.012204884 901.462890625 324 c 0
 946.944335938 127 806.112304688 -21 626.112304688 -21 c 0
 539.012836824 -21 464.863799768 -1.599197812 411 30.9842468001 c 0
 365.20065259 58.6893197069 302.517578125 116 254.178710938 116 c 0
 215.178710938 116 210.333007812 82 214.2578125 65 c 0
 218.875 45 241.491210938 17 284.491210938 17 c 0
 336.720703125 17 379.384765625 32.54296875 413 52.2412109375 c 0
 491.950195312 98.505859375 489.888671875 149.754882812 551.618164062 306 c 4
 590.004882812 400.913085938 632.563476562 487.275390625 715 556.9140625 c 0
 751.142578125 587.446289062 775.065429688 598.09765625 820.7421875 615 c 1
 839.592773438 585 l 1
 799.486328125 566.37890625 786.442382812 539.459960938 765.165039062 499 c 0
 738.186523438 447.69921875 727.924804688 360.377929688 711.00390625 300 c 0
 675.362304688 172.138671875 601.236977493 88.8164950038 487 26.7502242322 c 0
 435.266793262 -1.35702516937 379.973116989 -17 298.189453125 -17 c 0
 253.189453125 -17 216.265625 -13 187.725585938 -2 c 0
 152.724609375 11 130.415039062 34 124.181640625 61 c 0
EndSplineSet
EndChar

StartChar: comma
Encoding: 44 44 99
Width: 785
Flags: W
HStem: -7 37<-45.7656 34.0679 248.479 386.437> 616 34<143.147 204.725 381.072 505.437>
VStem: 589 159<272.56 495.558>
LayerCount: 4
Fore
SplineSet
311 -7 m 0
 242 -7 149 3 114 3 c 0
 75 3 14 -3 -31 -3 c 0
 -40 -3 -48 2 -46 11 c 0
 -42 22 -33 30 -18 32 c 0
 38 42 55 55 68 97 c 2
 211 553 l 2
 223 598 205 606 157 619 c 0
 145 622 140 629 143 640 c 0
 146 649 158 655 167 655 c 0
 213 655 273 650 314 650 c 0
 353 650 389 654 455 654 c 0
 642 654 748 535 748 384 c 0
 748 175 554 -7 311 -7 c 0
311 30 m 0
 456 30 589 220 589 401 c 0
 589 557 529 616 440 616 c 0
 394 616 376 604 367 572 c 2
 232 123 l 2
 210 53 262 30 311 30 c 0
EndSplineSet
EndChar

StartChar: hyphen
Encoding: 45 45 100
Width: 826
Flags: W
HStem: -21 55<346.276 510.23> 234 55<425.939 533.724> 317 78<438.071 516.092> 632 55<254.075 332.064 522.682 635.896> 644 55<165.264 331.602>
VStem: 335.483 51.3086<116 191.125>
LayerCount: 4
Fore
SplineSet
334.581054688 683 m 1xec
 331.663085938 635 l 1
 302.81640625 643 284.584960938 644 252.584960938 644 c 0xec
 169.584960938 644 124.358398438 606 137.517578125 549 c 0
 152.754882812 483 225.295898438 459 307.680664062 453 c 1
 298.899414062 582 447.658203125 687 580.658203125 687 c 0xf4
 667.658203125 687 716.4296875 662 729.126953125 607 c 0
 747.596679688 527 631.530273438 419 437.37890625 398 c 1
 438.071289062 395 l 1
 489.45703125 389 521.534179688 380 526.61328125 358 c 0
 531.923828125 335 513.079101562 317 464.079101562 317 c 0
 439.079101562 317 413.462890625 324 397.846679688 331 c 1
 308.465820312 298 266.473632812 220 286.096679688 135 c 0
 299.71875 76 352.415039062 34 423.415039062 34 c 0
 511.415039062 34 579.409179688 86 560.016601562 170 c 0
 550.08984375 213 511.241210938 234 486.241210938 234 c 0
 428.241210938 234 390.552734375 198 386.791992188 106 c 1
 335.483398438 116 l 1
 333.165039062 230 387.54296875 289 501.54296875 289 c 0
 599.54296875 289 656.470703125 246 673.32421875 173 c 0
 683.712890625 128 669.254882812 91 645.950195312 62 c 0
 600.110351562 5 509.112304688 -21 431.112304688 -21 c 0
 302.112304688 -21 174.260742188 39 147.249023438 156 c 0
 123.931640625 257 189.307617188 342 334.534179688 380 c 1
 334.072265625 382 l 2
 329.91796875 387 325.533203125 393 323.37890625 398 c 1
 175.532226562 406 66.3720703125 463 45.8251953125 552 c 0
 27.5869140625 631 95.8876953125 699 227.887695312 699 c 0
 266.887695312 699 298.349609375 697 334.581054688 683 c 1xec
429.219726562 455 m 1
 431.680664062 453 l 1
 564.294921875 472 653.364257812 541 639.512695312 601 c 4
 634.202148438 624 618.35546875 632 587.35546875 632 c 4xf4
 511.35546875 632 434.133789062 542 429.219726562 455 c 1
EndSplineSet
EndChar

StartChar: period
Encoding: 46 46 101
Width: 826
Flags: W
HStem: -21 28<370.448 484.475> 259 30<431.971 520.623> 405 30<251.077 494.347> 670 29<192.219 331.602>
VStem: 335.483 34.3086<116 187.041>
LayerCount: 4
Fore
SplineSet
587.35546875 663 m 0
 504.755859375 663 438.791397255 527.852271099 432.941457648 429 c 0
 432.267142224 417.605418938 435.928710938 385.901367188 438.071289062 375 c 1
 489.45703125 374 521.534179688 370 526.61328125 348 c 0
 531.923828125 325 489.238902728 314.412368872 471.079101562 320 c 0
 445.079101562 328 433.462890625 337 417.846679688 344 c 1
 328.465820312 311 266.473632812 220 286.096679688 135 c 0
 299.71875 76 352.415039062 7 423.415039062 7 c 0
 511.415039062 7 584.409179688 86 565.016601562 170 c 0
 555.08984375 213 526.241210938 259 481.241210938 259 c 0
 423.241210938 259 373.552734375 205 369.791992188 113 c 1
 335.483398438 116 l 1
 333.165039062 230 387.54296875 289 501.54296875 289 c 0
 599.54296875 289 656.470703125 246 673.32421875 173 c 0
 683.712890625 128 669.254882812 91 645.950195312 62 c 0
 600.110351562 5 509.112304688 -21 431.112304688 -21 c 0
 302.112304688 -21 154.260742188 39 127.249023438 156 c 0
 103.931640625 257 189.307617188 342 334.534179688 380 c 1
 334.072265625 382 l 1
 323.61490758 394.586194921 324.454716691 410.007827551 315.387073864 426 c 0
 234.841570833 568.054291177 430.452108889 677 580.658203125 687 c 0
 667.466038521 692.779248561 716.4296875 662 729.126953125 607 c 0
 750.794804211 513.147604241 594.614257812 405 378 405 c 0
 206.369140625 405 69.9877563361 447.338442897 45.8251953125 552 c 0
 27.5869140625 631 95.8876953125 699 227.887695312 699 c 0
 266.887695312 699 298.349609375 698 334.581054688 684 c 1
 331.663085938 657 l 1
 302.81640625 665 284.584960938 670 252.584960938 670 c 0
 169.584960938 670 124.358398438 606 137.517578125 549 c 0
 156.810166434 465.434641527 258.450195312 435 368 435 c 0
 523.221679688 435 623.902968354 524.440172987 639.512695312 601 c 0
 644.202148438 624 638.35546875 663 587.35546875 663 c 0
EndSplineSet
EndChar

StartChar: slash
Encoding: 47 47 102
Width: 663
Flags: W
HStem: 0 36<-22.6269 58.4549 247.161 450.019> 313 41<325.191 456.047> 615 34<164.308 226.5 400.461 567.276>
VStem: 461 34<221.105 308.38> 591 31<494.02 583.653>
LayerCount: 4
Fore
SplineSet
-11 -5 m 0
 -24 -5 -29 2 -27 10 c 0
 -26 18 -15 27 1 31 c 0
 52 44 72 54 85 96 c 2
 225 551 l 2
 239 596 229 609 183 619 c 0
 167 623 162 631 164 640 c 0
 167 648 179 655 206 655 c 0
 231 655 291 649 331 649 c 2
 496 650 l 2
 586 650 619 662 631 662 c 0
 640 662 649 654 649 642 c 0
 649 619 624 558 622 514 c 0
 622 501 613 494 606 494 c 0
 600 494 593 500 591 512 c 0
 584 586 572 615 521 615 c 2
 443 615 l 2
 410 615 391 600 374 543 c 2
 326 379 l 2
 321 360 327 354 344 354 c 6
 435 354 l 2
 470 355 492 378 513 412 c 0
 520 424 532 432 541 432 c 0
 548 432 552 423 546 408 c 0
 534 380 523 355 516 329 c 0
 508 303 502 278 495 248 c 0
 490 230 484 221 477 221 c 0
 467 221 460 233 461 246 c 0
 463 289 454 313 429 313 c 2
 329 313 l 2
 313 313 301 305 297 289 c 2
 246 114 l 2
 231 61 245 36 297 36 c 2
 384 36 l 2
 411 36 440 46 464 62 c 0
 491 80 514 118 538 155 c 0
 545 164 548 168 556 168 c 0
 564 168 566 161 566 145 c 0
 566 124 538 46 512 9 c 0
 505 0 494 -4 483 -4 c 0
 448 -4 245 0 129 0 c 0
 88 0 30 -5 -11 -5 c 0
EndSplineSet
EndChar

StartChar: zero
Encoding: 48 48 103
Width: 1042
Flags: W
HStem: -21 55<233.467 391.057> 299 84<675.728 791.234> 314 125<848.809 906.542> 336 55<268.285 391.584> 570 91<603.582 855.701> 644 55<280.362 497.22>
VStem: 435.75 47.0781<439.24 526>
LayerCount: 4
Fore
SplineSet
915.887695312 699 m 1x86
 951.583984375 657 l 1
 906.896484375 608 831.669921875 570 753.669921875 570 c 0x8a
 601.669921875 570 483.584960938 644 379.584960938 644 c 0
 263.584960938 644 198.053710938 577 217.676757812 492 c 0
 234.76171875 418 292.995117188 391 332.995117188 391 c 0
 381.995117188 391 435.145507812 425 435.75 535 c 1
 482.828125 526 l 1
 500.377929688 411 432.692382812 336 334.692382812 336 c 0
 304.692382812 336 273.076171875 343 240.61328125 358 c 0
 187.841796875 383 140.298828125 433 125.984375 495 c 0
 109.130859375 568 143.125976562 620 206.353515625 658 c 0
 258.96484375 690 334.887695312 699 425.887695312 699 c 0x96
 536.887695312 699 674.66015625 661 780.66015625 661 c 0x8a
 814.66015625 661 877.659179688 674 915.887695312 699 c 1x86
667.439453125 558 m 1
 710.750976562 522 l 1
 689.370117188 489 685.912109375 452 673.842773438 370 c 1
 713.99609375 378 757.841796875 383 804.841796875 383 c 1xc2
 817.0703125 408 838.913085938 439 870.913085938 439 c 0
 901.913085938 439 923.9921875 417 929.071289062 395 c 0
 938.305664062 355 909.924804688 322 847.771484375 314 c 1xa2
 856.775390625 275 867.546875 250 872.625 241 c 1
 808.627929688 215 l 1
 803.087890625 226 799.548828125 237 796.778320312 249 c 0
 792.622070312 267 791.852539062 279 791.234375 299 c 1xc2
 744.234375 299 701.388671875 294 661.466796875 285 c 1
 625.02734375 66 478.112304688 -21 326.112304688 -21 c 0
 210.112304688 -21 135.645507812 33 118.330078125 108 c 0
 106.787109375 158 133.859375 201 180.859375 201 c 0
 224.859375 201 256.478515625 168 264.328125 134 c 0
 271.0234375 105 260.411132812 73 222.02734375 66 c 1
 222.2578125 65 l 1
 236.720703125 50 264.415039062 34 309.415039062 34 c 0
 413.415039062 34 464.637695312 111 496.473632812 220 c 0
 497.01171875 222 498.319335938 225 498.625976562 228 c 1
 438.013671875 196 395.86328125 162 378.25 143 c 1
 334.938476562 179 l 1
 363.08984375 213 428.544921875 276 528.694335938 323 c 1
 578.217773438 468 615.3671875 515 667.439453125 558 c 1
EndSplineSet
EndChar

StartChar: Ccaron
Encoding: 268 268 104
Width: 697
Flags: W
HStem: -15 30<367.588 508.765> 247 43<451.411 568.917> 324 30<327.845 433.244> 632 37<554.761 670.357> 657 30<138.229 314.978>
VStem: 373.565 22.4619<65 164.997>
LayerCount: 4
Fore
SplineSet
377.662109375 645 m 1xec
 370.047851562 626 l 1
 307.891601562 657 261.891601562 657 226.891601562 657 c 0xec
 125.891601562 657 15.896484375 605 39.9072265625 501 c 0
 60.4541015625 412 143.150390625 370 223.228515625 361 c 1
 292.904296875 527 469.12109375 669 608.12109375 669 c 0xf4
 670.12109375 669 710.354492188 642 721.435546875 594 c 0
 749.37109375 473 553.770507812 324 314.770507812 324 c 1
 276.932617188 241 280.169921875 175 291.712890625 125 c 0
 306.2578125 62 359.108398438 15 434.108398438 15 c 0
 544.108398438 15 616.946289062 98 599.631835938 173 c 0
 587.625976562 225 548.546875 247 511.546875 247 c 0
 443.546875 247 381.092773438 171 396.02734375 63 c 1
 373.565429688 65 l 1
 345.399414062 187 412.620117188 290 518.620117188 290 c 0
 589.620117188 290 644.469726562 256 660.399414062 187 c 0
 673.790039062 129 642.256835938 75 598.567382812 39 c 0
 554.87890625 3 498.03515625 -15 437.03515625 -15 c 0
 328.03515625 -15 225.490234375 48 200.094726562 158 c 0
 186.704101562 216 191.544921875 273 208.616210938 329 c 1
 121.383789062 343 23.1474609375 396 -0.6318359375 499 c 0
 -22.564453125 594 54.96484375 687 211.96484375 687 c 0
 254.96484375 687 312.119140625 682 377.662109375 645 c 1xec
326.61328125 355 m 1
 327.844726562 354 l 1
 405.844726562 354 492.303710938 378 557.530273438 416 c 0
 641.44921875 464 694.518554688 533 680.897460938 592 c 0
 674.6640625 619 654.663085938 632 621.663085938 632 c 0xf4
 524.663085938 632 401.13671875 513 326.61328125 355 c 1
EndSplineSet
EndChar

StartChar: ccaron
Encoding: 269 269 105
Width: 805
Flags: W
HStem: -9 30<156.617 336.242 438.219 644.457> 79 30<145.289 283.842> 247 30<210.866 366.803> 655 32<220.715 444.199>
LayerCount: 4
Fore
SplineSet
752.051757812 587 m 1
 764.669921875 567 l 1
 731.36328125 551 727.517578125 546 705.905273438 514 c 1
 754.833984375 458 790.840820312 393 806.770507812 324 c 0
 850.866210938 133 726.03515625 -15 563.03515625 -15 c 0
 505.03515625 -15 450.571289062 0 399.416015625 18 c 1
 353.571289062 0 303.649414062 -9 244.649414062 -9 c 0
 162.649414062 -9 109.877929688 16 101.104492188 54 c 0
 93.486328125 87 132.407226562 109 195.407226562 109 c 0
 250.407226562 109 309.024414062 89 377.412109375 57 c 1
 431.408203125 96 472.092773438 171 523.618164062 303 c 0
 558.071289062 392 599.6796875 463 652.750976562 519 c 1
 574.8203125 601 450.353515625 655 341.353515625 655 c 0
 145.353515625 655 58.5166015625 559 90.1455078125 422 c 0
 108.153320312 344 188.62109375 277 287.62109375 277 c 0
 407.62109375 277 485.075195312 353 443.364257812 538 c 1
 462.364257812 538 l 1
 467.828125 523 471.059570312 509 474.291992188 495 c 0
 515.155273438 318 390.546875 247 296.546875 247 c 0
 180.546875 247 72.9248046875 319 47.298828125 430 c 0
 13.3603515625 577 135.96484375 687 326.96484375 687 c 0
 457.96484375 687 587.35546875 629 677.209960938 543 c 1
 706.438476562 568 715.284179688 573 752.051757812 587 c 1
756 336 m 0
 744.225585938 387 719.913085938 436 685.754882812 480 c 1
 657.991210938 427 639.997070312 362 623.849609375 302 c 0
 598.782226562 207 553.482421875 126 481.873046875 68 c 0
 466.643554688 56 452.182617188 45 436.260742188 36 c 1
 474.03125 24 512.877929688 16 551.877929688 16 c 0
 696.877929688 16 802.404296875 135 756 336 c 0
344.567382812 39 m 1
 289.565429688 65 249.333007812 79 203.333007812 79 c 0
 184.333007812 79 137.256835938 75 142.104492188 54 c 0
 147.18359375 32 178.723632812 21 236.723632812 21 c 0
 279.723632812 21 314.569335938 26 344.567382812 39 c 1
EndSplineSet
EndChar

StartChar: Dcaron
Encoding: 270 270 106
Width: 690
Flags: W
HStem: -15 30<336.812 486.504> 234 42<389.455 525.493> 329 59<388.764 472.555> 401 31<211.121 309.837 388.225 476.477> 621 37<502.378 626.174> 657 30<145.818 311.128>
VStem: 302.946 22.3857<98 143.458>
LayerCount: 4
Fore
SplineSet
346.66015625 658 m 1xfa
 340.81640625 640 l 1
 298.353515625 655 281.891601562 657 226.891601562 657 c 0xf6
 129.891601562 657 77.7421875 610 92.517578125 546 c 0
 109.6015625 472 206.836914062 432 309.836914062 432 c 1
 290.438476562 568 436.66015625 658 559.66015625 658 c 0xfa
 623.66015625 658 665.432617188 633 676.513671875 585 c 0
 694.983398438 505 569.9921875 414 388.224609375 400 c 1
 390.609375 394 392.071289062 392 394.995117188 388 c 0
 442.45703125 386 472.534179688 377 477.151367188 357 c 0
 481.538085938 338 465.616210938 329 441.616210938 329 c 0
 420.616210938 329 403.461914062 334 385.383789062 343 c 1
 272.771484375 311 218.780273438 220 238.635742188 134 c 0
 252.71875 73 318.108398438 15 410.108398438 15 c 0
 477.108398438 15 522.106445312 41 545.256835938 75 c 0
 563.25390625 101 567.328125 131 560.6328125 160 c 0
 550.012695312 206 508.548828125 234 456.548828125 234 c 0
 387.548828125 234 329.708007812 177 325.33203125 92 c 1
 302.946289062 98 l 1
 305.012695312 206 365.852539062 276 463.852539062 276 c 0
 554.852539062 276 609.165039062 227 624.40234375 161 c 0
 645.1796875 71 544.03515625 -15 407.03515625 -15 c 0
 292.03515625 -15 177.64453125 43 152.017578125 154 c 0
 128.23828125 257 193.229492188 348 337.072265625 379 c 1
 336.611328125 381 l 1
 330.45703125 386 325.993164062 401 320.993164062 401 c 0
 180.30078125 404 71.603515625 459 50.8251953125 549 c 0
 33.7412109375 623 92.96484375 687 207.96484375 687 c 0xf6
 256.96484375 687 291.888671875 683 346.66015625 658 c 1xfa
634.821289062 588 m 0
 630.204101562 608 604.202148438 621 575.202148438 621 c 0xfa
 480.202148438 621 373.520507812 520 381.298828125 430 c 1
 542.989257812 440 649.366210938 525 634.821289062 588 c 0
EndSplineSet
EndChar

StartChar: dcaron
Encoding: 271 271 107
Width: 769
Flags: W
HStem: 0 31<188.693 330.529> 94 86<134.794 168.414> 294 58<566.482 671.62> 349 30<217.294 346.319> 574 50<568.797 764.699> 634 46<206.569 452.59>
VStem: 95.8691 105.382<96.8994 164.783> 422.363 20.2305<495.499 554> 671.62 48.8438<226.423 294>
LayerCount: 4
Fore
SplineSet
821.66015625 662 m 1xdf80
 836.123046875 647 l 1
 799.666015625 610 741.9765625 574 676.9765625 574 c 0
 567.9765625 574 407.125 634 314.125 634 c 0
 189.125 634 124.284179688 577 144.138671875 491 c 0
 162.608398438 411 224.99609375 379 276.99609375 379 c 0
 374.99609375 379 412.451171875 442 422.36328125 555 c 1
 442.59375 554 l 1
 447.76171875 419 393.921875 349 280.921875 349 c 0
 205.921875 349 124.37890625 399 104.754882812 484 c 0
 92.5185546875 537 106.899414062 583 138.280273438 616 c 0
 178.583984375 658 249.504882812 680 350.504882812 680 c 0
 460.504882812 680 617.43359375 624 717.43359375 624 c 0
 759.43359375 624 793.046875 643 821.66015625 662 c 1xdf80
604.362304688 568 m 1
 621.59375 554 l 1
 583.67578125 506 573.529296875 433 564.692382812 337 c 1
 602.845703125 345 641.4609375 351 682.229492188 352 c 1
 699.225585938 391 728.0703125 409 747.0703125 409 c 0
 759.0703125 409 771.455078125 403 775.149414062 387 c 0
 779.536132812 368 759.616210938 333 720.463867188 312 c 1
 717.54296875 290 721.9296875 271 726.31640625 252 c 0
 727.701171875 246 731.241210938 235 735.319335938 226 c 1
 680.936523438 206 l 1
 676.780273438 224 l 2
 672.163085938 244 669.853515625 267 671.620117188 294 c 1xef80
 650.850585938 293 610.3125 291 559.390625 282 c 1
 530.1796875 75 413.495117188 0 270.495117188 0 c 0
 200.495117188 0 113.876953125 33 95.869140625 111 c 0
 85.94140625 154 104.938476562 180 139.938476562 180 c 0
 166.938476562 180 195.017578125 158 201.250976562 131 c 0
 207.25390625 105 196.794921875 81 168.794921875 81 c 0
 160.794921875 81 145.102539062 84 136.793945312 94 c 1
 134.793945312 94 l 1
 147.874023438 59 196.337890625 31 255.337890625 31 c 0
 352.337890625 31 409.487304688 78 456.392578125 256 c 1
 403.548828125 238 348.782226562 211 299.016601562 171 c 1
 282.553710938 186 l 1
 310.703125 233 383.313476562 278 469.92578125 310 c 1
 472.6171875 320 474.30859375 330 476.76953125 341 c 0
 497.14453125 439 540.061523438 500 604.362304688 568 c 1
EndSplineSet
EndChar

StartChar: Dcroat
Encoding: 272 272 108
Width: 673
Flags: W
HStem: -15 31<249.956 403.455> 79 85<181.333 214.772> 165 30<353.804 468.934> 390 30<341.607 455.841> 632 37<506.188 626.527> 657 30<141.269 298.98>
VStem: 142.64 104.921<79.6574 148.532>
LayerCount: 4
Fore
SplineSet
343.814453125 653 m 1xf6
 338.970703125 635 l 1
 297.045898438 652 257.891601562 657 222.891601562 657 c 0xf6
 118.891601562 657 62.3583984375 603 76.671875 541 c 0
 90.0625 483 151.989257812 440 241.759765625 428 c 1
 302.66796875 580 449.12109375 669 560.12109375 669 c 0xfa
 616.12109375 669 669.354492188 642 680.666992188 593 c 0
 704.446289062 490 529.533203125 390 330.533203125 390 c 1
 309.383789062 343 312.158203125 292 319.083984375 262 c 0
 327.625976562 225 356.552734375 195 400.552734375 195 c 0
 472.552734375 195 542.163085938 240 634.69140625 346 c 1
 653.384765625 330 l 1
 628.7734375 298 622.853515625 263 615.3203125 209 c 0
 595.48828125 61 504.03515625 -15 337.03515625 -15 c 0
 238.03515625 -15 155.567382812 39 142.639648438 95 c 0
 133.635742188 134 150.708984375 164 185.708984375 164 c 0
 212.708984375 164 241.788085938 142 247.560546875 117 c 0
 253.793945312 90 243.333984375 66 215.333984375 66 c 0
 203.333984375 66 191.641601562 69 183.333007812 79 c 1
 181.333007812 79 l 1
 194.490234375 48 256.877929688 16 319.877929688 16 c 0
 442.877929688 16 495.024414062 89 529.55078125 208 c 1
 528.3203125 209 l 1
 490.24609375 179 447.478515625 165 400.478515625 165 c 0
 322.478515625 165 252.396484375 213 234.158203125 292 c 0
 227.694335938 320 225.766601562 363 235.686523438 398 c 1
 131.76171875 415 53.6796875 463 35.671875 541 c 0
 16.9716796875 622 89.96484375 687 208.96484375 687 c 0
 253.96484375 687 298.274414062 677 343.814453125 653 c 1xf6
640.359375 590 m 0
 633.895507812 618 604.663085938 632 573.663085938 632 c 0xfa
 487.663085938 632 379.288085938 534 341.607421875 420 c 1
 512.607421875 420 658.3671875 512 640.359375 590 c 0
EndSplineSet
EndChar

StartChar: dcroat
Encoding: 273 273 109
Width: 897
Flags: W
HStem: -12 30<157.629 222.677 589.251 660.692> 410 30<191.818 300.337> 557 50<412.416 529.229> 635 52<166.791 314.695> 657 30<831.689 886.228>
VStem: 350.135 20.0781<505.087 520.138>
LayerCount: 4
Fore
SplineSet
638.275390625 664 m 1xf4
 623.5078125 650 l 2
 549.66796875 580 502.831054688 484 463.076171875 340 c 1
 497.3828125 356 533.3046875 365 569.072265625 379 c 1
 576.609375 394 584.377929688 408 592.145507812 422 c 0
 691.205078125 595 793.96484375 687 852.96484375 687 c 0xec
 883.96484375 687 913.197265625 673 921.508789062 637 c 0
 946.904296875 527 809.604492188 446 675.225585938 387 c 1
 613.162109375 253 564.71484375 112 578.3359375 53 c 0
 583.18359375 32 601.416015625 18 620.416015625 18 c 0
 659.416015625 18 704.795898438 64 757.633789062 147 c 1
 781.635742188 134 l 1
 727.64453125 43 674.341796875 -12 613.341796875 -12 c 0
 561.341796875 -12 518.723632812 21 505.794921875 77 c 0
 487.787109375 155 513.931640625 254 549.307617188 339 c 1
 514.5390625 325 483.541015625 312 451.7734375 298 c 1
 410.7109375 151 330.18359375 32 244.495117188 -4 c 0
 227.111328125 -11 209.03515625 -15 191.03515625 -15 c 0
 158.03515625 -15 128.494140625 9 120.182617188 45 c 0
 95.94140625 150 213.471679688 230 346.158203125 292 c 1
 376.150390625 370 399.98828125 453 495.747070312 558 c 1
 488.978515625 557 480.978515625 557 475.978515625 557 c 0
 435.978515625 557 401.514648438 572 341.8203125 601 c 0
 300.202148438 621 259.970703125 635 231.970703125 635 c 0
 167.970703125 635 127.051757812 587 139.288085938 534 c 0
 151.29296875 482 185.989257812 440 248.989257812 440 c 0
 301.989257812 440 329.37109375 473 350.134765625 526 c 1
 370.212890625 517 l 1
 352.219726562 452 320.916015625 410 253.916015625 410 c 0
 173.916015625 410 114.91015625 462 97.826171875 536 c 0
 80.51171875 611 133.96484375 687 237.96484375 687 c 0
 277.96484375 687 314.197265625 673 391.27734375 638 c 0
 430.43359375 620 462.434570312 607 484.434570312 607 c 0
 505.434570312 607 525.434570312 607 560.047851562 626 c 0
 581.27734375 638 601.967773438 661 623.04296875 678 c 1
 638.275390625 664 l 1xf4
888.970703125 635 m 0xf4
 885.73828125 649 874.891601562 657 859.891601562 657 c 0xec
 821.891601562 657 755.670898438 554 697.375 434 c 1
 815.984375 492 906.28515625 560 888.970703125 635 c 0xf4
328.932617188 241 m 1
 215.323242188 183 135.8671875 120 153.413085938 44 c 0
 158.03125 24 171.646484375 17 184.108398438 15 c 0
 245.108398438 15 296.633789062 147 328.932617188 241 c 1
EndSplineSet
EndChar

StartChar: Emacron
Encoding: 274 274 110
Width: 746
Flags: W
HStem: -15 31<188.226 353.344> 95 84<115.254 149.643> 330 32<477.376 520 624.227 648.386> 603 72<716.341 805.386> 604 52<470.095 665.471>
VStem: 726.371 18.3086<449.546 460.823>
LayerCount: 4
Fore
SplineSet
117.25390625 95 m 1xf4
 115.25390625 95 l 1
 121.256835938 69 182.4921875 16 253.4921875 16 c 0
 378.4921875 16 462.103515625 61 506.62109375 271 c 0
 510.7734375 292 515.155273438 312 520 330 c 1
 444.537109375 345 381.455078125 393 363.447265625 471 c 0
 348.44140625 536 374.897460938 586 415.971679688 616 c 0
 462.353515625 649 529.737304688 656 589.737304688 656 c 0xec
 642.737304688 656 683.891601562 651 709.583984375 648 c 1
 738.274414062 671 769.350585938 675 779.350585938 675 c 0
 795.350585938 675 810.197265625 667 812.967773438 655 c 0
 824.51171875 605 743.97265625 603 715.97265625 603 c 1
 670.9765625 564 647.140625 468 624.2265625 368 c 1
 669.225585938 381 703.299804688 411 726.37109375 467 c 1
 744.6796875 457 l 1
 725.37890625 389 678.844726562 348 616.307617188 333 c 1
 595.624023438 245 573.478515625 159 535.71484375 106 c 0
 471.03125 18 380.649414062 -15 278.649414062 -15 c 0
 172.649414062 -15 92.720703125 41 77.4833984375 107 c 0
 67.787109375 149 86.861328125 179 119.861328125 179 c 0
 147.861328125 179 175.248046875 160 181.942382812 131 c 0
 187.71484375 106 178.024414062 83 150.024414062 83 c 0
 142.024414062 83 125.5625 85 117.25390625 95 c 1xf4
666.434570312 601 m 1
 665.97265625 603 l 1xf4
 650.7421875 604 632.7421875 604 612.7421875 604 c 0
 562.7421875 604 504.666015625 600 464.283203125 580 c 0
 423.900390625 560 393.828125 517 406.525390625 462 c 0
 415.759765625 422 455.534179688 371 528.612304688 362 c 1
 560.524414062 475 598.901367188 547 666.434570312 601 c 1
EndSplineSet
EndChar

StartChar: emacron
Encoding: 275 275 111
Width: 662
Flags: W
HStem: -177 30<145.987 234.368> 608 52<376.721 556.465 587.074 669.153>
VStem: 616.556 18.5391<449.522 460.153>
LayerCount: 4
Fore
SplineSet
564.813476562 193 m 1
 583.506835938 177 l 1
 548.510742188 138 504.129882812 105 453.747070312 85 c 1
 418.913085938 -37 316.234375 -177 185.234375 -177 c 0
 137.234375 -177 101.231445312 -151 92.2275390625 -112 c 0
 81.376953125 -65 110.526367188 -18 186.291992188 22 c 0
 232.750976562 46 298.364257812 65 361.515625 86 c 1
 381.893554688 158 389.499023438 255 407.953125 331 c 1
 334.721679688 345 273.793945312 388 256.248046875 464 c 0
 224.387695312 602 365.998046875 660 479.998046875 660 c 0
 547.998046875 660 566.690429688 657 608.3828125 654 c 1
 639.765625 674 656.765625 674 669.765625 674 c 0
 680.765625 674 695.612304688 666 698.3828125 654 c 0
 708.310546875 611 649.46484375 606 605.46484375 606 c 1
 559.46875 567 531.09375 469 508.873046875 366 c 1
 556.102539062 378 591.9453125 409 616.555664062 467 c 1
 635.094726562 456 l 1
 615.255859375 386 566.721679688 345 501.72265625 332 c 1
 486.576171875 259 474.66015625 185 462.743164062 124 c 1
 499.280273438 139 533.663085938 159 564.813476562 193 c 1
556.6953125 605 m 1
 556.46484375 606 l 1
 543.233398438 607 528.002929688 608 513.002929688 608 c 0
 467.002929688 608 415.387695312 602 386.927734375 591 c 0
 333.775390625 570 283.857421875 522 299.556640625 454 c 0
 311.561523438 402 365.334960938 364 416.565429688 363 c 1
 443.940429688 461 484.240234375 542 556.6953125 605 c 1
349.443359375 43 m 1
 293.060546875 23 238.29296875 9 199.372070312 -13 c 0
 133.68359375 -49 128.225585938 -86 133.766601562 -110 c 0
 138.15234375 -129 156.30859375 -147 178.30859375 -147 c 0
 263.30859375 -147 312.993164062 -72 349.443359375 43 c 1
EndSplineSet
EndChar

StartChar: Ebreve
Encoding: 276 276 112
Width: 929
Flags: W
HStem: -12 30<182.478 318.178 685.25 755.896> 79 86<135.275 167.908> 306 54<561.787 605.953> 401 30<269.972 385.224> 548 50<483.494 606.448> 626 52<237.334 385.773> 646 41<835.349 854.414>
VStem: 96.5625 104.459<80.9106 150.032> 441.213 20.0781<496.087 511.138>
LayerCount: 4
Fore
SplineSet
694.12109375 669 m 1xfd80
 710.814453125 653 l 1
 622.514648438 572 597.987304688 466 561.458984375 360 c 1
 576.458984375 360 590.920898438 358 606.69140625 346 c 1
 646.61328125 355 670.91796875 384 709.833007812 471 c 0
 771.434570312 607 818.96484375 687 871.96484375 687 c 0
 899.96484375 687 925.966796875 674 932.430664062 646 c 0
 938.202148438 621 928.8203125 601 900.8203125 601 c 0
 882.8203125 601 854.049804688 613 845.430664062 646 c 1
 844.430664062 646 l 1xfb80
 828.893554688 631 821.74609375 571 806.05859375 522 c 0
 766.993164062 401 718.767578125 350 641.000976562 323 c 1
 641.462890625 321 l 1
 683.3125 287 702.853515625 263 710.010742188 232 c 0
 725.708984375 164 666.100585938 93 675.56640625 52 c 0
 680.415039062 31 695.416015625 18 715.416015625 18 c 0
 754.416015625 18 800.2578125 62 854.633789062 147 c 1
 877.096679688 132 l 1
 824.106445312 41 769.341796875 -12 708.341796875 -12 c 0
 661.341796875 -12 607.723632812 21 596.411132812 70 c 0
 578.171875 149 648.858398438 211 634.083007812 275 c 0
 632.004882812 284 625.92578125 306 586.92578125 306 c 0
 566.92578125 306 558.002929688 310 549.462890625 321 c 1
 486.875 42 382.03515625 -15 264.03515625 -15 c 0
 177.03515625 -15 109.029296875 37 96.5625 91 c 0
 87.7900390625 129 102.478515625 165 142.478515625 165 c 0
 168.478515625 165 194.327148438 144 201.021484375 115 c 0
 206.793945312 90 196.333984375 66 168.333984375 66 c 0
 159.333984375 66 144.641601562 69 136.333007812 79 c 1
 134.333007812 79 l 1
 145.490234375 48 194.877929688 16 254.877929688 16 c 0
 337.877929688 16 375.025390625 76 420.08984375 210 c 0
 469.690429688 359 483.912109375 449 583.59375 550 c 1
 581.901367188 553 l 1
 573.59375 550 557.055664062 548 547.055664062 548 c 0
 507.055664062 548 472.592773438 563 412.897460938 592 c 0
 371.280273438 612 331.047851562 626 303.047851562 626 c 0
 239.047851562 626 196.129882812 578 208.366210938 525 c 0
 220.37109375 473 267.067382812 431 330.067382812 431 c 0
 383.067382812 431 420.44921875 464 441.212890625 517 c 1
 461.291015625 508 l 1
 443.296875 443 401.993164062 401 334.993164062 401 c 0
 254.993164062 401 183.98828125 453 166.904296875 527 c 0
 149.588867188 602 205.04296875 678 309.04296875 678 c 0
 349.04296875 678 385.275390625 664 462.35546875 629 c 0
 501.51171875 611 533.512695312 598 555.512695312 598 c 0
 599.512695312 598 655.509765625 624 694.12109375 669 c 1xfd80
EndSplineSet
EndChar

StartChar: ebreve
Encoding: 277 277 113
Width: 866
Flags: W
HStem: -9 30<152.817 334.498 451.717 647.367> 79 30<141.916 271.242> 312 30<353.151 522.849> 632 37<727.116 818.761> 657 30<287.008 467.613>
LayerCount: 4
Fore
SplineSet
537.123046875 643 m 1xe8
 529.509765625 624 l 1
 466.891601562 657 411.891601562 657 376.891601562 657 c 0xe8
 271.891601562 657 167.358398438 603 191.137695312 500 c 0
 214.455078125 399 327.615234375 342 469.615234375 342 c 0
 487.615234375 342 502.383789062 343 531.4609375 347 c 1
 550.684570312 411 561.91015625 462 580.751953125 506 c 0
 613.206054688 582 690.12109375 669 771.12109375 669 c 0xf0
 830.12109375 669 862.201171875 634 873.051757812 587 c 0
 893.368164062 499 795.611328125 381 627.692382812 333 c 1
 596.62890625 199 518.71875 73 440.567382812 39 c 1
 482.569335938 26 521.877929688 16 548.877929688 16 c 0
 644.877929688 16 721.02734375 63 781.787109375 155 c 1
 804.01953125 141 l 1
 740.260742188 36 656.03515625 -15 559.03515625 -15 c 0
 483.03515625 -15 431.571289062 0 388.108398438 15 c 1
 344.802734375 -1 296.649414062 -9 238.649414062 -9 c 0
 156.649414062 -9 107.5703125 13 98.56640625 52 c 0
 91.640625 82 126.407226562 109 193.407226562 109 c 0
 253.407226562 109 314.87109375 81 377.950195312 59 c 1
 423.100585938 93 485.783203125 194 522.848632812 315 c 1
 506.309570312 313 487.541015625 312 470.541015625 312 c 0
 346.541015625 312 182.228515625 361 149.213867188 504 c 0
 125.204101562 608 218.96484375 687 361.96484375 687 c 0
 404.96484375 687 471.350585938 681 537.123046875 643 c 1xe8
831.821289062 588 m 0
 825.587890625 615 804.663085938 632 772.663085938 632 c 0xf0
 691.663085938 632 649.0625 483 635.381835938 369 c 1
 667.303710938 378 699.37890625 395 728.9921875 414 c 0
 795.295898438 456 847.520507812 520 831.821289062 588 c 0
335.491210938 35 m 1
 335.260742188 36 l 1
 270.641601562 69 231.333007812 79 200.333007812 79 c 0
 181.333007812 79 134.256835938 75 139.104492188 54 c 0
 144.18359375 32 175.723632812 21 233.723632812 21 c 0
 272.723632812 21 307.03125 24 335.491210938 35 c 1
EndSplineSet
EndChar

StartChar: Edotaccent
Encoding: 278 278 114
Width: 1072
Flags: W
HStem: -12 30<157.764 244.305 810.476 881.97> 36 92<155.76 189.992>
VStem: 99.5264 107.999<36.2444 110.814>
LayerCount: 4
Fore
SplineSet
968.927734375 672 m 1
 979.928710938 659 l 1
 858.651367188 357 787.213867188 112 800.834960938 53 c 0
 806.606445312 28 823.915039062 18 841.915039062 18 c 0
 881.915039062 18 928.602539062 67 981.440429688 150 c 1
 1004.13476562 134 l 1
 950.143554688 43 896.841796875 -12 834.841796875 -12 c 0
 786.841796875 -12 741.915039062 18 729.91015625 70 c 0
 704.74609375 179 772.111328125 368 907.931640625 633 c 1
 906.469726562 635 l 1
 827.857421875 603 755.407226562 488 669.740234375 231 c 0
 618.293945312 77 592.994140625 -4 510.994140625 -4 c 0
 476.994140625 -4 448.530273438 24 438.833984375 66 c 0
 420.826171875 144 472.197265625 281 510.95703125 373 c 0
 545.026367188 455 591.168945312 567 640.623046875 643 c 1
 639.391601562 644 l 1
 572.318359375 614 501.790039062 508 457.416015625 397 c 0
 352.596679688 132 314.534179688 -15 197.534179688 -15 c 0
 151.534179688 -15 109.454101562 20 99.5263671875 63 c 0
 90.7529296875 101 111.51953125 128 143.51953125 128 c 0
 174.51953125 128 201.522460938 102 207.525390625 76 c 0
 212.604492188 54 201.68359375 32 174.68359375 32 c 0
 169.68359375 32 164.452148438 33 158.759765625 36 c 2
 155.759765625 36 l 1
 160.9921875 22 177.608398438 15 191.608398438 15 c 0
 259.608398438 15 299.063476562 78 362.354492188 250 c 0
 485.782226562 586 573.465820312 674 682.465820312 674 c 0
 686.465820312 674 689.465820312 674 699.927734375 672 c 1
 717.698242188 660 l 1
 622.640625 461 543.6640625 227 520.829101562 118 c 0
 519.67578125 110 513.063476562 78 517.911132812 57 c 0
 520.220703125 47 524.067382812 39 535.067382812 39 c 0
 561.067382812 39 578.37109375 81 599.134765625 134 c 0
 670.885742188 317 747.46875 648 940.465820312 674 c 0
 948.465820312 674 956.465820312 674 968.927734375 672 c 1
EndSplineSet
EndChar

StartChar: edotaccent
Encoding: 279 279 115
Width: 770
Flags: W
HStem: -15 29<161.776 234.799> 36 92<157.261 192.044> 640 47<773.672 806.19>
VStem: 101.258 107.537<37.5074 111.35>
LayerCount: 4
Fore
SplineSet
616.328125 131 m 1
 617.328125 131 l 1
 640.091796875 184 659.620117188 290 678.609375 394 c 0
 697.291992188 495 720.512695312 598 757.5078125 650 c 0
 774.735351562 675 793.96484375 687 822.96484375 687 c 0
 852.96484375 687 878.889648438 670 885.584960938 641 c 0
 892.049804688 613 877.205078125 595 853.205078125 595 c 0
 835.205078125 595 803.204101562 608 795.81640625 640 c 1
 792.81640625 640 l 1
 762.971679688 622 736.826171875 536 705.766601562 363 c 0
 681.625976562 225 650.795898438 64 576.573242188 -13 c 1
 556.573242188 -13 l 1
 558.02734375 63 544.40234375 161 517.00390625 297 c 0
 496.224609375 400 479.907226562 501 482.82421875 562 c 1
 481.592773438 563 l 1
 458.982421875 518 424.9140625 423 395.848632812 315 c 0
 333.178710938 84 287.03515625 -15 199.03515625 -15 c 0
 153.03515625 -15 110.954101562 20 101.2578125 62 c 0
 92.25390625 101 113.020507812 128 145.020507812 128 c 0
 176.020507812 128 202.791992188 103 208.794921875 77 c 0
 213.874023438 55 203.18359375 32 177.18359375 32 c 0
 172.18359375 32 165.953125 33 160.260742188 36 c 2
 157.260742188 36 l 1
 162.4921875 22 179.33984375 14 193.33984375 14 c 0
 268.33984375 14 314.790039062 129 362.541015625 312 c 0
 417.2890625 521 474.123046875 643 532.12109375 669 c 1
 547.66015625 658 l 1
 544.587890625 615 559.596679688 524 583.302734375 391 c 0
 601.388671875 291 613.936523438 202 616.328125 131 c 1
EndSplineSet
EndChar

StartChar: Eogonek
Encoding: 280 280 116
Width: 642
Flags: W
HStem: -15 30<271.067 406.126> 506 36<397.9 510.085> 645 35<376.035 515.865>
LayerCount: 4
Fore
SplineSet
613.016601562 549 m 1
 593.478515625 547 l 1
 562.549804688 603 517.853515625 645 444.853515625 645 c 0
 274.853515625 645 142.115234375 332 184.133789062 150 c 0
 200.987304688 77 251.30078125 15 329.30078125 15 c 0
 415.30078125 15 473.604492188 57 518.521484375 118 c 0
 548.055664062 159 601.583984375 265 571.33984375 396 c 0
 554.255859375 470 499.944335938 506 453.944335938 506 c 0
 390.944335938 506 339.103515625 449 362.65234375 347 c 0
 368.423828125 322 379.2734375 288 413.893554688 242 c 1
 394.202148438 232 l 1
 350.197265625 284 336.346679688 331 329.189453125 362 c 0
 304.717773438 468 365.6328125 542 448.6328125 542 c 0
 512.6328125 542 597.868164062 502 622.33984375 396 c 0
 666.897460938 203 547.2265625 -15 338.2265625 -15 c 0
 222.2265625 -15 140.293945312 80 115.360351562 188 c 0
 56.2578125 444 202.7734375 680 440.7734375 680 c 0
 527.7734375 680 596.39453125 621 613.016601562 549 c 1
EndSplineSet
EndChar

StartChar: eogonek
Encoding: 281 281 117
Width: 710
Flags: W
HStem: -15 31<201.786 356.169> 95 84<128.64 163.028> 272 44<698.042 781.456> 282 30<249.133 372.028> 657 30<364.622 587.686>
VStem: 455.055 20<435.009 561>
LayerCount: 4
Fore
SplineSet
779.12109375 669 m 1xdc
 790.5078125 650 l 1
 767.046875 639 749.047851562 626 733.280273438 612 c 1
 795.514648438 572 844.443359375 516 860.374023438 447 c 0
 880.690429688 359 836.775390625 272 751.775390625 272 c 0
 702.775390625 272 672.387695312 304 664.538085938 338 c 0
 657.842773438 367 673.686523438 398 704.299804688 417 c 1
 718.455078125 399 l 1
 689.841796875 380 691.920898438 358 694.921875 345 c 0
 698.846679688 328 714.6171875 316 735.6171875 316 c 0xec
 791.6171875 316 814.379882812 382 795.217773438 465 c 0
 782.982421875 518 751.516601562 559 711.821289062 588 c 1
 660.05859375 522 651.221679688 426 617.849609375 302 c 0
 556.1796875 71 449.03515625 -15 292.03515625 -15 c 0
 186.03515625 -15 105.875 42 90.6376953125 108 c 0
 80.94140625 150 100.24609375 179 133.24609375 179 c 0
 161.24609375 179 188.6328125 160 195.328125 131 c 0
 201.099609375 106 191.409179688 83 163.409179688 83 c 0
 155.409179688 83 138.948242188 85 130.639648438 95 c 1
 128.639648438 95 l 1
 136.48828125 61 195.877929688 16 266.877929688 16 c 0
 391.877929688 16 444.1796875 71 510.006835938 271 c 0
 562.298828125 430 597.364257812 538 678.97265625 609 c 1
 617.123046875 643 541.891601562 657 475.891601562 657 c 0
 270.891601562 657 153.057617188 535 182.377929688 408 c 0
 195.075195312 353 250.541015625 312 307.541015625 312 c 0
 419.541015625 312 461.608398438 407 455.0546875 561 c 1
 475.0546875 561 l 1
 496.221679688 426 457.466796875 282 312.466796875 282 c 0
 229.466796875 282 158.692382812 333 140.454101562 412 c 0
 109.055664062 548 231.96484375 687 469.96484375 687 c 0
 548.96484375 687 633.813476562 666 704.586914062 628 c 1
 725.892578125 644 749.891601562 657 779.12109375 669 c 1xdc
EndSplineSet
EndChar

StartChar: Ecaron
Encoding: 282 282 118
Width: 692
Flags: W
HStem: -38 48<536.139 643.396> -15 30<268.412 408.549> 96 46<332.114 431.212> 506 36<395.245 507.43> 645 35<373.38 512.988>
LayerCount: 4
Fore
SplineSet
610.362304688 549 m 1x78
 590.82421875 547 l 1
 559.895507812 603 515.198242188 645 442.198242188 645 c 0
 272.198242188 645 139.4609375 332 181.478515625 150 c 0
 198.33203125 77 248.645507812 15 326.645507812 15 c 0x78
 376.645507812 15 417.413085938 29 451.873046875 53 c 1
 431.33203125 77 410.9453125 96 381.9453125 96 c 0
 356.9453125 96 336.561523438 89 312.640625 67 c 1
 295.715820312 84 l 1
 328.711914062 123 354.325195312 142 390.325195312 142 c 0
 437.325195312 142 465.55859375 115 489.25390625 86 c 1
 497.9453125 96 507.63671875 106 515.866210938 118 c 0
 545.400390625 159 598.928710938 265 568.684570312 396 c 0
 551.600585938 470 497.2890625 506 451.2890625 506 c 0
 388.2890625 506 336.44921875 449 359.997070312 347 c 0
 365.76953125 322 376.618164062 288 411.23828125 242 c 1
 391.546875 232 l 1
 347.541992188 284 333.69140625 331 326.534179688 362 c 0
 302.0625 468 362.978515625 542 445.978515625 542 c 0
 509.978515625 542 595.212890625 502 619.684570312 396 c 0
 649.004882812 269 607.865234375 131 516.103515625 52 c 1
 536.64453125 28 556.799804688 10 587.799804688 10 c 0
 614.799804688 10 650.798828125 23 678.71875 58 c 1
 696.950195312 44 l 1
 661.571289062 -15 617.881835938 -38 582.881835938 -38 c 0xb8
 533.881835938 -38 503.956054688 -8 476.798828125 23 c 1
 436.33984375 -1 388.571289062 -15 335.571289062 -15 c 0
 219.571289062 -15 137.639648438 80 112.705078125 188 c 0
 53.603515625 444 200.118164062 680 438.118164062 680 c 0
 524.118164062 680 593.739257812 621 610.362304688 549 c 1x78
EndSplineSet
EndChar

StartChar: ecaron
Encoding: 283 283 119
Width: 944
Flags: W
HStem: -12 30<193.051 353.735 749.25 821.114> 95 84<124.64 159.028> 282 30<245.133 371.44> 293 61<621.904 684.852> 657 30<360.622 583.686>
VStem: 451.979 20<431.937 557>
LayerCount: 4
Fore
SplineSet
775.12109375 669 m 1xec
 786.5078125 650 l 1
 763.046875 639 745.047851562 626 729.280273438 612 c 1
 792.360351562 577 832.366210938 525 844.37109375 473 c 0
 862.840820312 393 816.6171875 316 701.541015625 312 c 1xec
 702.002929688 310 l 1
 738.3125 287 768.23828125 257 775.395507812 226 c 0
 791.094726562 158 730.100585938 93 739.56640625 52 c 0
 744.415039062 31 759.416015625 18 779.416015625 18 c 0
 813.416015625 18 855.3359375 53 901.098632812 119 c 1
 921.791992188 103 l 1
 874.645507812 30 826.341796875 -12 772.341796875 -12 c 0
 725.341796875 -12 671.723632812 21 660.411132812 70 c 0
 642.171875 149 718.784179688 181 704.008789062 245 c 0
 701.931640625 254 690.927734375 293 659.927734375 293 c 0xdc
 648.927734375 293 623.00390625 297 610.387695312 304 c 1
 551.71875 73 445.03515625 -15 288.03515625 -15 c 0
 182.03515625 -15 101.875 42 86.6376953125 108 c 0
 76.94140625 150 96.24609375 179 129.24609375 179 c 0
 157.24609375 179 184.6328125 160 191.328125 131 c 0
 197.099609375 106 187.409179688 83 159.409179688 83 c 0
 151.409179688 83 134.948242188 85 126.639648438 95 c 1
 124.639648438 95 l 1
 132.48828125 61 191.877929688 16 262.877929688 16 c 0
 387.877929688 16 435.1796875 71 501.006835938 271 c 0
 553.298828125 430 593.364257812 538 674.97265625 609 c 1
 613.123046875 643 537.891601562 657 471.891601562 657 c 0
 266.891601562 657 149.057617188 535 178.377929688 408 c 0
 191.075195312 353 246.541015625 312 303.541015625 312 c 0
 415.541015625 312 458.532226562 403 451.978515625 557 c 1
 471.978515625 557 l 1
 493.991210938 427 446.466796875 282 308.466796875 282 c 0
 225.466796875 282 154.692382812 333 136.454101562 412 c 0
 105.055664062 548 227.96484375 687 465.96484375 687 c 0
 544.96484375 687 629.813476562 666 700.586914062 628 c 1
 721.892578125 644 745.891601562 657 775.12109375 669 c 1xec
779.370117188 486 m 0
 770.366210938 525 746.82421875 562 707.821289062 588 c 1
 662.98046875 531 646.98828125 453 621.844726562 354 c 1xdc
 644.844726562 354 666.229492188 348 685.76953125 337 c 1
 763.921875 345 795.299804688 417 779.370117188 486 c 0
EndSplineSet
EndChar

StartChar: Gcircumflex
Encoding: 284 284 120
Width: 643
Flags: W
HStem: -15 30<274.257 419.496> 256 43<203.398 327.305> 435 21<535.336 569.424> 644 36<418.316 563.736>
LayerCount: 4
Fore
SplineSet
440.75 143 m 1
 421.672851562 139 l 1
 366.431640625 244 312.661132812 256 258.661132812 256 c 0
 210.661132812 256 156.819335938 212 174.134765625 137 c 0
 190.295898438 67 265.30078125 15 345.30078125 15 c 0
 438.30078125 15 524.448242188 75 497.66796875 191 c 0
 473.196289062 297 306.268554688 340 275.793945312 472 c 0
 242.779296875 615 373.7734375 680 480.7734375 680 c 0
 546.7734375 680 628.161132812 648 647.553710938 564 c 0
 664.407226562 491 603.3359375 435 535.3359375 435 c 1
 530.487304688 456 l 1
 590.102539062 462 629.329101562 500 614.78515625 563 c 0
 600.702148438 624 541.084960938 644 488.084960938 644 c 0
 411.084960938 644 327.3984375 582 348.407226562 491 c 0
 373.802734375 381 546.192382812 336 576.666992188 204 c 0
 607.833984375 69 498.2265625 -15 344.2265625 -15 c 0
 247.2265625 -15 137.068359375 29 110.98046875 142 c 0
 87.8935546875 242 159.734375 299 241.734375 299 c 0
 316.734375 299 402.584960938 252 440.75 143 c 1
EndSplineSet
EndChar

StartChar: gcircumflex
Encoding: 285 285 121
Width: 712
Flags: W
HStem: -15 31<192.588 334.694> 79 86<137.333 169.724> 329 30<219.002 347.053> 584 50<564.772 761.444> 641 46<218.753 454.004>
VStem: 99.5625 104.229<79.9219 149.357> 428.672 20<482.243 541>
LayerCount: 4
Fore
SplineSet
817.735351562 675 m 1
 832.891601562 657 l 1
 796.43359375 620 738.745117188 584 673.745117188 584 c 0
 564.745117188 584 404.584960938 641 311.584960938 641 c 0
 186.584960938 641 115.900390625 566 135.754882812 480 c 0
 154.224609375 400 218.690429688 359 280.690429688 359 c 0
 378.690429688 359 418.759765625 428 428.671875 541 c 1
 448.671875 541 l 1
 453.838867188 406 393.616210938 329 280.616210938 329 c 0
 198.616210938 329 117.149414062 383 96.37109375 473 c 0
 66.5888671875 602 177.96484375 687 357.96484375 687 c 0
 467.96484375 687 614.201171875 634 714.201171875 634 c 0
 756.201171875 634 789.814453125 653 817.735351562 675 c 1
607.901367188 553 m 1
 624.133789062 539 l 1
 583.138671875 487 570.223632812 413 564.387695312 304 c 0
 558.859375 198 517.25390625 101 445.182617188 45 c 0
 396.956054688 7 344.03515625 -15 272.03515625 -15 c 0
 191.03515625 -15 113.415039062 31 99.5625 91 c 0
 88.4814453125 139 108.478515625 165 143.478515625 165 c 0
 170.478515625 165 197.557617188 143 203.791015625 116 c 0
 209.793945312 90 198.103515625 67 170.103515625 67 c 0
 162.103515625 67 147.641601562 69 139.333007812 79 c 1
 137.333007812 79 l 1
 149.413085938 44 194.877929688 16 257.877929688 16 c 0
 368.877929688 16 421.87109375 81 467.62109375 277 c 0
 501.9140625 423 543.600585938 485 607.901367188 553 c 1
EndSplineSet
EndChar

StartChar: Gbreve
Encoding: 286 286 122
Width: 792
Flags: W
HStem: -12 30<280.082 358.396 566.979 639.557> 360 30<91.3457 195.304> 652 35<126.395 284.057>
VStem: 249.06 20<464.294 509>
LayerCount: 4
Fore
SplineSet
730.66015625 658 m 1
 561.637695312 108 l 2
 552.564453125 78 555.719726562 60 557.3359375 53 c 0
 563.107421875 28 580.416015625 18 598.416015625 18 c 0
 638.416015625 18 683.795898438 64 736.633789062 147 c 1
 760.635742188 134 l 1
 706.64453125 43 654.341796875 -12 591.341796875 -12 c 0
 543.341796875 -12 498.416015625 18 487.333984375 66 c 0
 483.409179688 83 481.099609375 106 487.942382812 137 c 1
 484.711914062 138 l 1
 436.106445312 41 371.03515625 -15 315.03515625 -15 c 0
 267.03515625 -15 226.185546875 19 213.71875 73 c 0
 204.9453125 111 210.787109375 155 245.163085938 240 c 2
 337.755859375 467 l 2
 356.3671875 512 356.44140625 542 350.438476562 568 c 0
 338.895507812 618 267.045898438 652 210.045898438 652 c 0
 102.045898438 652 20.2060546875 582 45.140625 474 c 0
 56.2216796875 426 91.533203125 390 137.533203125 390 c 0
 212.533203125 390 240.989257812 440 249.059570312 509 c 1
 269.059570312 509 l 1
 270.296875 443 232.458984375 360 145.458984375 360 c 0
 78.458984375 360 19.8388671875 406 4.140625 474 c 0
 -24.2568359375 597 82.96484375 687 210.96484375 687 c 0
 301.96484375 687 401.27734375 638 423.671875 541 c 0
 431.521484375 507 433.6796875 463 414.299804688 417 c 2
 294.55859375 130 l 2
 276.716796875 86 271.950195312 59 275.64453125 43 c 0
 278.876953125 29 289.108398438 15 311.108398438 15 c 0
 423.108398438 15 541.155273438 318 570.76171875 415 c 2
 644.66015625 658 l 1
 730.66015625 658 l 1
EndSplineSet
EndChar

StartChar: gbreve
Encoding: 287 287 123
Width: 742
Flags: W
HStem: 401 30<94.1928 209.031> 543 55<307.072 422.871> 626 52<61.7338 202.66> 646 41<743.673 770.886>
VStem: 265.213 18.0781<499.013 511.485>
LayerCount: 4
Fore
SplineSet
286.723632812 21 m 1xe8
 289.185546875 19 l 1
 429.028320312 50 503.9375 189 592.916992188 397 c 0
 668.284179688 573 719.96484375 687 790.96484375 687 c 0
 818.96484375 687 845.3515625 668 851.81640625 640 c 0
 857.587890625 615 841.743164062 597 818.743164062 597 c 0
 792.743164062 597 770.818359375 614 763.430664062 646 c 1
 762.430664062 646 l 1xd8
 733.817382812 627 691.1328125 552 622.6875 385 c 0
 559.471679688 230 499.020507812 128 444.794921875 77 c 0
 384.185546875 19 327.03515625 -15 262.03515625 -15 c 0
 256.03515625 -15 248.03515625 -15 213.649414062 -9 c 1
 258.64453125 43 271.100585938 93 298.083984375 262 c 0
 317.91796875 384 356.603515625 459 425.749023438 545 c 1
 422.055664062 548 l 1
 413.749023438 545 397.209960938 543 387.209960938 543 c 0
 290.209960938 543 196.047851562 626 127.047851562 626 c 0
 63.0478515625 626 20.1298828125 578 32.3662109375 525 c 0
 44.37109375 473 92.0673828125 431 154.067382812 431 c 0
 207.067382812 431 244.44921875 464 265.212890625 517 c 1
 283.291015625 508 l 1
 265.296875 443 225.993164062 401 158.993164062 401 c 0
 78.9931640625 401 7.98828125 453 -9.095703125 527 c 0
 -26.4111328125 602 42.04296875 678 139.04296875 678 c 0
 179.04296875 678 209.275390625 664 286.35546875 629 c 0
 325.51171875 611 357.512695312 598 379.512695312 598 c 0
 415.512695312 598 459.049804688 613 492.200195312 647 c 2
 514.12109375 669 l 1
 532.583984375 654 l 1
 453.671875 541 437.372070312 460 418.4609375 347 c 0
 395.08984375 210 347.793945312 90 286.723632812 21 c 1xe8
EndSplineSet
EndChar

StartChar: Gdotaccent
Encoding: 288 288 124
Width: 888
Flags: W
HStem: -15 666<499.035 699.276> 401 30<88.6046 195.72> 543 55<297.849 402.871> 626 52<55.5225 190.31> 647 40<887.863 919.024>
VStem: 245.213 18.0781<499.013 511.485>
LayerCount: 4
Fore
SplineSet
527.03125 24 m 1x84
 529.4921875 22 l 1
 615.719726562 60 670.6328125 160 727.000976562 323 c 0
 824.126953125 604 863.96484375 687 938.96484375 687 c 0
 965.96484375 687 992.889648438 670 999.81640625 640 c 0
 1005.35644531 616 990.743164062 597 966.743164062 597 c 0
 940.743164062 597 919.818359375 614 912.200195312 647 c 1
 911.200195312 647 l 1x0c
 874.739257812 636 831.05859375 522 748.54296875 286 c 0
 686.407226562 109 605.03515625 -15 499.03515625 -15 c 0
 481.03515625 -15 466.03515625 -15 452.111328125 -11 c 1
 503.028320312 50 526.482421875 126 539.319335938 222 c 0
 560.91796875 384 603.368164062 499 685.587890625 615 c 1
 684.356445312 616 l 1
 603.8203125 601 538.989257812 440 494.387695312 304 c 0
 431.9453125 111 347.03515625 -15 242.03515625 -15 c 0x84
 229.03515625 -15 208.341796875 -12 193.649414062 -9 c 1
 246.720703125 47 262.095703125 145 278.776367188 259 c 0
 295.765625 376 337.065429688 457 404.517578125 546 c 1
 402.055664062 548 l 1
 393.749023438 545 377.209960938 543 367.209960938 543 c 0
 276.209960938 543 183.047851562 626 117.047851562 626 c 0
 53.0478515625 626 20.1298828125 578 32.3662109375 525 c 0
 44.37109375 473 86.0673828125 431 144.067382812 431 c 0
 197.067382812 431 224.44921875 464 245.212890625 517 c 1
 263.291015625 508 l 1
 245.296875 443 212.993164062 401 148.993164062 401 c 0
 73.9931640625 401 7.98828125 453 -9.095703125 527 c 0
 -26.4111328125 602 22.04296875 678 119.04296875 678 c 0x74
 159.04296875 678 199.275390625 664 276.35546875 629 c 0
 315.51171875 611 337.512695312 598 359.512695312 598 c 0
 395.512695312 598 439.049804688 613 472.200195312 647 c 2x2c
 494.12109375 669 l 1
 512.814453125 653 l 1
 453.360351562 577 413.754882812 480 390.923828125 332 c 0
 371.782226562 207 328.33203125 92 266.4921875 22 c 1
 269.185546875 19 l 1
 368.181640625 58 426.858398438 211 465.078125 327 c 0
 537.209960938 543 612.276367188 651 699.276367188 651 c 0
 710.276367188 651 726.96875 648 752.81640625 640 c 1
 691.821289062 588 677.755859375 467 650.461914062 334 c 0
 623.782226562 207 591.637695312 108 527.03125 24 c 1x84
EndSplineSet
EndChar

StartChar: gdotaccent
Encoding: 289 289 125
Width: 811
Flags: W
HStem: -15 30<175.431 289.227> -14 44<540.484 633.153> 63 100<134.914 180.804> 372 30<227.775 337.726> 654 33<228.332 369.376 670.415 712.584>
VStem: 92.5625 103.229<69.7227 147.407> 383.291 20.1543<467.374 504.737>
LayerCount: 4
Fore
SplineSet
535.676757812 489 m 1xbe
 537.676757812 489 l 1
 584.893554688 631 648.96484375 687 717.96484375 687 c 0
 757.96484375 687 796.12109375 669 806.509765625 624 c 0
 814.821289062 588 792.438476562 568 765.438476562 568 c 0
 740.438476562 568 712.206054688 582 704.818359375 614 c 0
 702.047851562 626 703.354492188 642 712.583984375 654 c 1
 639.583984375 654 577.2890625 521 535.000976562 323 c 0
 522.083984375 262 505.40234375 161 520.639648438 95 c 0
 529.412109375 57 548.645507812 30 585.645507812 30 c 0
 622.645507812 30 658.873046875 68 713.017578125 154 c 1
 736.481445312 139 l 1
 688.56640625 52 648.803710938 -14 566.803710938 -14 c 0x7e
 503.803710938 -14 457.954101562 20 442.716796875 86 c 0
 439.946289062 98 436.482421875 126 439.01953125 141 c 1
 437.01953125 141 l 1
 391.413085938 44 333.03515625 -15 231.03515625 -15 c 0
 155.03515625 -15 104.106445312 41 92.5625 91 c 0
 83.55859375 130 98.9404296875 163 133.940429688 163 c 0
 160.940429688 163 190.01953125 141 195.791015625 116 c 0
 202.024414062 89 189.02734375 63 161.02734375 63 c 0
 154.02734375 63 140.333984375 66 134.641601562 69 c 1
 160.645507812 30 193.108398438 15 241.108398438 15 c 0
 319.108398438 15 384.712890625 125 427.0859375 249 c 0
 457.307617188 339 471.682617188 437 455.751953125 506 c 0
 433.358398438 603 382.583984375 654 297.583984375 654 c 0
 208.583984375 654 151.12890625 591 172.830078125 497 c 0
 185.06640625 444 222.762695312 402 281.762695312 402 c 0
 352.762695312 402 375.680664062 450 383.291015625 508 c 1
 403.4453125 503 l 1
 399.145507812 422 355.688476562 372 285.688476562 372 c 0
 209.688476562 372 149.375976562 421 131.599609375 498 c 0
 106.896484375 605 177.96484375 687 292.96484375 687 c 0
 413.96484375 687 510.28125 599 535.676757812 489 c 1xbe
EndSplineSet
EndChar

StartChar: uni0122
Encoding: 290 290 126
Width: 846
Flags: W
HStem: -226 30<268.901 358.555> 82 30<327.413 404.009> 380 30<118.309 228.79> 652 35<150.41 317.954>
VStem: 289.7 20<492.272 535>
LayerCount: 4
Fore
SplineSet
726.303710938 658 m 1
 817.303710938 658 l 1
 700.48046875 432 630.189453125 260 581.438476562 77 c 1
 620.744140625 93 664.510742188 120 699.96875 157 c 1
 718.431640625 142 l 1
 666.284179688 82 623.901367188 62 575.442382812 38 c 1
 541.146484375 -82 441.391601562 -226 309.391601562 -226 c 0
 261.391601562 -226 222.388671875 -200 213.384765625 -161 c 0
 185.21875 -39 377.446289062 -1 482.904296875 36 c 1
 505.203125 117 514.19921875 156 540.653320312 232 c 1
 536.73046875 236 l 1
 489.124023438 139 420.284179688 82 364.284179688 82 c 0
 312.284179688 82 271.434570312 116 257.813476562 175 c 0
 246.500976562 224 263.95703125 274 318.639648438 375 c 0
 388.319335938 502 395.700195312 535 387.8515625 569 c 0
 377.231445312 615 302.689453125 652 242.689453125 652 c 0
 123.689453125 652 49.2333984375 589 73.244140625 485 c 0
 83.1708984375 442 124.559570312 410 169.559570312 410 c 0
 236.559570312 410 278.09375 451 289.700195312 535 c 1
 309.700195312 535 l 1
 306.327148438 424 242.485351562 380 170.485351562 380 c 0
 106.485351562 380 45.865234375 426 31.7822265625 487 c 0
 4.078125 607 113.608398438 687 241.608398438 687 c 0
 340.608398438 687 434.69140625 626 454.315429688 541 c 0
 468.62890625 479 446.327148438 424 371.801757812 292 c 0
 322.118164062 204 315.122070312 165 320.663085938 141 c 0
 323.89453125 127 336.357421875 112 356.357421875 112 c 0
 425.357421875 112 500.118164062 204 601.251953125 407 c 2
 726.303710938 658 l 1
472.676757812 -2 m 1
 340.52734375 -49 237.608398438 -84 254.922851562 -159 c 0
 259.309570312 -178 280.46484375 -196 302.46484375 -196 c 0
 387.46484375 -196 436.2265625 -117 472.676757812 -2 c 1
EndSplineSet
EndChar

StartChar: uni0123
Encoding: 291 291 127
Width: 852
Flags: W
HStem: -15 39<169.672 337.378 501.788 696.891> 79 30<171.569 307.979> 280 49<548.612 628.122> 294 49<370.119 446.928> 413 30<207.825 322.253> 540 30<667.13 804.741> 628 30<661.567 799.665> 648 39<194.681 407.077>
VStem: 364.751 19.8467<498.089 513.822> 446.928 94.7695<195.636 281> 771.94 20.2305<117.277 162>
LayerCount: 4
Fore
SplineSet
364.750976562 519 m 1xdde0
 384.59765625 511 l 1
 368.219726562 452 340.223632812 413 269.223632812 413 c 0
 204.223632812 413 131.065429688 457 114.672851562 528 c 0
 98.974609375 596 140.96484375 687 274.96484375 687 c 0xdde0
 382.96484375 687 494.430664062 646 586.280273438 612 c 1
 630.662109375 645 678.66015625 658 725.66015625 658 c 0
 806.66015625 658 844.35546875 629 851.512695312 598 c 0
 858.669921875 567 816.903320312 540 748.903320312 540 c 0
 703.903320312 540 658.36328125 551 609.900390625 566 c 1
 580.520507812 520 562.06640625 444 548.384765625 330 c 1
 553.616210938 329 557.616210938 329 559.616210938 329 c 0
 591.384765625 330 625.76953125 337 646.3828125 356 c 1
 664.307617188 339 l 1
 640.92578125 306 607.928710938 280 559.928710938 280 c 0xeee0
 555.928710938 280 545.928710938 280 541.697265625 281 c 1
 527.9375 189 491.71484375 112 434.719726562 60 c 1
 495.106445312 41 554.03125 24 600.03125 24 c 0
 707.03125 24 767.025390625 76 771.940429688 163 c 1
 792.170898438 162 l 1
 799.258789062 49 735.03515625 -15 611.03515625 -15 c 0
 560.03515625 -15 509.571289062 0 402.72265625 34 c 1
 360.186523438 6 309.649414062 -9 250.649414062 -9 c 0
 168.649414062 -9 132.646484375 17 124.797851562 51 c 0
 117.640625 82 159.407226562 109 227.407226562 109 c 0
 269.407226562 109 322.870117188 94 376.564453125 78 c 1
 413.944335938 124 432.090820312 197 446.927734375 293 c 1
 442.696289062 294 438.696289062 294 434.696289062 294 c 0
 405.696289062 294 378.388671875 291 347.083984375 262 c 1
 326.390625 278 l 1
 351.848632812 315 390.383789062 343 437.383789062 343 c 0
 442.383789062 343 448.383789062 343 454.615234375 342 c 1
 475.833984375 458 511.057617188 535 555.975585938 583 c 1
 466.818359375 614 370.96875 648 262.96875 648 c 0
 167.96875 648 145.284179688 573 155.672851562 528 c 0
 168.37109375 473 216.296875 443 262.296875 443 c 0
 319.296875 443 344.217773438 465 364.750976562 519 c 1xdde0
810.512695312 598 m 0
 806.818359375 614 786.586914062 628 732.586914062 628 c 0xcee0
 691.586914062 628 659.895507812 618 634.205078125 595 c 1
 678.66796875 580 717.9765625 570 751.9765625 570 c 0
 788.9765625 570 813.745117188 584 810.512695312 598 c 0
348.797851562 51 m 1
 295.641601562 69 266.333007812 79 224.333007812 79 c 0
 187.333007812 79 162.565429688 65 165.797851562 51 c 0
 169.491210938 35 189.723632812 21 243.723632812 21 c 0
 287.723632812 21 322.415039062 31 348.797851562 51 c 1
EndSplineSet
EndChar

StartChar: Hcircumflex
Encoding: 292 292 128
Width: 819
Flags: W
HStem: -8 30<254.22 349.505 521.278 607.772> 173 30<40.5831 153.012> 411 30<405.609 521.198>
VStem: 460.774 108.142<217.546 279.707> 463.472 29.1504<54.0641 109>
LayerCount: 4
Fore
SplineSet
741.848632812 194 m 1xe8
 766.7734375 177 l 1
 701.169921875 54 631.483398438 -8 562.483398438 -8 c 0
 511.483398438 -8 477.479492188 31 466.859375 77 c 0
 464.3203125 88 462.780273438 99 463.471679688 109 c 1xe8
 462.241210938 110 l 1
 411.556640625 35 361.17578125 -11 293.17578125 -11 c 0
 234.17578125 -11 191.249023438 32 176.01171875 98 c 0
 168.854492188 129 169.466796875 161 176.079101562 193 c 1
 157.849609375 181 135.696289062 173 109.696289062 173 c 0
 85.6962890625 173 60.5419921875 178 35.771484375 190 c 1
 39.76953125 216 l 1
 60.6162109375 208 80.7705078125 203 99.7705078125 203 c 0
 155.770507812 203 186.536132812 243 210.532226562 282 c 1
 210.762695312 281 l 1
 261.984375 371 354.82421875 441 445.82421875 441 c 0
 474.82421875 441 536.82421875 441 580.215820312 370 c 1
 561.524414062 360 l 1
 530.2890625 400 495.75 411 465.75 411 c 0
 418.75 411 373.521484375 386 338.91015625 341 c 0
 270.688476562 251 229.163085938 119 241.861328125 64 c 0
 246.708984375 43 260.25 19 291.25 19 c 0
 365.25 19 421.319335938 101 460.774414062 164 c 1
 457.76953125 216 472.451171875 317 535.451171875 317 c 0
 551.451171875 317 563.836914062 311 568.916015625 289 c 0xf0
 576.99609375 254 536.6171875 195 492.622070312 143 c 1
 490.625976562 104 492.934570312 94 496.166992188 80 c 0
 507.249023438 32 540.557617188 22 564.557617188 22 c 0
 598.557617188 22 665.015625 59 741.848632812 194 c 1xe8
EndSplineSet
EndChar

StartChar: hcircumflex
Encoding: 293 293 129
Width: 580
Flags: W
HStem: -12 30<183.207 271.161> 170 30<475.629 560.237> 432 30<282.257 359.337> 655 32<385.859 455.386>
LayerCount: 4
Fore
SplineSet
91.099609375 493 m 1
 106.020507812 515 l 1
 139.177734375 484 170.717773438 473 201.872070312 468 c 1
 251.861328125 572 330.311523438 687 417.311523438 687 c 0
 457.311523438 687 484.083007812 662 491.009765625 632 c 0
 512.94140625 537 427.182617188 432 269.182617188 432 c 1
 232.344726562 349 150.365234375 141 168.604492188 62 c 0
 174.145507812 38 187.762695312 18 214.762695312 18 c 0
 292.762695312 18 362.985351562 95 412.7421875 226 c 1
 397.739257812 252 395.354492188 258 389.813476562 282 c 0
 371.11328125 363 407.184570312 419 444.184570312 419 c 0
 455.184570312 419 471.185546875 406 474.879882812 390 c 0
 482.498046875 357 486.118164062 311 456.356445312 232 c 1
 477.127929688 207 504.744140625 200 526.744140625 200 c 0
 538.744140625 200 549.282226562 202 555.58984375 205 c 1
 568.592773438 179 l 1
 558.977539062 173 541.670898438 170 532.670898438 170 c 0
 498.670898438 170 471.823242188 178 441.282226562 202 c 1
 440.282226562 202 l 1
 383.604492188 62 303.688476562 -12 220.688476562 -12 c 0
 166.688476562 -12 119.146484375 25 106.217773438 81 c 0
 85.6708984375 170 129.731445312 330 189.10546875 441 c 1
 156.2578125 449 121.794921875 464 91.099609375 493 c 1
462.856445312 624 m 0
 458.469726562 643 443.69921875 655 420.69921875 655 c 0
 377.69921875 655 336.860351562 585 282.256835938 462 c 1
 403.256835938 462 479.478515625 552 462.856445312 624 c 0
EndSplineSet
EndChar

StartChar: Hbar
Encoding: 294 294 130
Width: 662
Flags: W
HStem: -11 30<273.598 373.774> 173 30<40.5831 152.795> 411 30<406.448 492.166>
LayerCount: 4
Fore
SplineSet
564.69140625 225 m 1
 590.616210938 208 l 1
 502.708007812 56 403.17578125 -11 313.17578125 -11 c 0
 250.17578125 -11 200.017578125 33 183.165039062 106 c 0
 176.23828125 136 175.08203125 167 180.155273438 197 c 1
 163.849609375 181 138.696289062 173 109.696289062 173 c 0
 85.6962890625 173 60.5419921875 178 35.771484375 190 c 1
 39.76953125 216 l 1
 60.6162109375 208 80.7705078125 203 99.7705078125 203 c 0
 150.770507812 203 181.151367188 236 203.840820312 272 c 1
 249.908203125 367 344.82421875 441 434.82421875 441 c 0
 485.82421875 441 528.133789062 418 541.0625 362 c 0
 548.912109375 328 528.068359375 297 495.068359375 297 c 0
 471.068359375 297 452.529296875 308 447.450195312 330 c 0
 436.830078125 376 502.754882812 359 495.59765625 390 c 0
 493.05859375 401 479.75 411 456.75 411 c 0
 338.75 411 227.3125 166 248.552734375 74 c 0
 256.6328125 39 284.25 19 315.25 19 c 0
 375.25 19 474.783203125 73 564.69140625 225 c 1
EndSplineSet
EndChar

StartChar: hbar
Encoding: 295 295 131
Width: 845
Flags: W
HStem: -8 30<280.508 384.886 564.027 637.471> 173 30<68.98 181.676> 406 35<426.511 526.092>
LayerCount: 4
Fore
SplineSet
746.426757812 687 m 1
 561.639648438 97 l 2
 556.87109375 83 555.2578125 64 558.720703125 49 c 0
 562.18359375 34 573.954101562 22 592.954101562 22 c 0
 632.954101562 22 685.412109375 59 765.245117188 194 c 1
 792.169921875 177 l 1
 723.56640625 54 663.880859375 -8 592.880859375 -8 c 0
 540.880859375 -8 512.4921875 24 503.48828125 63 c 0
 500.025390625 78 499.33203125 94 501.637695312 110 c 1
 499.637695312 110 l 1
 444.72265625 36 393.573242188 -11 318.573242188 -11 c 0
 260.573242188 -11 218.107421875 30 203.33203125 94 c 0
 195.944335938 126 197.094726562 160 204.475585938 193 c 1
 187.477539062 180 164.092773438 173 138.092773438 173 c 0
 114.092773438 173 88.9384765625 178 64.1689453125 190 c 1
 68.166015625 216 l 1
 89.0126953125 208 109.166992188 203 128.166992188 203 c 0
 184.166992188 203 214.932617188 243 238.928710938 282 c 1
 239.159179688 281 l 1
 290.381835938 371 382.220703125 441 472.220703125 441 c 0
 518.220703125 441 555.76171875 417 568.228515625 363 c 1
 570.228515625 363 l 1
 667.426757812 687 l 1
 746.426757812 687 l 1
537.766601562 365 m 0
 531.071289062 394 509.30078125 406 480.30078125 406 c 0
 427.30078125 406 358.4609375 349 312.546875 249 c 0
 268.479492188 154 260.408203125 98 269.181640625 60 c 0
 273.798828125 40 288.646484375 19 319.646484375 19 c 0
 366.877929688 18 404.336914062 42 445.793945312 92 c 0
 510.786132812 170 555.08203125 290 537.766601562 365 c 0
EndSplineSet
EndChar

StartChar: Itilde
Encoding: 296 296 132
Width: 690
Flags: W
HStem: -15 30<336.812 486.504> 234 42<389.455 525.493> 329 59<388.764 472.555> 401 31<211.121 309.837 388.225 476.477> 621 37<502.378 626.174> 657 30<145.818 311.128>
VStem: 302.946 22.3857<98 143.458>
LayerCount: 4
Fore
SplineSet
346.66015625 658 m 1xfa
 340.81640625 640 l 1
 298.353515625 655 281.891601562 657 226.891601562 657 c 0xf6
 129.891601562 657 77.7421875 610 92.517578125 546 c 0
 109.6015625 472 206.836914062 432 309.836914062 432 c 1
 290.438476562 568 436.66015625 658 559.66015625 658 c 0xfa
 623.66015625 658 665.432617188 633 676.513671875 585 c 0
 694.983398438 505 569.9921875 414 388.224609375 400 c 1
 390.609375 394 392.071289062 392 394.995117188 388 c 0
 442.45703125 386 472.534179688 377 477.151367188 357 c 0
 481.538085938 338 465.616210938 329 441.616210938 329 c 0
 420.616210938 329 403.461914062 334 385.383789062 343 c 1
 272.771484375 311 218.780273438 220 238.635742188 134 c 0
 252.71875 73 318.108398438 15 410.108398438 15 c 0
 477.108398438 15 522.106445312 41 545.256835938 75 c 0
 563.25390625 101 567.328125 131 560.6328125 160 c 0
 550.012695312 206 508.548828125 234 456.548828125 234 c 0
 387.548828125 234 329.708007812 177 325.33203125 92 c 1
 302.946289062 98 l 1
 305.012695312 206 365.852539062 276 463.852539062 276 c 0
 554.852539062 276 609.165039062 227 624.40234375 161 c 0
 645.1796875 71 544.03515625 -15 407.03515625 -15 c 0
 292.03515625 -15 177.64453125 43 152.017578125 154 c 0
 128.23828125 257 193.229492188 348 337.072265625 379 c 1
 336.611328125 381 l 1
 330.45703125 386 325.993164062 401 320.993164062 401 c 0
 180.30078125 404 71.603515625 459 50.8251953125 549 c 0
 33.7412109375 623 92.96484375 687 207.96484375 687 c 0xf6
 256.96484375 687 291.888671875 683 346.66015625 658 c 1xfa
634.821289062 588 m 0
 630.204101562 608 604.202148438 621 575.202148438 621 c 0xfa
 480.202148438 621 373.520507812 520 381.298828125 430 c 1
 542.989257812 440 649.366210938 525 634.821289062 588 c 0
EndSplineSet
EndChar

StartChar: itilde
Encoding: 297 297 133
Width: 685
Flags: W
HStem: 96 30<316.337 458.492> 655 32<470.164 543.116>
LayerCount: 4
Fore
SplineSet
130.428710938 -209 m 1
 238.083984375 165 l 1
 225.159179688 182 216.7734375 201 211.694335938 223 c 0
 198.303710938 281 231.298828125 333 294.755859375 370 c 1
 350.198242188 563 386.571289062 687 495.571289062 687 c 0
 546.571289062 687 578.575195312 648 585.731445312 617 c 0
 615.745117188 487 469.213867188 407 372.91015625 365 c 1
 308.932617188 144 l 1
 335.93359375 131 361.087890625 126 394.087890625 126 c 0
 433.087890625 126 477.39453125 142 510.62109375 180 c 1
 532.931640625 157 l 1
 488.55078125 111 443.013671875 96 394.013671875 96 c 0
 359.013671875 96 327.3984375 103 300.627929688 115 c 1
 209.428710938 -209 l 1
 130.428710938 -209 l 1
558.271484375 606 m 0
 548.805664062 647 527.958984375 655 504.958984375 655 c 0
 452.958984375 655 428.3515625 571 414.971679688 525 c 0
 404.051757812 490 393.517578125 449 380.67578125 405 c 1
 467.364257812 441 578.818359375 517 558.271484375 606 c 0
EndSplineSet
EndChar

StartChar: Imacron
Encoding: 298 298 134
Width: 738
Flags: W
HStem: -219 34<200.367 316.738> -127 30<472.047 617.695> -72 30<217.189 381.176> -11 30<231.687 322.639> 173 30<16.5729 129.39> 406 35<370.548 478.466>
LayerCount: 4
Fore
SplineSet
605.73828125 424 m 1
 451.7109375 -74 l 1
 481.942382812 -88 517.020507812 -97 548.020507812 -97 c 0
 578.020507812 -97 616.173828125 -89 641.094726562 -67 c 1
 659.096679688 -93 l 1
 619.791992188 -122 583.946289062 -127 549.946289062 -127 c 0
 514.946289062 -127 472.099609375 -119 442.8671875 -105 c 1
 406.567382812 -186 346.186523438 -219 266.186523438 -219 c 0
 199.186523438 -219 159.64453125 -182 151.794921875 -148 c 0
 143.252929688 -111 164.01953125 -84 187.325195312 -68 c 0
 219.24609375 -46 257.323242188 -42 296.323242188 -42 c 0
 316.323242188 -42 368.477539062 -47 390.32421875 -55 c 1
 441.30859375 101 l 1
 440.078125 102 l 1
 387.624023438 26 335.166015625 -11 259.166015625 -11 c 0
 208.166015625 -11 165.469726562 31 150.924804688 94 c 0
 143.305664062 127 143.6875 160 151.068359375 193 c 1
 133.30078125 179 111.686523438 173 85.6865234375 173 c 0
 61.6865234375 173 36.5322265625 178 11.76171875 190 c 1
 15.7587890625 216 l 1
 36.60546875 208 56.759765625 203 75.759765625 203 c 0
 131.759765625 203 163.525390625 243 186.521484375 282 c 0
 240.512695312 373 335.813476562 441 415.813476562 441 c 0
 461.813476562 441 502.662109375 420 518.8203125 376 c 1
 520.8203125 376 l 1
 537.73828125 424 l 1
 605.73828125 424 l 1
491.590820312 364 m 0
 483.971679688 397 456.893554688 406 427.893554688 406 c 0
 371.893554688 406 310.206054688 357 259.6015625 247 c 0
 218.379882812 157 208.462890625 96 216.774414062 60 c 0
 222.776367188 34 245.240234375 19 267.240234375 19 c 0
 397.240234375 19 515.831054688 259 491.590820312 364 c 0
382.481445312 -86 m 1
 381.25 -85 l 1
 359.171875 -76 318.249023438 -72 294.249023438 -72 c 0
 218.249023438 -72 175.174804688 -102 184.87109375 -144 c 0
 190.412109375 -168 217.336914062 -185 250.336914062 -185 c 0
 288.336914062 -185 347.797851562 -174 382.481445312 -86 c 1
EndSplineSet
EndChar

StartChar: imacron
Encoding: 299 299 135
Width: 753
Flags: W
HStem: -11 30<479.785 553.243> 411 30<430.816 509.48> 440 29<198.986 251.451 329.525 384.779> 655 32<399.13 467.895>
LayerCount: 4
Fore
SplineSet
702.013671875 195 m 1xd0
 726.938476562 178 l 1
 651.3359375 55 574.573242188 -11 506.573242188 -11 c 0
 464.573242188 -11 431.032226562 13 419.950195312 61 c 0
 412.100585938 95 418.633789062 149 436.399414062 189 c 2
 506.153320312 346 l 2
 512.690429688 361 516.688476562 374 514.149414062 385 c 0
 511.147460938 398 501.146484375 411 483.146484375 411 c 0xd0
 396.146484375 411 272.391601562 267 208.797851562 53 c 2
 193.033203125 0 l 1
 116.033203125 0 l 1
 251.451171875 440 l 1
 203.604492188 448 160.603515625 461 109.521484375 509 c 1
 124.672851562 530 l 1
 169.138671875 489 215.833007812 473 260.755859375 469 c 1xb0
 313.586914062 630 352.426757812 687 429.426757812 687 c 0
 474.426757812 687 500.96875 650 507.43359375 622 c 0
 535.137695312 502 388.682617188 439 318.913085938 438 c 1
 276.236328125 285 l 1
 279.697265625 283 l 1
 348.071289062 394 414.220703125 441 480.220703125 441 c 0
 524.220703125 441 558.530273438 418 567.534179688 379 c 0
 574.69140625 348 569.157226562 307 552.083984375 264 c 2
 486.946289062 100 l 2
 480.102539062 82 472.874023438 57 476.798828125 40 c 0
 479.569335938 28 490.646484375 19 504.646484375 19 c 0
 554.646484375 19 624.641601562 71 702.013671875 195 c 1xd0
328.063476562 472 m 1
 329.525390625 470 l 1
 390.525390625 470 498.442382812 531 477.895507812 620 c 0
 473.508789062 639 456.814453125 655 433.814453125 655 c 0
 393.814453125 655 365.97265625 611 328.063476562 472 c 1
EndSplineSet
EndChar

StartChar: Ibreve
Encoding: 300 300 136
Width: 496
Flags: W
HStem: -11 30<251.112 323.873> 315 30<85.29 203.078> 558 95<334.237 404.23>
VStem: 322.356 95.3848<570.508 639.125>
LayerCount: 4
Fore
SplineSet
417.741210938 608 m 0
 423.743164062 582 407.284179688 558 378.284179688 558 c 0
 352.284179688 558 327.435546875 579 322.356445312 601 c 0
 316.123046875 628 335.3515625 653 365.3515625 653 c 0
 384.3515625 653 412.430664062 631 417.741210938 608 c 0
447.705078125 188 m 1
 472.629882812 171 l 1
 400.02734375 48 345.6484375 -11 284.6484375 -11 c 0
 237.6484375 -11 198.18359375 17 185.716796875 71 c 0
 176.482421875 111 181.784179688 166 204.624023438 236 c 2
 239.458984375 345 l 1
 219.076171875 325 190.384765625 315 157.384765625 315 c 0
 133.384765625 315 105.23046875 320 80.4609375 332 c 1
 84.4580078125 358 l 1
 105.3046875 350 128.458984375 345 147.458984375 345 c 0
 203.458984375 345 241.224609375 385 265.220703125 424 c 1
 338.220703125 424 l 1
 246.327148438 129 l 2
 239.40625 107 236.793945312 75 242.333984375 51 c 0
 246.490234375 33 262.72265625 19 282.72265625 19 c 0
 331.72265625 19 376.5625 76 447.705078125 188 c 1
EndSplineSet
EndChar

StartChar: ibreve
Encoding: 301 301 137
Width: 730
Flags: W
HStem: -219 34<141.838 258.13> -127 30<416.353 558.696> -72 30<158.889 322.648> 296 30<277.489 395.603> 558 95<544.227 614.221>
VStem: 532.347 95.3838<570.508 639.125>
LayerCount: 4
Fore
SplineSet
627.73046875 608 m 0
 633.733398438 582 617.274414062 558 588.274414062 558 c 0
 562.274414062 558 537.42578125 579 532.346679688 601 c 0
 526.11328125 628 545.341796875 653 575.341796875 653 c 0
 594.341796875 653 622.420898438 631 627.73046875 608 c 0
548.209960938 424 m 1
 399.413085938 -75 l 1
 429.645507812 -89 458.4921875 -97 489.4921875 -97 c 0
 519.4921875 -97 557.645507812 -89 582.56640625 -67 c 1
 600.569335938 -93 l 1
 561.264648438 -122 528.418945312 -127 491.418945312 -127 c 0
 456.418945312 -127 415.110351562 -117 386.33984375 -105 c 1
 346.424804688 -192 287.658203125 -219 207.658203125 -219 c 0
 140.658203125 -219 101.116210938 -182 93.2666015625 -148 c 0
 84.724609375 -111 105.491210938 -84 128.797851562 -68 c 0
 160.487304688 -45 201.794921875 -42 237.794921875 -42 c 0
 257.794921875 -42 309.94921875 -47 331.795898438 -55 c 1
 449.833984375 339 l 1
 425.759765625 309 386.76171875 296 345.76171875 296 c 0
 325.76171875 296 294.607421875 301 274.067382812 312 c 1
 278.065429688 338 l 1
 296.912109375 330 323.834960938 326 340.834960938 326 c 0
 406.834960938 326 447.137695312 381 475.209960938 424 c 1
 548.209960938 424 l 1
323.953125 -86 m 1
 322.72265625 -85 l 1
 300.64453125 -76 259.720703125 -72 235.720703125 -72 c 0
 159.720703125 -72 116.646484375 -102 126.34375 -144 c 0
 131.883789062 -168 158.80859375 -185 191.80859375 -185 c 0
 229.80859375 -185 289.26953125 -174 323.953125 -86 c 1
EndSplineSet
EndChar

StartChar: Iogonek
Encoding: 302 302 138
Width: 726
Flags: W
HStem: -11 30<475.513 548.876> 219 30<353.547 398.675> 411 30<442.988 523.261> 440 29<200.986 253.451 331.525 386.779> 655 32<401.13 469.895>
LayerCount: 4
Fore
SplineSet
677.861328125 187 m 1xe8
 704.786132812 170 l 1
 634.182617188 47 572.573242188 -11 504.573242188 -11 c 0
 461.573242188 -11 416.186523438 8 406.028320312 52 c 0
 392.637695312 110 430.328125 133 421.32421875 172 c 0
 416.70703125 192 395.473632812 219 349.473632812 219 c 1
 353.546875 249 l 1
 454.162109375 255 545.924804688 321 532.99609375 377 c 0
 526.532226562 405 505.146484375 411 492.146484375 411 c 0xe8
 412.146484375 411 270.161132812 268 209.797851562 53 c 2
 195.033203125 0 l 1
 118.033203125 0 l 1
 253.451171875 440 l 1
 205.604492188 448 162.603515625 461 111.521484375 509 c 1
 126.672851562 530 l 1
 171.138671875 489 217.833007812 473 262.755859375 469 c 1xd8
 315.586914062 630 354.426757812 687 431.426757812 687 c 0
 476.426757812 687 502.96875 650 509.43359375 622 c 0
 537.368164062 501 390.682617188 439 320.913085938 438 c 1
 271.69921875 270 l 1
 273.9296875 269 l 1
 345.072265625 381 417.220703125 441 502.220703125 441 c 0
 543.220703125 441 576.916015625 412 584.303710938 380 c 0
 599.309570312 315 512.240234375 246 406.241210938 233 c 1
 405.93359375 230 l 1
 450.244140625 207 471.015625 182 478.865234375 148 c 0
 490.639648438 97 462.487304688 76 469.413085938 46 c 0
 473.107421875 30 485.646484375 19 506.646484375 19 c 0
 545.646484375 19 606.719726562 62 677.861328125 187 c 1xe8
330.063476562 472 m 1
 331.525390625 470 l 1
 392.525390625 470 500.442382812 531 479.895507812 620 c 0
 475.508789062 639 458.814453125 655 435.814453125 655 c 0
 395.814453125 655 367.97265625 611 330.063476562 472 c 1
EndSplineSet
EndChar

StartChar: iogonek
Encoding: 303 303 139
Width: 579
Flags: W
HStem: -11 30<182.811 257.4> 360 30<94.0861 159.921> 655 32<393.238 467.555>
LayerCount: 4
Fore
SplineSet
65.2255859375 389 m 1
 73.2236328125 415 l 1
 111.533203125 392 142.995117188 390 172.995117188 390 c 1
 242.209960938 545 344.426757812 687 426.426757812 687 c 0
 468.426757812 687 495.275390625 666 505.895507812 620 c 0
 530.13671875 515 413.91796875 386 243.920898438 360 c 1
 211.313476562 276 154.250976562 129 169.719726562 62 c 0
 175.260742188 38 188.646484375 19 215.646484375 19 c 0
 262.646484375 19 304.94921875 74 376.091796875 186 c 1
 401.016601562 169 l 1
 324.413085938 46 278.573242188 -11 215.573242188 -11 c 0
 168.573242188 -11 121.877929688 18 108.487304688 76 c 0
 95.7900390625 131 107.08984375 212 135.158203125 294 c 0
 142.079101562 316 151 338 159.920898438 360 c 1
 129.690429688 361 96.6123046875 370 65.2255859375 389 c 1
254.609375 396 m 1
 255.840820312 395 l 1
 404.759765625 430 497.134765625 528 474.971679688 624 c 0
 470.584960938 643 455.814453125 655 432.814453125 655 c 0
 404.814453125 655 380.663085938 634 361.666015625 608 c 0
 324.208984375 558 287.909179688 477 254.609375 396 c 1
EndSplineSet
EndChar

StartChar: Idotaccent
Encoding: 304 304 140
Width: 1038
Flags: W
HStem: -11 30<738.635 813.961> 296 30<31.0092 142.001> 411 30<410.655 491.274 687.633 767.663>
LayerCount: 4
Fore
SplineSet
961.6171875 195 m 1
 986.311523438 179 l 1
 914.938476562 55 840.17578125 -11 765.17578125 -11 c 0
 726.17578125 -11 690.404296875 14 679.553710938 61 c 0
 670.087890625 102 675.69921875 147 695.002929688 189 c 2
 763.91015625 341 l 2
 774.370117188 365 775.061523438 375 772.751953125 385 c 0
 769.05859375 401 755.75 411 739.75 411 c 0
 642.75 411 514.228515625 240 450.63671875 0 c 1
 375.63671875 0 l 1
 487.833984375 337 l 2
 493.678710938 355 500.446289062 369 496.983398438 384 c 0
 493.2890625 400 480.75 411 462.75 411 c 0
 366.75 411 236.690429688 238 175.63671875 0 c 1
 98.63671875 0 l 1
 203.6796875 342 l 1
 175.067382812 310 132.299804688 296 89.2998046875 296 c 0
 69.2998046875 296 48.1455078125 301 27.60546875 312 c 1
 31.603515625 338 l 1
 50.4501953125 330 67.3740234375 326 84.3740234375 326 c 0
 150.374023438 326 200.67578125 381 228.749023438 424 c 1
 296.749023438 424 l 1
 258.838867188 285 l 1
 262.30078125 283 l 1
 330.674804688 394 396.82421875 441 463.82421875 441 c 0
 502.82421875 441 540.671875 420 550.137695312 379 c 0
 555.447265625 356 555.450195312 330 550.221679688 305 c 1
 552.453125 304 l 1
 607.674804688 394 674.82421875 441 739.82421875 441 c 0
 784.82421875 441 817.133789062 418 826.137695312 379 c 0
 833.063476562 349 827.991210938 306 806.458007812 252 c 2
 745.549804688 100 l 2
 738.705078125 82 732.477539062 57 736.170898438 41 c 0
 738.94140625 29 746.25 19 764.25 19 c 0
 814.25 19 883.475585938 70 961.6171875 195 c 1
EndSplineSet
EndChar

StartChar: dotlessi
Encoding: 305 305 141
Width: 761
Flags: W
HStem: -11 30<461.922 536.816> 296 30<30.0092 141.001> 411 30<412.058 490.855>
LayerCount: 4
Fore
SplineSet
684.6171875 195 m 1
 709.541992188 178 l 1
 636.938476562 55 561.17578125 -11 489.17578125 -11 c 0
 449.17578125 -11 413.635742188 13 402.553710938 61 c 0
 394.704101562 95 401.237304688 149 419.002929688 189 c 2
 488.755859375 346 l 2
 495.29296875 361 499.291992188 374 496.751953125 385 c 0
 493.750976562 398 480.75 411 462.75 411 c 0
 375.75 411 254.995117188 267 191.400390625 53 c 2
 175.63671875 0 l 1
 98.63671875 0 l 1
 202.6796875 342 l 1
 174.067382812 310 131.299804688 296 88.2998046875 296 c 0
 68.2998046875 296 47.1455078125 301 26.60546875 312 c 1
 30.603515625 338 l 1
 49.4501953125 330 66.3740234375 326 83.3740234375 326 c 0
 149.374023438 326 199.67578125 381 227.749023438 424 c 1
 299.749023438 424 l 1
 258.838867188 285 l 1
 262.30078125 283 l 1
 330.674804688 394 396.82421875 441 462.82421875 441 c 0
 506.82421875 441 541.133789062 418 550.137695312 379 c 0
 557.294921875 348 551.759765625 307 534.6875 264 c 2
 469.549804688 100 l 2
 462.705078125 82 455.477539062 57 459.40234375 40 c 0
 462.171875 28 473.25 19 487.25 19 c 0
 537.25 19 607.245117188 71 684.6171875 195 c 1
EndSplineSet
EndChar

StartChar: IJ
Encoding: 306 306 142
Width: 697
Flags: W
HStem: -11 30<275.653 377.588> 173 30<40.5495 154.684 560.058 658.885> 406 35<400.709 501.425>
LayerCount: 4
Fore
SplineSet
666.153320312 223 m 1
 683.924804688 198 l 1
 665.387695312 183 645.7734375 177 613.7734375 177 c 0
 592.7734375 177 567.080078125 180 540.6171875 195 c 1
 493.784179688 60 418.17578125 -11 319.17578125 -11 c 0
 253.17578125 -11 201.403320312 27 183.165039062 106 c 0
 176.23828125 136 175.08203125 167 180.155273438 197 c 1
 162.311523438 179 132.696289062 173 103.696289062 173 c 0
 79.6962890625 173 60.5419921875 178 35.771484375 190 c 1
 39.76953125 216 l 1
 60.6162109375 208 80.7705078125 203 99.7705078125 203 c 0
 152.770507812 203 185.151367188 236 206.147460938 275 c 0
 254.908203125 367 346.82421875 441 444.82421875 441 c 0
 497.82421875 441 540.366210938 404 551.909179688 354 c 0
 560.913085938 315 560.840820312 272 547.921875 224 c 1
 566.461914062 213 590.846679688 207 610.846679688 207 c 0
 635.846679688 207 650.154296875 210 666.153320312 223 c 1
521.678710938 355 m 1
 511.521484375 386 490.904296875 406 454.904296875 406 c 0
 340.904296875 406 226.388671875 170 246.474609375 83 c 0
 254.092773438 50 278.25 19 317.25 19 c 0
 384.25 19 461.9375 68 506.923828125 211 c 1
 490.537109375 230 481.919921875 250 477.302734375 270 c 0
 468.529296875 308 488.063476562 349 521.678710938 355 c 1
EndSplineSet
EndChar

StartChar: ij
Encoding: 307 307 143
Width: 773
Flags: W
HStem: -11 80<346.073 471.75> 296 30<94.1532 205.35> 411 30<476.287 559.53>
LayerCount: 4
Fore
SplineSet
322.983398438 285 m 1
 326.4453125 283 l 1
 394.818359375 394 460.967773438 441 526.967773438 441 c 0
 570.967773438 441 624.739257812 416 641.82421875 342 c 0
 663.525390625 248 615.616210938 109 536.161132812 46 c 1
 579.854492188 30 623.165039062 7 658.475585938 -29 c 1
 641.092773438 -49 l 1
 584.627929688 -8 553.779296875 13 501.85546875 17 c 1
 475.780273438 0 446.3203125 -11 415.3203125 -11 c 0
 365.3203125 -11 339.857421875 4 335.932617188 21 c 0
 330.853515625 43 359.850585938 69 414.850585938 69 c 0
 433.850585938 69 450.850585938 69 472.774414062 65 c 1
 523.155273438 98 593.830078125 277 572.12890625 371 c 0
 566.587890625 395 551.893554688 411 526.893554688 411 c 0
 439.893554688 411 321.138671875 267 255.544921875 53 c 2
 175.032226562 -209 l 1
 98.0322265625 -209 l 1
 266.82421875 342 l 1
 239.366210938 305 195.443359375 296 152.443359375 296 c 0
 132.443359375 296 111.2890625 301 90.75 312 c 1
 94.7470703125 338 l 1
 113.59375 330 130.517578125 326 147.517578125 326 c 0
 213.517578125 326 264.05078125 380 292.123046875 423 c 1
 363.892578125 424 l 1
 322.983398438 285 l 1
EndSplineSet
EndChar

StartChar: Jcircumflex
Encoding: 308 308 144
Width: 780
Flags: W
HStem: -11 30<232.842 323.794> 173 30<17.7272 130.544> 406 35<371.703 479.621>
LayerCount: 4
Fore
SplineSet
705.145507812 202 m 1
 727.30078125 184 l 1
 696.228515625 141 637.850585938 69 556.552734375 -25 c 0
 473.715820312 -121 429.26171875 -197 424.032226562 -209 c 1
 346.032226562 -209 l 1
 443.462890625 101 l 1
 441.232421875 102 l 1
 388.778320312 26 336.3203125 -11 260.3203125 -11 c 0
 209.3203125 -11 166.624023438 31 152.079101562 94 c 0
 144.4609375 127 144.841796875 160 152.223632812 193 c 1
 134.455078125 179 112.840820312 173 86.8408203125 173 c 0
 62.8408203125 173 37.6865234375 178 12.916015625 190 c 1
 16.9130859375 216 l 1
 37.759765625 208 57.9140625 203 76.9140625 203 c 0
 132.9140625 203 164.6796875 243 187.67578125 282 c 0
 241.666992188 373 336.967773438 441 416.967773438 441 c 0
 462.967773438 441 503.81640625 420 519.974609375 376 c 1
 521.974609375 376 l 1
 538.892578125 424 l 1
 606.892578125 424 l 1
 447.098632812 -101 l 1
 450.560546875 -103 l 1
 492.24609375 -41 659.997070312 142 705.145507812 202 c 1
492.745117188 364 m 0
 485.125976562 397 458.047851562 406 429.047851562 406 c 0
 373.047851562 406 311.360351562 357 260.755859375 247 c 0
 219.534179688 157 209.6171875 96 217.928710938 60 c 0
 223.931640625 34 246.39453125 19 268.39453125 19 c 0
 398.39453125 19 516.986328125 259 492.745117188 364 c 0
EndSplineSet
EndChar

StartChar: jcircumflex
Encoding: 309 309 145
Width: 580
Flags: W
HStem: 277 30<470.569 551.341> 296 30<30.6254 141.822>
LayerCount: 4
Fore
SplineSet
548.453125 311 m 1x80
 557.686523438 284 l 1
 548.840820312 279 539.302734375 277 527.302734375 277 c 0x80
 487.302734375 277 449.146484375 295 429.220703125 325 c 1
 213.546875 133 l 1
 173.252929688 0 l 1
 100.252929688 0 l 1
 203.372070312 346 l 1
 175.991210938 313 131.916015625 296 88.916015625 296 c 0
 68.916015625 296 47.76171875 301 27.2216796875 312 c 1
 31.2197265625 338 l 1
 50.06640625 330 66.9892578125 326 83.9892578125 326 c 0x40
 149.989257812 326 200.291992188 381 228.364257812 424 c 1
 300.364257812 424 l 1
 233.002929688 196 l 1
 235.233398438 195 l 1
 412.294921875 355 l 1
 399.596679688 410 424.747070312 444 468.747070312 444 c 0
 496.747070312 444 514.671875 427 516.98046875 417 c 1
 450.065429688 343 l 1
 466.60546875 319 489.375976562 307 520.375976562 307 c 0
 529.375976562 307 537.145507812 308 548.453125 311 c 1x80
EndSplineSet
EndChar

StartChar: uni0136
Encoding: 310 310 146
Width: 515
Flags: W
HStem: -11 30<165.373 272.962>
VStem: 272.059 68.7637<419.423 527.203>
LayerCount: 4
Fore
SplineSet
132.924804688 243 m 1
 117.69140625 270 l 1
 173.842773438 291 236.223632812 337 283.291992188 419 c 1
 278.213867188 428 273.905273438 438 272.05859375 446 c 0
 259.360351562 501 288.434570312 531 305.434570312 531 c 0
 317.434570312 531 335.28125 523 340.822265625 499 c 0
 346.1328125 476 343.443359375 440 319.600585938 409 c 1
 369.221679688 350 405.536132812 288 419.387695312 228 c 0
 433.701171875 166 424.553710938 106 382.096679688 56 c 0
 345.486328125 11 292.565429688 -11 224.565429688 -11 c 0
 173.565429688 -11 118.793945312 14 107.25 64 c 0
 97.5537109375 106 119.934570312 139 149.934570312 139 c 0
 171.934570312 139 194.474609375 128 200.477539062 102 c 0
 212.250976562 51 148.7109375 75 155.40625 46 c 0
 158.869140625 31 189.639648438 19 215.639648438 19 c 0
 310.639648438 19 377.859375 122 341.844726562 278 c 0
 333.763671875 313 318.453125 349 301.372070312 384 c 1
 299.372070312 384 l 1
 248.072265625 303 197.999023438 273 132.924804688 243 c 1
EndSplineSet
EndChar

StartChar: uni0137
Encoding: 311 311 147
Width: 551
Flags: W
HStem: -11 30<221.782 295.476> 276 30<40.6786 151.095> 496 30<159.249 255.175 340.249 479.175>
LayerCount: 4
Fore
SplineSet
485.249023438 526 m 1
 479.174804688 496 l 1
 333.174804688 496 l 1
 213.521484375 109 l 2
 207.369140625 88 209.448242188 66 212.911132812 51 c 0
 217.297851562 32 233.299804688 19 253.299804688 19 c 0
 305.299804688 19 348.216796875 80 420.359375 192 c 1
 445.284179688 175 l 1
 374.142578125 50 321.225585938 -11 251.225585938 -11 c 0
 209.225585938 -11 168.9921875 16 156.525390625 70 c 0
 146.135742188 115 157.284179688 175 175.663085938 234 c 2
 204.422851562 326 l 1
 176.041015625 293 141.965820312 276 98.9658203125 276 c 0
 78.9658203125 276 57.8115234375 281 37.2724609375 292 c 1
 41.26953125 318 l 1
 60.1171875 310 85.0400390625 306 102.040039062 306 c 0
 167.040039062 306 209.6484375 377 233.028320312 423 c 1
 255.174804688 496 l 1
 153.174804688 496 l 1
 159.249023438 526 l 1
 262.249023438 526 l 1
 302.774414062 658 l 1
 381.774414062 658 l 1
 340.249023438 526 l 1
 485.249023438 526 l 1
EndSplineSet
EndChar

StartChar: kgreenlandic
Encoding: 312 312 148
Width: 753
Flags: W
HStem: -8 30<194.146 281.187 477.009 548.886> 296 30<9.04675 119.932>
LayerCount: 4
Fore
SplineSet
673.809570312 190 m 1
 700.734375 173 l 1
 632.9765625 55 574.521484375 -8 501.521484375 -8 c 0
 451.521484375 -8 424.364257812 23 415.129882812 63 c 0
 412.58984375 74 409.278320312 110 409.508789062 122 c 1
 406.27734375 123 l 1
 351.131835938 37 293.213867188 -11 226.213867188 -11 c 0
 183.213867188 -11 142.75 17 128.897460938 77 c 0
 119.893554688 116 126.2734375 162 142.806640625 216 c 2
 181.717773438 342 l 1
 152.412109375 313 110.336914062 296 67.3369140625 296 c 0
 47.3369140625 296 26.1826171875 301 5.6435546875 312 c 1
 9.640625 338 l 1
 28.4873046875 330 45.4111328125 326 62.4111328125 326 c 0
 128.411132812 326 178.713867188 381 206.786132812 424 c 1
 281.786132812 424 l 1
 190.892578125 129 l 2
 183.202148438 106 181.359375 75 186.900390625 51 c 0
 190.825195312 34 207.288085938 19 227.288085938 19 c 0
 322.288085938 19 429.809570312 190 488.786132812 424 c 1
 566.786132812 424 l 1
 475.354492188 127 l 2
 464.434570312 92 465.975585938 68 469.438476562 53 c 0
 473.59375 35 484.594726562 22 505.594726562 22 c 0
 551.594726562 22 600.282226562 71 673.809570312 190 c 1
EndSplineSet
EndChar

StartChar: Lacute
Encoding: 313 313 149
Width: 618
Flags: W
HStem: -11 30<206.328 301.758> 174 30<493.203 581.023> 296 30<11.0092 122.27>
VStem: 400.376 84.9912<246.547 433.111>
LayerCount: 4
Fore
SplineSet
576.154296875 210 m 1
 589.387695312 183 l 1
 576.7734375 177 560.465820312 174 544.465820312 174 c 0
 517.465820312 174 489.387695312 183 462.770507812 203 c 1
 408.629882812 65 344.17578125 -11 245.17578125 -11 c 0
 200.17578125 -11 147.01953125 20 131.782226562 86 c 0
 121.162109375 132 132.541015625 191 151.381835938 248 c 2
 181.141601562 340 l 1
 152.836914062 311 111.299804688 296 69.2998046875 296 c 0
 49.2998046875 296 28.1455078125 301 7.60546875 312 c 1
 11.603515625 338 l 1
 30.4501953125 330 47.3740234375 326 64.3740234375 326 c 0
 130.374023438 326 180.67578125 381 208.749023438 424 c 1
 283.749023438 424 l 1
 193.854492188 129 l 2
 188.548828125 113 184.474609375 83 190.015625 59 c 0
 195.094726562 37 219.25 19 247.25 19 c 0
 308.25 19 388.62890625 78 432.999023438 228 c 1
 420.842773438 246 406.147460938 275 400.375976562 300 c 0
 383.522460938 373 400.82421875 441 444.82421875 441 c 0
 465.82421875 441 478.671875 420 485.3671875 391 c 0
 496.91015625 341 489.995117188 267 474.844726562 233 c 1
 497.692382812 212 521.5390625 204 543.5390625 204 c 0
 554.5390625 204 566.078125 206 576.154296875 210 c 1
EndSplineSet
EndChar

StartChar: lacute
Encoding: 314 314 150
Width: 888
Flags: W
HStem: -11 30<206.328 294.967 476.328 571.758> 174 30<763.203 851.001> 296 30<11.0092 122.233>
VStem: 670.376 84.9912<246.547 433.111>
LayerCount: 4
Fore
SplineSet
846.154296875 210 m 1
 859.387695312 183 l 1
 846.7734375 177 830.465820312 174 814.465820312 174 c 0
 787.465820312 174 759.387695312 183 732.770507812 203 c 1
 678.629882812 65 614.17578125 -11 515.17578125 -11 c 0
 470.17578125 -11 417.01953125 20 401.782226562 86 c 0
 400.396484375 92 399.2421875 97 398.625976562 104 c 1
 396.625976562 104 l 1
 357.249023438 32 312.17578125 -11 245.17578125 -11 c 0
 200.17578125 -11 147.01953125 20 131.782226562 86 c 0
 121.162109375 132 132.541015625 191 151.381835938 248 c 2
 181.141601562 340 l 1
 152.60546875 312 111.299804688 296 69.2998046875 296 c 0
 49.2998046875 296 28.1455078125 301 7.60546875 312 c 1
 11.603515625 338 l 1
 30.4501953125 330 47.3740234375 326 64.3740234375 326 c 0
 130.374023438 326 180.67578125 381 208.749023438 424 c 1
 283.749023438 424 l 1
 193.854492188 129 l 2
 188.548828125 113 184.474609375 83 190.015625 59 c 0
 195.094726562 37 219.25 19 247.25 19 c 0
 314.25 19 371.473632812 96 421.381835938 248 c 2
 478.749023438 424 l 1
 553.749023438 424 l 1
 463.854492188 129 l 2
 458.548828125 113 454.474609375 83 460.015625 59 c 0
 465.094726562 37 489.25 19 517.25 19 c 0
 578.25 19 658.62890625 78 702.999023438 228 c 1
 690.842773438 246 676.147460938 275 670.375976562 300 c 0
 653.522460938 373 670.82421875 441 714.82421875 441 c 0
 735.82421875 441 748.671875 420 755.3671875 391 c 0
 766.91015625 341 759.995117188 267 744.844726562 233 c 1
 767.692382812 212 791.5390625 204 813.5390625 204 c 0
 825.5390625 204 835.078125 206 846.154296875 210 c 1
EndSplineSet
EndChar

StartChar: uni013B
Encoding: 315 315 151
Width: 752
Flags: W
HStem: -8 30<151.01 239.98 422.357 509.735> 408 30<256.942 342.923 509.775 584.257>
LayerCount: 4
Fore
SplineSet
655.770507812 203 m 1
 681.6953125 186 l 1
 615.399414062 66 543.483398438 -8 454.483398438 -8 c 0
 410.483398438 -8 359.404296875 14 344.859375 77 c 1
 342.859375 77 l 1
 294.635742188 13 249.17578125 -11 203.17578125 -11 c 0
 153.17578125 -11 111.404296875 14 99.861328125 64 c 0
 91.087890625 102 113.23828125 136 143.23828125 136 c 0
 165.23828125 136 187.546875 126 193.549804688 100 c 0
 204.631835938 52 142.70703125 69 149.40234375 40 c 0
 152.865234375 25 170.25 19 190.25 19 c 0
 312.25 19 372.607421875 299 358.524414062 360 c 0
 351.829101562 389 337.442382812 408 310.442382812 408 c 0
 263.442382812 408 190.676757812 368 108.844726562 233 c 1
 82.919921875 250 l 1
 168.3671875 391 240.516601562 438 310.516601562 438 c 0
 360.516601562 438 405.442382812 408 417.909179688 354 c 1
 419.909179688 354 l 1
 447.366210938 404 488.82421875 441 535.82421875 441 c 0
 585.82421875 441 622.44140625 421 635.370117188 365 c 0
 643.219726562 331 623.068359375 297 590.068359375 297 c 0
 565.068359375 297 547.067382812 310 542.450195312 330 c 0
 531.368164062 378 592.986328125 358 585.829101562 389 c 0
 583.2890625 400 571.75 411 546.75 411 c 0
 466.75 411 385.083007812 154 405.399414062 66 c 0
 411.6328125 39 434.557617188 22 457.557617188 22 c 0
 521.557617188 22 587.08984375 89 655.770507812 203 c 1
EndSplineSet
EndChar

StartChar: uni013C
Encoding: 316 316 152
Width: 658
Flags: W
HStem: -219 34<137.405 253.776> -127 30<410.254 554.261> -72 30<154.454 318.213> -11 30<170.664 251.955> 296 30<-14.9635 95.7201>
LayerCount: 4
Fore
SplineSet
542.775390625 424 m 1
 447.500976562 96 l 2
 429.814453125 34 411.743164062 -22 389.748046875 -74 c 1
 419.98046875 -88 454.05859375 -97 485.05859375 -97 c 0
 515.05859375 -97 553.2109375 -89 578.131835938 -67 c 1
 596.134765625 -93 l 1
 556.830078125 -122 523.984375 -127 486.984375 -127 c 0
 451.984375 -127 408.67578125 -117 379.905273438 -105 c 1
 343.60546875 -186 283.224609375 -219 203.224609375 -219 c 0
 136.224609375 -219 96.681640625 -182 88.83203125 -148 c 0
 80.2900390625 -111 101.056640625 -84 124.36328125 -68 c 0
 156.052734375 -45 197.360351562 -42 233.360351562 -42 c 0
 253.360351562 -42 305.514648438 -47 327.361328125 -55 c 1
 385.498046875 122 l 1
 382.267578125 123 l 1
 327.122070312 37 269.203125 -11 202.203125 -11 c 0
 159.203125 -11 118.739257812 17 104.88671875 77 c 0
 95.8828125 116 102.263671875 162 118.796875 216 c 2
 157.70703125 342 l 1
 127.094726562 310 86.3271484375 296 43.3271484375 296 c 0
 23.3271484375 296 2.1728515625 301 -18.3671875 312 c 1
 -14.369140625 338 l 1
 4.4775390625 330 21.4013671875 326 38.4013671875 326 c 0
 104.401367188 326 154.703125 381 182.775390625 424 c 1
 257.775390625 424 l 1
 166.881835938 129 l 2
 159.192382812 106 157.348632812 75 162.889648438 51 c 0
 167.276367188 32 180.27734375 19 203.27734375 19 c 0
 298.27734375 19 405.798828125 190 464.775390625 424 c 1
 542.775390625 424 l 1
319.518554688 -86 m 1
 318.288085938 -85 l 1
 296.209960938 -76 255.286132812 -72 231.286132812 -72 c 0
 155.286132812 -72 112.212890625 -102 121.909179688 -144 c 0
 127.450195312 -168 154.375 -185 187.375 -185 c 0
 225.375 -185 284.834960938 -174 319.518554688 -86 c 1
EndSplineSet
EndChar

